<svg viewBox="0 0 1978 1978" fill="none" xmlns="http://www.w3.org/2000/svg">
<path d="M231.59 750.42C344.42 738.2 430.5 684.16 479.19 607.97C535.92 519.19 541.94 400.31 480.43 282.36C239.35 314.02 122.61 493.8 231.59 750.42Z" fill="#FF5200"/>
<path d="M704.01 268.77C815.95 254.35 869.1 149.48 817.49 49.0801C711.58 64.6701 667.57 150.77 704.01 268.77Z" fill="#FF5200"/>
<path d="M605.54 341.03C684.96 275.97 674.33 169.13 584.91 116.16C510.73 179.21 519.17 267.11 605.54 341.03Z" fill="#FF5200"/>
<path d="M631.43 131.17C675.18 135.39 691.55 112.76 686.99 75.9199C647.07 72.4499 628.86 95.7599 631.43 131.17Z" fill="#FF5200"/>
<path d="M1017.36 324.76C1035.92 405 1082.07 463.33 1140.82 493.37C1209.28 528.36 1294.87 524.98 1373.91 473.17C1330.29 302.07 1191.5 229.87 1017.36 324.76Z" fill="#FF5200"/>
<path d="M199.63 1079.04C252.27 1020.29 273.31 951.86 265.71 889.06C256.84 815.89 209.09 750.34 127.11 716.57C17.0001 845.04 34.0101 994.07 199.63 1079.04Z" fill="#FF5200"/>
<path d="M1479.69 943.02C1294.87 864.93 1116.3 959.39 1106.83 1166.58C1284.15 1236.68 1441.71 1158.84 1479.69 943.02Z" fill="#FF5200"/>
<path d="M1333.88 1767.12C1306.99 1607.5 1118.41 1495.07 922.83 1612.42C934.57 1775.86 1124.29 1899.59 1333.88 1767.12Z" fill="#FF5200"/>
<path d="M651.35 1212.44C544.54 1144.02 426.76 1180.85 403.17 1305.29C506.06 1368.02 609.51 1338.86 651.35 1212.44Z" fill="#FF5200"/>
<path d="M260.57 1643.36C328.43 1656.74 388.32 1640.94 430.49 1605.46C479.62 1564.11 504.71 1496.04 490.35 1416.26C344.34 1390.89 243.78 1474.28 260.57 1643.36Z" fill="#FF5200"/>
<path d="M1732.84 1151.83C1724.15 1200.62 1736.2 1243.41 1762.08 1273.28C1792.23 1308.08 1841.16 1325.38 1897.96 1314.27C1905.8 1267.23 1895.17 1226.04 1868.13 1196.87C1840.01 1166.56 1794.15 1149.23 1732.84 1151.83Z" fill="#FF5200"/>
<path d="M1771.02 1150.22C1819.48 1155.39 1860.55 1140.57 1887.94 1113.04C1919.85 1080.96 1933.23 1031.62 1918.18 976.5C1814.11 967.78 1748.71 1032.57 1771.02 1150.22Z" fill="#FF5200"/>
<path d="M1442.37 1500.99C1500.25 1530.8 1559.19 1533.32 1607.61 1514.13C1664.03 1491.75 1706.19 1439.89 1715.83 1367.32C1590.32 1306.14 1475.19 1350.86 1442.37 1500.99Z" fill="#FF5200"/>
<path d="M1901.02 1699.15C1781.11 1709.47 1712.81 1809.58 1765.8 1922.15C1879.5 1909.7 1941.3 1824.29 1901.02 1699.15Z" fill="#FF5200"/>
<path d="M1658 478.82C1686.26 507.93 1720.57 520.77 1752.99 518.48C1790.77 515.8 1825.99 492.58 1846.13 450.61C1784.17 389.57 1707.27 394.47 1658 478.82Z" fill="#FF5200"/>
<path d="M521.21 240.64C501.42 206.73 476.48 206.69 452.18 229.23C470.5 259.97 496.9 260.99 521.21 240.64Z" fill="#FF5200"/>
<path d="M443.24 250.14C415.8 242.69 398.61 257.67 397.51 281.64C422.57 288.2 441.02 272.99 443.24 250.14Z" fill="#FF5200"/>
<path d="M1327.36 87.6201C1303.68 133.86 1304.03 179.97 1323.02 217.08C1345.15 260.32 1392.59 291.38 1456.81 296.3C1505.12 196.14 1460.78 107.86 1327.36 87.6201Z" fill="#FF5200"/>
<path d="M543.21 468.99C547.58 520.98 571.24 561.73 605.35 585.88C645.1 614.02 699.07 619.65 753.32 594.33C741.46 483.1 660.98 425.27 543.21 468.99Z" fill="#FF5200"/>
<path d="M995.13 351.68C1052.37 244.13 992 139.55 869.97 130.68C817.55 233.49 866.89 319.69 995.13 351.68Z" fill="#FF5200"/>
<path d="M1170.87 42.7998C1152.12 79.4098 1152.4 115.91 1167.44 145.28C1184.96 179.52 1222.51 204.1 1273.35 208C1311.59 128.71 1276.49 58.8298 1170.87 42.7998Z" fill="#FF5200"/>
<path d="M547.21 1149.14C552.18 1102.03 538.25 1060.19 512.28 1030.5C482.02 995.91 435.41 977.8 383.3 987.04C374.88 1088.43 436 1159.22 547.21 1149.14Z" fill="#FF5200"/>
<path d="M321.27 1379.42C359.94 1352 380.71 1315.43 383.59 1278.77C386.93 1236.05 365.95 1193.17 320.59 1164.48C246.38 1215.39 231.62 1311.89 321.27 1379.42Z" fill="#FF5200"/>
<path d="M976.08 1950.21C1025.4 1821.97 919.18 1696.17 782.97 1715.83C760.96 1841.2 830.02 1949.56 976.08 1950.21Z" fill="#FF5200"/>
<path d="M1527.04 1185.15C1572.2 1208.84 1618.89 1211.99 1657.78 1198.57C1703.09 1182.92 1737.83 1144.75 1747.29 1090.29C1649.26 1041.54 1556.82 1072.77 1527.04 1185.15Z" fill="#FF5200"/>
<path d="M1844.21 1674.5C1881.17 1655.84 1903.87 1626.21 1911.1 1593.75C1919.52 1555.91 1906.95 1514.21 1871.48 1481.47C1793.18 1523.24 1775.49 1600.09 1844.21 1674.5Z" fill="#FF5200"/>
<path d="M1497.56 1889.99C1530.4 1916.86 1568.04 1926.33 1602.16 1920.44C1641.93 1913.57 1676.95 1885.84 1694.11 1840.47C1622.39 1784.42 1541.38 1797.84 1497.56 1889.99Z" fill="#FF5200"/>
<path d="M1464.82 537.4C1447.73 577.48 1448.49 616.71 1463 647.71C1479.91 683.84 1515.5 708.84 1563.28 711.08C1598.1 624.36 1564.2 550.58 1464.82 537.4Z" fill="#FF5200"/>
<path d="M1719.96 1549.95C1766.66 1546.95 1802.8 1525.66 1823.77 1494.23C1848.19 1457.6 1852.02 1407.2 1827.97 1355.87C1728.11 1364.63 1677.89 1438.76 1719.96 1549.95Z" fill="#FF5200"/>
<path d="M1029.78 144.44C1094.97 150.43 1138.31 97.8002 1121.8 34.4402C1059.88 29.8702 1024.08 73.0302 1029.78 144.44Z" fill="#FF5200"/>
<path d="M754.49 1661.23C806.61 1667.96 851.25 1653.44 881.49 1625.16C916.71 1592.2 932.39 1540.57 917.58 1482.1C805.61 1470.16 733.44 1536.69 754.49 1661.23Z" fill="#FF5200"/>
<path d="M1640.52 1758.26C1658.75 1715.15 1655.89 1673.3 1637.18 1640.49C1615.36 1602.25 1572 1576.26 1515.34 1574.78C1478.46 1667.99 1522.27 1746.09 1640.52 1758.26Z" fill="#FF5200"/>
<path d="M1389.09 509.37C1431.52 531.62 1475.39 534.58 1511.92 521.97C1554.49 507.27 1587.13 471.41 1596.02 420.24C1503.92 374.44 1417.07 403.78 1389.09 509.37Z" fill="#FF5200"/>
<path d="M884.8 121.29C954.92 141.23 1010.82 99.99 1003.19 35.43C936.41 17.57 890.29 51.33 884.8 121.29Z" fill="#FF5200"/>
<path d="M1020.16 201.69C1066.37 277.09 1152.01 282.62 1200.28 214.8C1155.3 144.07 1084.86 139.26 1020.16 201.69Z" fill="#FF5200"/>
<path d="M1595.48 930.15C1595.92 972.82 1612.99 1007.3 1639.72 1028.76C1670.88 1053.77 1715.17 1061.12 1761.59 1043.21C1758.59 951.79 1695.57 900.46 1595.48 930.15Z" fill="#FF5200"/>
<path d="M508.23 1645.91C555.02 1644.86 592.28 1625.68 614.97 1596.1C641.39 1561.62 648.04 1512.99 626.92 1462.37C526.77 1466.9 472.49 1536.65 508.23 1645.91Z" fill="#FF5200"/>
<path d="M674.97 437.31C739.67 433.37 773.24 378.94 746.52 323.36C685.26 328.13 657.48 372.81 674.97 437.31Z" fill="#FF5200"/>
<path d="M431.21 1795.37C533.95 1825.67 610.03 1761.21 600.53 1682.07C525.37 1658.12 433.6 1694.54 431.21 1795.37Z" fill="#FF5200"/>
<path d="M719.54 1467.42C723.51 1429.65 712.39 1396.71 691.66 1373.87C667.5 1347.26 630.29 1334.34 588.69 1343.44C581.97 1424.66 630.76 1479.15 719.54 1467.42Z" fill="#FF5200"/>
<path d="M631.99 1112.48C646.51 1080.92 647.07 1049.43 636.67 1024.05C624.54 994.47 597.51 973.18 560.3 969.72C530.58 1038.07 554.85 1098.44 631.99 1112.48Z" fill="#FF5200"/>
<path d="M638.21 765.11C693.87 706.77 679.37 627.93 609 598.98C557.14 655.19 568.84 720.09 638.21 765.11Z" fill="#FF5200"/>
<path d="M822.29 394.3C875.96 340.85 865.27 267.78 801.01 240.33C750.95 291.85 759.54 352 822.29 394.3Z" fill="#FF5200"/>
<path d="M600.45 445.08C605.9 393.21 578.54 373.78 533.8 379.15C529.28 426.48 557.46 448.09 600.45 445.08Z" fill="#FF5200"/>
<path d="M657.49 420.26C665.45 387.36 650.37 352.18 612.52 351.5C601.76 386.32 620.77 418.65 657.49 420.26Z" fill="#FF5200"/>
<path d="M1025.99 472.45C1022.71 386.75 951.89 336.31 877.75 365.17C882.23 446.44 940.35 488.14 1025.99 472.45Z" fill="#FF5200"/>
<path d="M784.47 545.33C826.57 511.09 820.67 476.67 783.73 447.78C745.65 479.36 750.56 515.98 784.47 545.33Z" fill="#FF5200"/>
<path d="M892.41 500.84C898.5 437.54 864.94 414.14 810.44 421.16C805.44 478.91 840.01 504.96 892.41 500.84Z" fill="#FF5200"/>
<path d="M1635.79 520.92C1607.4 543.1 1591.29 573.7 1587.83 604.94C1583.81 641.35 1596.96 678.66 1627.89 704.64C1687.87 655.53 1696.51 581.5 1635.79 520.92Z" fill="#FF5200"/>
<path d="M1390.42 617.63C1378.38 644.49 1377.54 670.54 1385.58 690.96C1394.96 714.75 1416.39 730.9 1446.21 731.78C1470.9 673.7 1452.16 625.11 1390.42 617.63Z" fill="#FF5200"/>
<path d="M1014.87 1911.35C1042.92 1939.73 1077 1952.27 1109.22 1950.06C1146.75 1947.47 1181.77 1924.87 1201.81 1883.99C1140.29 1824.48 1063.88 1829.2 1014.87 1911.35Z" fill="#FF5200"/>
<path d="M452.68 958.43C454.86 870.6 375.8 825.61 287.31 862.53C286.83 945.69 351.69 982.92 452.68 958.43Z" fill="#FF5200"/>
<path d="M423.44 734.18C345.39 717.94 273.81 766.74 272.09 835.95C346.62 850.19 405.64 810.21 423.44 734.18Z" fill="#FF5200"/>
<path d="M1663.37 241.31C1636.9 248.68 1618.16 265.22 1609.05 285.73C1598.44 309.63 1600.9 338.92 1619.4 365.35C1675.79 348.26 1697.72 299.8 1663.37 241.31Z" fill="#FF5200"/>
<path d="M1499.27 185.12C1497.32 210.31 1506.15 232.07 1521.66 246.99C1539.74 264.36 1566.9 272.44 1596.69 265.8C1599.57 211.66 1563.04 176.07 1499.27 185.12Z" fill="#FF5200"/>
<path d="M1431.03 1150.31C1467.12 1156.03 1499.11 1147.43 1521.75 1129.35C1548.13 1108.28 1561.83 1074.32 1554.57 1035.08C1476.9 1024.46 1422.91 1066.98 1431.03 1150.31Z" fill="#FF5200"/>
<path d="M1503.84 916.68C1493.17 939.44 1493.16 961.52 1501.46 978.83C1511.14 998.98 1532.09 1012.67 1560.58 1013.41C1582.38 964.2 1563 923.02 1503.84 916.68Z" fill="#FF5200"/>
<path d="M1761.28 985.61C1797.85 990.65 1834.55 965.8 1831.42 917.18C1792.47 908.85 1759.28 938.3 1761.28 985.61Z" fill="#FF5200"/>
<path d="M148.2 1466.25C240.15 1449.29 277.78 1357.04 228.8 1272.89C141.93 1290.6 110.73 1366.36 148.2 1466.25Z" fill="#FF5200"/>
<path d="M561.45 612.63C472.1 606.11 415.44 685.57 441.08 778.74C525.89 783.27 572.71 718.1 561.45 612.63Z" fill="#FF5200"/>
<path d="M180.37 725.69C117.7 709.44 100.06 648.35 135.82 598.81C190.31 614.81 208.64 669.9 180.37 725.69Z" fill="#FF5200"/>
<path d="M1320.23 583.31C1366.83 593.52 1388.17 571.08 1389.18 530.56C1346.61 521.65 1323.17 544.59 1320.23 583.31Z" fill="#FF5200"/>
<path d="M1680.19 567.87C1685.13 594.39 1700.13 613.3 1720.06 622.64C1743.29 633.53 1773.22 631.45 1801.79 613.3C1789.83 556.8 1742.76 534.31 1680.19 567.87Z" fill="#FF5200"/>
<path d="M1720.36 310.52C1699.94 358.89 1722.28 385.42 1769.47 393.05C1787.64 348.79 1765.09 319.93 1720.36 310.52Z" fill="#FF5200"/>
<path d="M1614.45 1236.58C1536.25 1202.52 1461.11 1241.45 1457.63 1329C1532.65 1359.65 1598.96 1327.62 1614.45 1236.58Z" fill="#FF5200"/>
<path d="M1468.99 1222.72C1410.6 1183.25 1339.55 1198.44 1318.38 1262.72C1374.82 1299.07 1437.03 1287.39 1468.99 1222.72Z" fill="#FF5200"/>
<path d="M1464.94 1161.09C1451.01 1197.55 1470.79 1228.06 1510.25 1227.98C1521.07 1189.21 1504.97 1160.29 1464.94 1161.09Z" fill="#FF5200"/>
<path d="M479.82 902.39C544.31 887.2 565.77 811.73 532.77 763.95C472.44 771.4 443.44 840.04 479.82 902.39Z" fill="#FF5200"/>
<path d="M346.16 972.47C253.47 976.08 206.37 1067.69 245.72 1164.21C333.47 1159.01 372.46 1083.83 346.16 972.47Z" fill="#FF5200"/>
<path d="M1169.27 941.97C1127.19 915.99 1080.34 927.56 1070.48 971.81C1111.02 995.69 1152.17 986.67 1169.27 941.97Z" fill="#FF5200"/>
<path d="M658.98 1178.72C657.21 1134.91 627.15 1120.84 594.33 1129.97C593.13 1164.65 622.05 1184.36 658.98 1178.72Z" fill="#FF5200"/>
<path d="M714.6 1351.03C712.45 1297.82 675.94 1280.73 636.07 1291.82C634.63 1333.94 669.75 1357.89 714.6 1351.03Z" fill="#FF5200"/>
<path d="M809.31 1495.55C824.77 1444.9 799.75 1411.72 756.16 1409.88C741.25 1441.12 746.55 1486.24 809.31 1495.55Z" fill="#FF5200"/>
<path d="M455.29 1160.12C402.48 1136.82 372.47 1162.88 368.78 1205.48C409.44 1226.88 445.66 1205.38 455.29 1160.12Z" fill="#FF5200"/>
<path d="M1707.29 377.63C1665.21 351.65 1618.35 363.22 1608.49 407.47C1649.04 431.35 1690.18 422.33 1707.29 377.63Z" fill="#FF5200"/>
<path d="M1415.3 309.87C1414.61 333.3 1423.66 352.37 1438.56 364.37C1455.92 378.34 1481.21 382.72 1508.28 373.25C1508.56 323.03 1473.46 294.35 1415.3 309.87Z" fill="#FF5200"/>
<path d="M1565.23 281.54C1543.34 293.82 1530.94 311.84 1528.32 330.86C1525.26 353.02 1535.45 376.55 1559.36 393.97C1605.59 366.66 1612.17 321.62 1565.23 281.54Z" fill="#FF5200"/>
<path d="M1250.27 214.34C1239.46 241.5 1240.75 267.2 1251.22 286.81C1263.41 309.67 1288.05 324.28 1320.52 323.35C1342.44 264.7 1317.97 217.99 1250.27 214.34Z" fill="#FF5200"/>
<path d="M1392.34 296.57C1354.08 288.75 1325.71 318.96 1335.09 364.04C1375.4 362.37 1400.83 336.72 1392.34 296.57Z" fill="#FF5200"/>
<path d="M1566.37 532.12C1602.59 538.31 1618.21 520.28 1617.54 489.06C1584.46 483.72 1567.24 502.22 1566.37 532.12Z" fill="#FF5200"/>
<path d="M1801.88 539.49C1843.49 558.63 1866.16 542.7 1872.49 506C1834.42 488.89 1809.75 504.84 1801.88 539.49Z" fill="#FF5200"/>
<path d="M1905.19 589.06C1865.85 626.4 1831.89 617.37 1807.07 578.92C1843.26 545.2 1879.56 553.47 1905.19 589.06Z" fill="#FF5200"/>
<path d="M646.09 791.99C599.98 782.13 554.49 803.81 559.67 855.5C608.85 869.12 649.81 842.16 646.09 791.99Z" fill="#FF5200"/>
<path d="M630.09 941.84C583.14 971.45 524.07 965.97 508.8 906.74C557.61 871.72 613.83 884.87 630.09 941.84Z" fill="#FF5200"/>
<path d="M54.18 1193.7C122.44 1193.5 164.32 1123.43 144.51 1068.31C82.49 1061.78 34.97 1123.31 54.18 1193.7Z" fill="#FF5200"/>
<path d="M61.5201 996.41C33.7301 1026.37 43.0801 1054.21 69.4401 1068.46C93.0501 1046.35 88.1301 1015.49 61.5201 996.41Z" fill="#FF5200"/>
<path d="M79.77 1287.42C122.4 1297.94 160.72 1290.82 188.35 1271.36C220.54 1248.67 238.2 1209.2 231.17 1161.28C150.58 1140.1 73.53 1186.39 79.77 1287.42Z" fill="#FF5200"/>
<path d="M326.95 1440.06C335.52 1394.85 292.96 1374.63 259.36 1385.05C260.66 1418.08 278.32 1441.46 326.95 1440.06Z" fill="#FF5200"/>
<path d="M451.59 1340.14C388.22 1325.36 346.51 1356.62 342.59 1411.3C405.63 1419.86 449.99 1389.06 451.59 1340.14Z" fill="#FF5200"/>
<path d="M288.07 1457.5C253.43 1428.9 218.04 1435.42 198.82 1468.02C235.17 1492.68 272.06 1487.26 288.07 1457.5Z" fill="#FF5200"/>
<path d="M244.96 1564.12C246.12 1519.68 229.31 1494.41 176.2 1495.07C175.73 1533.38 186.58 1563.96 244.96 1564.12Z" fill="#FF5200"/>
<path d="M538.29 1467.78C589.42 1415.08 570.8 1367.44 520.71 1343.86C477.16 1382.88 487.55 1435.89 538.29 1467.78Z" fill="#FF5200"/>
<path d="M713.02 1619.7C748.02 1562.44 721.13 1509.98 664.43 1500.05C634.72 1556.6 656.77 1614.51 713.02 1619.7Z" fill="#FF5200"/>
<path d="M769.67 1504.09C745.98 1469.94 719.22 1479.87 700.23 1499.21C715.23 1528.8 752.67 1530.75 769.67 1504.09Z" fill="#FF5200"/>
<path d="M724.34 1686.5C704.58 1618.49 635.31 1624.99 599.66 1644.17C607.26 1701.07 673.65 1717.37 724.34 1686.5Z" fill="#FF5200"/>
<path d="M341.36 1724.23C416.22 1740.86 473.56 1715.18 480.16 1645.22C410.14 1613.65 344.13 1647.5 341.36 1724.23Z" fill="#FF5200"/>
<path d="M593.88 1894.97C691.53 1867.9 705.1 1794.66 664.72 1727.67C585.86 1743.42 558.87 1817.15 593.88 1894.97Z" fill="#FF5200"/>
<path d="M747.38 1798.66C778 1746.93 748.82 1717.73 711.95 1704.43C682.09 1741.98 702.09 1792.36 747.38 1798.66Z" fill="#FF5200"/>
<path d="M571.05 1796.78C537.22 1794.66 530.53 1816.62 533.77 1838.38C560.37 1843.72 580.02 1820.95 571.05 1796.78Z" fill="#FF5200"/>
<path d="M970.15 1505.75C938.69 1516.52 942.3 1551 956.72 1565.88C984.6 1556.66 991.64 1522.98 970.15 1505.75Z" fill="#FF5200"/>
<path d="M906.83 1650.85C871.19 1633.82 840.4 1654.18 837.6 1687.85C869.72 1698.32 899.29 1686.71 906.83 1650.85Z" fill="#FF5200"/>
<path d="M766.03 1935.84C802.35 1876.43 774.45 1822.01 715.62 1811.71C684.8 1870.37 707.68 1930.45 766.03 1935.84Z" fill="#FF5200"/>
<path d="M827.22 1977.95C851.87 1937.63 832.94 1900.7 793.02 1893.71C772.11 1933.52 787.63 1974.29 827.22 1977.95Z" fill="#FF5200"/>
<path d="M991.39 1790.92C978.66 1833.02 1013.62 1857.09 1037.2 1852.77C1051.28 1818.89 1025.24 1784.71 991.39 1790.92Z" fill="#FF5200"/>
<path d="M1252.92 1835.49C1197.37 1848.48 1199.22 1908.03 1222.17 1935.95C1271.35 1924.98 1287.74 1868.64 1252.92 1835.49Z" fill="#FF5200"/>
<path d="M1320.77 1909.17C1374.25 1871.92 1375.27 1820.79 1334.49 1785.86C1296.31 1804.74 1267.12 1852.42 1320.77 1909.17Z" fill="#FF5200"/>
<path d="M1108.68 998.53C1082.07 1019.26 1074.18 1056.21 1106.74 1080.45C1136.93 1059.97 1139.7 1022.79 1108.68 998.53Z" fill="#FF5200"/>
<path d="M1112.07 1183.43C1081.07 1206.63 1071.87 1247.97 1109.81 1275.1C1144.99 1252.18 1148.22 1210.58 1112.07 1183.43Z" fill="#FF5200"/>
<path d="M1147.52 1249.96C1167.07 1277.73 1192.97 1292.53 1218.83 1294.38C1248.96 1296.53 1279.05 1281.12 1299.01 1248.18C1255.88 1189.65 1194.59 1184.8 1147.52 1249.96Z" fill="#FF5200"/>
<path d="M1321.24 1207C1343.42 1212.5 1371.01 1206.48 1374.78 1178.96C1350.87 1169.26 1323.98 1180.14 1321.24 1207Z" fill="#FF5200"/>
<path d="M1841.77 938.94C1868.43 973.5 1894.05 968.08 1914.8 936.9C1890.24 905.65 1862.94 910.27 1841.77 938.94Z" fill="#FF5200"/>
<path d="M1858.19 1171.97C1882.76 1183.6 1909.85 1175.07 1911.66 1141.51C1885.73 1127.11 1860.66 1139.54 1858.19 1171.97Z" fill="#FF5200"/>
<path d="M1703.39 1192.37C1720.36 1214.56 1725.26 1238.95 1719.82 1260.35C1713.47 1285.28 1693.08 1306.16 1661.39 1314.83C1626.11 1266.47 1638.65 1215.66 1703.39 1192.37Z" fill="#FF5200"/>
<path d="M1908.68 1373.3C1918.24 1357.94 1914.45 1336.55 1892.06 1328.24C1880.55 1344.01 1887.1 1364.75 1908.68 1373.3Z" fill="#FF5200"/>
<path d="M1888.48 1455.33C1917.55 1432.96 1924.81 1393.74 1887.04 1368.62C1853.92 1390.78 1852.45 1430.16 1888.48 1455.33Z" fill="#FF5200"/>
<path d="M1400.27 1412.34C1447.92 1424.02 1486.25 1399.73 1484.94 1356.32C1439.68 1346.58 1402.25 1367.32 1400.27 1412.34Z" fill="#FF5200"/>
<path d="M1362.74 1438.52C1347.14 1462.84 1343.81 1488 1350.66 1508.96C1358.64 1533.39 1380.45 1552.14 1412.81 1557.28C1445.07 1504.49 1429.2 1454.66 1362.74 1438.52Z" fill="#FF5200"/>
<path d="M1494.97 1695.4C1444.78 1619.23 1383.4 1607.98 1312.42 1652.49C1352.8 1734.38 1412.98 1750.83 1494.97 1695.4Z" fill="#FF5200"/>
<path d="M1465.82 1818.23C1449.58 1760.76 1405.6 1744.57 1363.14 1769.42C1368.07 1808.15 1400.62 1847.69 1465.82 1818.23Z" fill="#FF5200"/>
<path d="M1540.52 1816.29C1565.18 1765.2 1544.12 1725.99 1498.27 1716.9C1477.38 1747.53 1474.82 1810.2 1540.52 1816.29Z" fill="#FF5200"/>
<path d="M1400.58 1602.16C1398.24 1563.37 1359.92 1540.91 1318.55 1552C1327.07 1576.66 1344.32 1622.12 1400.58 1602.16Z" fill="#FF5200"/>
<path d="M1480.01 1603.76C1470 1567.01 1442.43 1555.3 1415.68 1569.5C1418.64 1594.06 1438.95 1620.08 1480.01 1603.76Z" fill="#FF5200"/>
<path d="M1307.49 1634.16C1317.1 1596.34 1297.65 1575.43 1267.52 1578.53C1261.03 1602.4 1268.77 1628.76 1307.49 1634.16Z" fill="#FF5200"/>
<path d="M1295.29 1550.18C1274.4 1512.1 1220.36 1517.43 1201.68 1547.99C1216.57 1575.66 1267.21 1584.83 1295.29 1550.18Z" fill="#FF5200"/>
<path d="M1806.07 1690.82C1786.57 1600.76 1754.38 1570.32 1651.1 1577.67C1659.37 1668.99 1709.64 1708.41 1806.07 1690.82Z" fill="#FF5200"/>
<path d="M1679.41 1697.9C1662.23 1724.69 1658.56 1752.4 1666.11 1775.5C1674.9 1802.41 1698.93 1823.07 1734.58 1828.73C1770.11 1770.58 1752.63 1715.67 1679.41 1697.9Z" fill="#FF5200"/>
<path d="M1707.1 1854.53C1698.36 1868.16 1696.49 1882.27 1700.33 1894.02C1704.8 1907.72 1717.03 1918.23 1735.17 1921.11C1753.25 1891.52 1744.35 1863.58 1707.1 1854.53Z" fill="#FF5200"/>
<path d="M1860.66 1926.05C1889.49 1932.88 1916.43 1917.64 1910.76 1881.45C1879.85 1871.99 1855.95 1890.92 1860.66 1926.05Z" fill="#FF5200"/>
<path d="M1760.74 1315.4C1768.34 1296.75 1760.69 1275.87 1735.41 1273.99C1725.8 1293.64 1736.29 1313.03 1760.74 1315.4Z" fill="#FF5200"/>
<path d="M1570.77 1537.86C1599.12 1530.82 1634.36 1538.52 1639.19 1573.68C1608.62 1586.08 1574.27 1572.17 1570.77 1537.86Z" fill="#FF5200"/>
<path d="M1637.16 1512.59C1665.77 1499.04 1701.6 1514.84 1703.7 1553.91C1668.86 1567.46 1636.04 1547.56 1637.16 1512.59Z" fill="#FF5200"/>
</svg>
