<svg width="512" height="512" viewBox="0 0 512 512" fill="#000000" xmlns="http://www.w3.org/2000/svg">
<g>
<path d="M122.523 211.152C141.292 209.119 155.611 200.129 163.711 187.455C173.148 172.687 174.149 152.911 163.917 133.291C123.814 138.557 104.395 168.463 122.523 211.152V211.152Z"/>
<path d="M201.107 131.03C219.728 128.631 228.57 111.186 219.984 94.4847C202.367 97.0781 195.046 111.401 201.107 131.03Z"/>
<path d="M184.729 143.049C197.94 132.226 196.172 114.453 181.297 105.642C168.957 116.13 170.361 130.752 184.729 143.049Z"/>
<path d="M189.034 108.139C196.312 108.841 199.035 105.077 198.277 98.9484C191.636 98.3712 188.607 102.249 189.034 108.139V108.139Z"/>
<path d="M253.235 140.342C256.322 153.69 263.999 163.393 273.772 168.39C285.16 174.211 299.398 173.648 312.546 165.03C305.29 136.568 282.203 124.558 253.235 140.342V140.342Z"/>
<path d="M117.205 265.816C125.962 256.043 129.462 244.66 128.197 234.213C126.722 222.041 118.779 211.137 105.141 205.52C86.8249 226.89 89.6545 251.681 117.205 265.816Z"/>
<path d="M330.142 243.189C299.397 230.199 269.693 245.912 268.117 280.378C297.614 292.038 323.824 279.09 330.142 243.189Z"/>
<path d="M305.885 380.276C301.412 353.724 270.042 335.021 237.508 354.542C239.461 381.73 271.02 402.312 305.885 380.276Z"/>
<path d="M192.348 288.007C174.581 276.625 154.988 282.752 151.064 303.452C168.179 313.888 185.388 309.037 192.348 288.007V288.007Z"/>
<path d="M127.343 359.689C138.631 361.915 148.593 359.287 155.608 353.385C163.781 346.506 167.955 335.183 165.566 321.912C141.277 317.691 124.55 331.563 127.343 359.689Z"/>
<path d="M372.252 277.924C370.806 286.04 372.811 293.158 377.116 298.127C382.131 303.916 390.271 306.794 399.719 304.945C401.023 297.12 399.255 290.269 394.757 285.416C390.079 280.374 382.451 277.491 372.252 277.924V277.924Z"/>
<path d="M378.605 277.657C386.666 278.517 393.498 276.052 398.054 271.472C403.362 266.136 405.588 257.928 403.084 248.759C385.773 247.309 374.893 258.086 378.605 277.657V277.657Z"/>
<path d="M323.933 336.005C333.561 340.964 343.366 341.383 351.42 338.191C360.806 334.468 367.819 325.841 369.423 313.769C348.544 303.592 329.393 311.031 323.933 336.005Z"/>
<path d="M400.228 368.968C380.281 370.685 368.92 387.338 377.735 406.064C396.648 403.993 406.928 389.785 400.228 368.968Z"/>
<path d="M359.803 165.97C364.504 170.813 370.211 172.949 375.604 172.568C381.889 172.122 387.748 168.259 391.098 161.278C380.791 151.124 367.999 151.939 359.803 165.97V165.97Z"/>
<path d="M170.7 126.349C167.408 120.708 163.259 120.702 159.217 124.451C162.265 129.565 166.656 129.734 170.7 126.349Z"/>
<path d="M157.731 127.93C153.167 126.691 150.307 129.183 150.124 133.17C154.293 134.261 157.362 131.731 157.731 127.93Z"/>
<path d="M304.802 100.894C300.862 108.586 300.921 116.256 304.08 122.43C307.761 129.622 315.652 134.789 326.335 135.608C334.372 118.946 326.996 104.261 304.802 100.894V100.894Z"/>
<path d="M174.36 164.335C175.087 172.983 179.023 179.762 184.697 183.779C191.31 188.46 200.287 189.397 209.312 185.185C207.339 166.682 193.951 157.062 174.36 164.335V164.335Z"/>
<path d="M249.536 144.821C259.057 126.93 249.015 109.533 228.715 108.058C219.996 125.16 228.203 139.499 249.536 144.821Z"/>
<path d="M278.77 93.4398C275.651 99.5298 275.698 105.602 278.199 110.487C281.114 116.183 287.36 120.272 295.817 120.92C302.178 107.731 296.34 96.1064 278.77 93.4398Z"/>
<path d="M175.024 277.477C175.851 269.641 173.534 262.681 169.214 257.742C164.18 251.988 156.426 248.975 147.758 250.512C146.357 267.378 156.525 279.154 175.024 277.477V277.477Z"/>
<path d="M137.441 315.783C143.874 311.221 147.329 305.138 147.808 299.04C148.363 291.933 144.873 284.8 137.328 280.028C124.983 288.497 122.528 304.549 137.441 315.783Z"/>
<path d="M246.367 410.734C254.571 389.401 236.901 368.475 214.243 371.745C210.582 392.6 222.07 410.626 246.367 410.734Z"/>
<path d="M338.018 283.466C345.531 287.407 353.297 287.931 359.767 285.698C367.304 283.095 373.083 276.745 374.656 267.686C358.349 259.577 342.972 264.772 338.018 283.466Z"/>
<path d="M390.779 364.87C396.927 361.766 400.703 356.837 401.906 351.437C403.306 345.142 401.215 338.206 395.315 332.76C382.29 339.708 379.347 352.492 390.779 364.87Z"/>
<path d="M333.114 400.715C338.577 405.185 344.838 406.76 350.514 405.78C357.13 404.638 362.955 400.025 365.81 392.478C353.879 383.154 340.404 385.386 333.114 400.715Z"/>
<path d="M327.667 175.714C324.824 182.382 324.951 188.907 327.364 194.064C330.177 200.074 336.098 204.233 344.046 204.606C349.838 190.18 344.199 177.907 327.667 175.714V175.714Z"/>
<path d="M370.109 344.151C377.878 343.652 383.889 340.11 387.378 334.882C391.44 328.788 392.077 320.405 388.076 311.866C371.465 313.323 363.111 325.654 370.109 344.151V344.151Z"/>
<path d="M255.299 110.346C266.143 111.343 273.353 102.588 270.606 92.0482C260.306 91.288 254.351 98.4676 255.299 110.346Z"/>
<path d="M209.506 362.661C218.176 363.781 225.602 361.365 230.633 356.661C236.491 351.178 239.1 342.59 236.636 332.863C218.01 330.877 206.005 341.944 209.506 362.661V362.661Z"/>
<path d="M356.895 378.803C359.927 371.631 359.452 364.67 356.339 359.212C352.71 352.851 345.497 348.527 336.072 348.281C329.937 363.787 337.224 376.778 356.895 378.803V378.803Z"/>
<path d="M315.069 171.053C322.127 174.754 329.425 175.247 335.502 173.149C342.583 170.704 348.013 164.738 349.492 156.226C334.171 148.608 319.724 153.488 315.069 171.053V171.053Z"/>
<path d="M231.184 106.496C242.848 109.813 252.147 102.953 250.878 92.2134C239.769 89.2424 232.097 94.8583 231.184 106.496Z"/>
<path d="M253.699 119.87C261.386 132.412 275.633 133.332 283.662 122.051C276.18 110.285 264.462 109.485 253.699 119.87V119.87Z"/>
<path d="M349.402 241.049C349.476 248.147 352.315 253.882 356.762 257.452C361.945 261.612 369.312 262.835 377.034 259.856C376.535 244.648 366.052 236.11 349.402 241.049Z"/>
<path d="M168.542 360.112C176.326 359.938 182.524 356.747 186.298 351.827C190.693 346.091 191.799 338.002 188.286 329.581C171.626 330.335 162.597 341.937 168.542 360.112Z"/>
<path d="M196.278 159.065C207.041 158.41 212.625 149.355 208.18 140.11C197.99 140.903 193.369 148.336 196.278 159.065Z"/>
<path d="M155.729 384.975C172.819 390.016 185.475 379.293 183.895 366.128C171.392 362.144 156.126 368.203 155.729 384.975Z"/>
<path d="M203.693 330.423C204.353 324.14 202.503 318.661 199.055 314.861C195.036 310.435 188.846 308.286 181.926 309.799C180.808 323.31 188.924 332.374 203.693 330.423V330.423Z"/>
<path d="M189.128 271.377C191.543 266.127 191.636 260.889 189.906 256.667C187.889 251.747 183.392 248.205 177.202 247.629C172.259 258.999 176.296 269.042 189.128 271.377Z"/>
<path d="M190.163 213.594C199.422 203.89 197.01 190.775 185.304 185.959C176.677 195.31 178.623 206.105 190.163 213.594V213.594Z"/>
<path d="M220.785 151.911C229.713 143.02 227.934 130.865 217.245 126.298C208.917 134.869 210.346 144.875 220.785 151.911Z"/>
<path d="M183.882 160.357C184.788 151.729 180.237 148.497 172.795 149.39C172.043 157.263 176.73 160.858 183.882 160.357Z"/>
<path d="M193.37 156.229C194.694 150.756 192.186 144.904 185.889 144.791C184.099 150.583 187.262 155.961 193.37 156.229Z"/>
<path d="M254.668 164.91C254.123 150.654 242.342 142.264 230.009 147.065C230.754 160.584 240.422 167.52 254.668 164.91Z"/>
<path d="M214.493 177.033C221.496 171.337 220.515 165.612 214.37 160.806C208.035 166.059 208.852 172.151 214.493 177.033Z"/>
<path d="M232.448 169.633C233.461 159.103 227.879 155.211 218.813 156.379C217.981 165.985 223.732 170.319 232.448 169.633Z"/>
<path d="M356.108 172.974C351.385 176.663 348.706 181.754 348.13 186.95C347.461 193.007 349.649 199.213 354.794 203.535C364.771 195.366 366.209 183.051 356.108 172.974Z"/>
<path d="M315.293 189.06C313.29 193.528 313.15 197.861 314.488 201.258C316.048 205.216 319.613 207.902 324.573 208.049C328.68 198.387 325.563 190.304 315.293 189.06V189.06Z"/>
<path d="M252.819 404.269C257.485 408.99 263.154 411.076 268.514 410.709C274.757 410.278 280.583 406.518 283.916 399.718C273.682 389.818 260.972 390.604 252.819 404.269V404.269Z"/>
<path d="M159.301 245.753C159.664 231.143 146.512 223.659 131.792 229.8C131.712 243.634 142.501 249.827 159.301 245.753Z"/>
<path d="M154.437 208.449C141.453 205.747 129.546 213.865 129.26 225.378C141.658 227.747 151.476 221.096 154.437 208.449Z"/>
<path d="M360.695 126.462C356.292 127.688 353.174 130.439 351.659 133.851C349.894 137.827 350.303 142.699 353.381 147.096C362.761 144.253 366.409 136.192 360.695 126.462Z"/>
<path d="M333.399 117.113C333.075 121.303 334.544 124.923 337.124 127.405C340.131 130.295 344.649 131.639 349.605 130.534C350.084 121.528 344.007 115.608 333.399 117.113V117.113Z"/>
<path d="M322.046 277.671C328.05 278.622 333.371 277.191 337.137 274.184C341.526 270.679 343.805 265.03 342.597 258.502C329.677 256.736 320.696 263.809 322.046 277.671Z"/>
<path d="M334.159 238.808C332.384 242.594 332.382 246.267 333.763 249.147C335.373 252.498 338.858 254.776 343.597 254.899C347.224 246.713 344 239.863 334.159 238.808V238.808Z"/>
<path d="M376.984 250.273C383.067 251.112 389.172 246.978 388.651 238.89C382.172 237.504 376.651 242.403 376.984 250.273Z"/>
<path d="M108.65 330.227C123.946 327.406 130.206 312.06 122.058 298.062C107.607 301.008 102.417 313.611 108.65 330.227V330.227Z"/>
<path d="M177.394 188.229C162.531 187.145 153.106 200.363 157.371 215.861C171.479 216.615 179.267 205.774 177.394 188.229Z"/>
<path d="M114.002 207.037C103.577 204.334 100.643 194.172 106.591 185.931C115.655 188.592 118.705 197.756 114.002 207.037Z"/>
<path d="M303.615 183.352C311.367 185.051 314.916 181.318 315.084 174.577C308.003 173.095 304.104 176.911 303.615 183.352Z"/>
<path d="M363.493 180.783C364.315 185.195 366.81 188.34 370.125 189.894C373.99 191.705 378.969 191.359 383.721 188.34C381.732 178.942 373.902 175.201 363.493 180.783Z"/>
<path d="M370.177 137.975C366.78 146.021 370.496 150.434 378.346 151.704C381.369 144.341 377.618 139.54 370.177 137.975Z"/>
<path d="M352.559 292.024C339.551 286.358 327.051 292.834 326.472 307.398C338.952 312.496 349.982 307.168 352.559 292.024Z"/>
<path d="M328.361 289.716C318.648 283.151 306.829 285.678 303.307 296.37C312.696 302.417 323.045 300.474 328.361 289.716V289.716Z"/>
<path d="M327.687 279.465C325.37 285.53 328.66 290.605 335.224 290.592C337.024 284.143 334.346 279.332 327.687 279.465Z"/>
<path d="M163.815 236.43C174.542 233.903 178.112 221.349 172.623 213.401C162.587 214.64 157.763 226.058 163.815 236.43Z"/>
<path d="M141.581 248.087C126.162 248.688 118.327 263.927 124.873 279.983C139.47 279.118 145.956 266.612 141.581 248.087Z"/>
<path d="M278.503 243.015C271.503 238.693 263.71 240.618 262.07 247.978C268.813 251.951 275.658 250.45 278.503 243.015Z"/>
<path d="M193.618 282.397C193.324 275.109 188.323 272.768 182.864 274.287C182.664 280.056 187.475 283.335 193.618 282.397Z"/>
<path d="M202.869 311.06C202.512 302.209 196.438 299.366 189.806 301.211C189.567 308.217 195.409 312.201 202.869 311.06Z"/>
<path d="M218.626 335.101C221.197 326.675 217.035 321.156 209.784 320.85C207.304 326.047 208.186 333.552 218.626 335.101Z"/>
<path d="M159.734 279.303C150.949 275.427 145.957 279.762 145.343 286.848C152.107 290.408 158.132 286.831 159.734 279.303Z"/>
<path d="M368.003 149.139C361.003 144.817 353.208 146.742 351.568 154.103C358.313 158.075 365.157 156.575 368.003 149.139Z"/>
<path d="M319.431 137.865C319.316 141.763 320.822 144.935 323.3 146.931C326.188 149.255 330.395 149.984 334.898 148.408C334.944 140.055 329.106 135.284 319.431 137.865Z"/>
<path d="M344.371 133.153C340.73 135.196 338.667 138.194 338.232 141.358C337.723 145.044 339.418 148.958 343.395 151.856C351.085 147.313 352.18 139.821 344.371 133.153V133.153Z"/>
<path d="M291.978 121.975C290.18 126.493 290.394 130.768 292.136 134.031C294.164 137.833 298.263 140.264 303.664 140.109C307.31 130.353 303.24 122.583 291.978 121.975Z"/>
<path d="M315.611 135.652C309.247 134.351 304.528 139.377 306.088 146.875C312.793 146.598 317.024 142.331 315.611 135.652V135.652Z"/>
<path d="M344.559 174.839C350.584 175.869 353.183 172.87 353.071 167.676C347.569 166.788 344.704 169.865 344.559 174.839Z"/>
<path d="M383.737 176.063C390.659 179.247 394.43 176.597 395.483 170.492C389.15 167.645 385.046 170.299 383.737 176.063Z"/>
<path d="M400.923 184.309C394.378 190.52 388.729 189.018 384.601 182.622C390.621 177.013 396.659 178.388 400.923 184.309Z"/>
<path d="M191.475 218.066C183.805 216.426 176.238 220.032 177.1 228.631C185.281 230.896 192.094 226.412 191.475 218.066Z"/>
<path d="M188.813 242.992C181.003 247.918 171.177 247.006 168.636 237.153C176.756 231.328 186.108 233.515 188.813 242.992Z"/>
<path d="M93.0091 284.89C104.364 284.856 111.331 273.2 108.035 264.031C97.7184 262.945 89.8136 273.181 93.0091 284.89Z"/>
<path d="M94.2319 252.07C89.6091 257.054 91.1644 261.685 95.5494 264.055C99.4768 260.377 98.6584 255.244 94.2319 252.07Z"/>
<path d="M97.2675 300.48C104.359 302.23 110.733 301.045 115.33 297.808C120.684 294.034 123.622 287.468 122.453 279.497C109.047 275.973 96.2295 283.674 97.2675 300.48V300.48Z"/>
<path d="M138.386 325.872C139.811 318.351 132.731 314.987 127.142 316.721C127.358 322.215 130.296 326.105 138.386 325.872Z"/>
<path d="M159.119 309.25C148.578 306.791 141.639 311.991 140.987 321.087C151.474 322.511 158.853 317.387 159.119 309.25Z"/>
<path d="M131.918 328.772C126.156 324.014 120.269 325.099 117.072 330.522C123.118 334.624 129.255 333.723 131.918 328.772Z"/>
<path d="M124.747 346.507C124.94 339.115 122.144 334.911 113.309 335.021C113.231 341.393 115.036 346.48 124.747 346.507Z"/>
<path d="M173.541 330.481C182.047 321.714 178.949 313.789 170.617 309.867C163.373 316.358 165.101 325.176 173.541 330.481Z"/>
<path d="M202.608 355.753C208.43 346.228 203.957 337.501 194.525 335.849C189.583 345.256 193.251 354.89 202.608 355.753Z"/>
<path d="M212.032 336.522C208.091 330.841 203.64 332.493 200.481 335.71C202.976 340.633 209.204 340.957 212.032 336.522Z"/>
<path d="M204.491 366.866C201.204 355.553 189.681 356.634 183.751 359.825C185.015 369.29 196.059 372.002 204.491 366.866V366.866Z"/>
<path d="M140.782 373.141C153.235 375.907 162.774 371.635 163.872 359.998C152.224 354.746 141.243 360.377 140.782 373.141V373.141Z"/>
<path d="M182.789 401.545C199.033 397.042 201.29 384.859 194.573 373.715C181.455 376.335 176.965 388.6 182.789 401.545Z"/>
<path d="M208.324 385.522C213.418 376.917 208.564 372.06 202.43 369.848C197.463 376.094 200.79 384.474 208.324 385.522Z"/>
<path d="M178.991 385.21C173.364 384.858 172.251 388.511 172.79 392.13C177.215 393.019 180.483 389.231 178.991 385.21Z"/>
<path d="M245.381 336.797C240.148 338.588 240.748 344.324 243.147 346.799C247.785 345.265 248.956 339.663 245.381 336.797Z"/>
<path d="M234.848 360.936C228.92 358.104 223.798 361.49 223.332 367.091C228.675 368.833 233.594 366.902 234.848 360.936Z"/>
<path d="M211.426 408.344C217.468 398.461 212.827 389.408 203.041 387.695C197.914 397.453 201.72 407.447 211.426 408.344Z"/>
<path d="M221.603 415.347C225.704 408.639 222.555 402.496 215.914 401.333C212.436 407.956 215.018 414.738 221.603 415.347Z"/>
<path d="M248.915 384.236C246.797 391.239 252.613 395.243 256.535 394.524C258.878 388.889 254.546 383.203 248.915 384.236Z"/>
<path d="M292.42 391.651C283.179 393.812 283.487 403.718 287.305 408.362C295.486 406.537 298.212 397.165 292.42 391.651Z"/>
<path d="M303.706 403.906C312.602 397.71 312.772 389.205 305.988 383.394C299.637 386.535 294.781 394.466 303.706 403.906Z"/>
<path d="M268.425 252.423C263.998 255.872 262.686 262.018 268.102 266.051C273.124 262.644 273.585 256.459 268.425 252.423Z"/>
<path d="M268.989 283.181C263.832 287.04 262.301 293.917 268.613 298.43C274.465 294.618 275.002 287.697 268.989 283.181Z"/>
<path d="M274.885 294.249C278.137 298.868 282.446 301.33 286.748 301.638C291.76 301.996 296.765 299.432 300.085 293.953C292.911 284.216 282.715 283.41 274.885 294.249Z"/>
<path d="M303.783 287.102C307.473 288.017 312.062 287.016 312.689 282.438C308.712 280.824 304.239 282.634 303.783 287.102Z"/>
<path d="M390.371 242.509C394.806 248.258 399.068 247.356 402.52 242.17C398.434 236.971 393.893 237.74 390.371 242.509Z"/>
<path d="M393.104 281.274C397.191 283.209 401.697 281.79 401.998 276.207C397.685 273.812 393.514 275.879 393.104 281.274Z"/>
<path d="M367.353 284.667C370.176 288.359 370.991 292.416 370.086 295.976C369.03 300.123 365.638 303.596 360.367 305.038C354.498 296.994 356.584 288.542 367.353 284.667Z"/>
<path d="M401.503 314.765C403.094 312.21 402.463 308.652 398.739 307.269C396.824 309.892 397.914 313.342 401.503 314.765Z"/>
<path d="M398.143 328.412C402.979 324.69 404.187 318.166 397.904 313.988C392.394 317.674 392.15 324.225 398.143 328.412Z"/>
<path d="M316.931 321.257C324.857 323.2 331.233 319.16 331.015 311.939C323.486 310.318 317.26 313.768 316.931 321.257Z"/>
<path d="M310.687 325.615C308.092 329.661 307.538 333.846 308.677 337.333C310.005 341.397 313.633 344.516 319.016 345.371C324.382 336.589 321.742 328.3 310.687 325.615V325.615Z"/>
<path d="M332.685 368.346C324.336 355.675 314.125 353.804 302.318 361.208C309.035 374.83 319.046 377.566 332.685 368.346Z"/>
<path d="M327.835 388.778C325.134 379.218 317.818 376.525 310.754 380.659C311.574 387.101 316.989 393.679 327.835 388.778Z"/>
<path d="M340.26 388.457C344.362 379.958 340.859 373.435 333.232 371.923C329.757 377.018 329.331 387.443 340.26 388.457Z"/>
<path d="M316.982 352.836C316.593 346.384 310.219 342.648 303.337 344.493C304.754 348.595 307.624 356.157 316.982 352.836Z"/>
<path d="M330.195 353.101C328.53 346.987 323.943 345.039 319.494 347.402C319.986 351.487 323.365 355.815 330.195 353.101Z"/>
<path d="M301.496 358.159C303.095 351.868 299.859 348.389 294.847 348.905C293.768 352.876 295.055 357.261 301.496 358.159Z"/>
<path d="M299.468 344.189C295.993 337.855 287.003 338.741 283.896 343.825C286.373 348.428 294.797 349.953 299.468 344.189Z"/>
<path d="M384.435 367.585C381.191 352.604 375.836 347.54 358.656 348.763C360.031 363.953 368.394 370.511 384.435 367.585Z"/>
<path d="M363.364 368.761C360.507 373.217 359.896 377.827 361.152 381.669C362.614 386.146 366.612 389.583 372.542 390.524C378.452 380.851 375.545 371.717 363.364 368.761Z"/>
<path d="M367.97 394.816C366.516 397.083 366.205 399.43 366.844 401.385C367.588 403.664 369.622 405.412 372.64 405.891C375.647 400.969 374.167 396.321 367.97 394.816Z"/>
<path d="M376.893 305.133C378.157 302.03 376.885 298.557 372.679 298.244C371.081 301.513 372.826 304.739 376.893 305.133Z"/>
<path d="M345.293 342.14C350.009 340.969 355.871 342.25 356.674 348.098C351.589 350.161 345.875 347.847 345.293 342.14Z"/>
<path d="M356.336 337.935C361.095 335.681 367.055 338.309 367.405 344.808C361.609 347.062 356.149 343.752 356.336 337.935Z"/>
</g>
</svg>