<?xml version="1.0" encoding="UTF-8"?>
<!DOCTYPE svg PUBLIC "-//W3C//DTD SVG 1.1//EN" "http://www.w3.org/Graphics/SVG/1.1/DTD/svg11.dtd">
<!-- Creator: CorelDRAW 2017 -->
<svg xmlns="http://www.w3.org/2000/svg" xml:space="preserve" width="42.5334mm" height="34.0667mm" version="1.1" style="shape-rendering:geometricPrecision; text-rendering:geometricPrecision; image-rendering:optimizeQuality; fill-rule:evenodd; clip-rule:evenodd"
viewBox="0 0 2122.86 1700.28"
 xmlns:xlink="http://www.w3.org/1999/xlink">
 <defs>
  <style type="text/css">
   <![CDATA[
    .str0 {stroke:black;stroke-width:9.98;stroke-miterlimit:22.9256}
    .fil0 {fill:black}
    .fil1 {fill:white}
   ]]>
  </style>
 </defs>
 <g id="Слой_x0020_1">
  <metadata id="CorelCorpID_0Corel-Layer"/>
  <g id="_2534706284880">
   <rect class="fil0 str0" x="4.99" y="4.99" width="2112.88" height="1690.3"/>
   <g>
    <path class="fil1" d="M571.25 684.83c73.46,-7.96 129.5,-43.14 161.21,-92.74 36.93,-57.8 40.85,-135.19 0.8,-211.98 -156.95,20.61 -232.95,137.65 -162.01,304.72z"/>
    <path class="fil1" d="M878.81 371.26c72.88,-9.39 107.49,-77.66 73.88,-143.02 -68.95,10.15 -97.6,66.2 -73.88,143.02z"/>
    <path class="fil1" d="M814.71 418.3c51.71,-42.35 44.78,-111.91 -13.43,-146.4 -48.29,41.05 -42.8,98.27 13.43,146.4z"/>
    <path class="fil1" d="M831.56 281.67c28.48,2.75 39.14,-11.98 36.17,-35.97 -25.99,-2.26 -37.84,12.92 -36.17,35.97z"/>
    <path class="fil1" d="M1082.82 407.71c12.08,52.25 42.13,90.22 80.38,109.77 44.57,22.78 100.29,20.58 151.75,-13.15 -28.39,-111.39 -118.76,-158.4 -232.12,-96.62z"/>
    <path class="fil1" d="M550.45 898.78c34.27,-38.25 47.97,-82.8 43.02,-123.68 -5.77,-47.63 -36.86,-90.31 -90.23,-112.29 -71.69,83.63 -60.62,180.66 47.21,235.98z"/>
    <path class="fil1" d="M1383.82 810.22c-120.32,-50.84 -236.59,10.66 -242.75,145.54 115.44,45.64 218.02,-5.04 242.75,-145.54z"/>
    <path class="fil1" d="M1288.89 1346.74c-17.51,-103.92 -140.28,-177.11 -267.61,-100.71 7.65,106.4 131.15,186.96 267.61,100.71z"/>
    <path class="fil1" d="M844.54 985.63c-69.54,-44.55 -146.22,-20.57 -161.58,60.45 66.98,40.84 134.34,21.85 161.58,-60.45z"/>
    <path class="fil1" d="M590.12 1266.17c44.18,8.71 83.17,-1.58 110.62,-24.67 31.99,-26.92 48.32,-71.24 38.97,-123.18 -95.05,-16.52 -160.52,37.77 -149.59,147.85z"/>
    <path class="fil1" d="M1548.63 946.16c-5.66,31.76 2.19,59.62 19.03,79.07 19.63,22.65 51.49,33.92 88.47,26.69 5.1,-30.63 -1.82,-57.45 -19.42,-76.43 -18.31,-19.73 -48.16,-31.01 -88.08,-29.33z"/>
    <path class="fil1" d="M1573.48 945.12c31.56,3.36 58.29,-6.28 76.12,-24.21 20.78,-20.88 29.49,-53.01 19.69,-88.89 -67.75,-5.68 -110.33,36.5 -95.81,113.1z"/>
    <path class="fil1" d="M1359.52 1173.48c37.69,19.41 76.06,21.05 107.58,8.55 36.73,-14.57 64.18,-48.33 70.45,-95.58 -81.72,-39.83 -156.67,-10.71 -178.04,87.03z"/>
    <path class="fil1" d="M1658.12 1302.49c-78.07,6.72 -122.54,71.89 -88.04,145.18 74.02,-8.11 114.26,-63.71 88.04,-145.18z"/>
    <path class="fil1" d="M1499.9 508.01c18.4,18.95 40.73,27.31 61.84,25.82 24.6,-1.75 47.53,-16.86 60.64,-44.19 -40.34,-39.74 -90.4,-36.55 -122.48,18.37z"/>
    <path class="fil1" d="M759.81 352.95c-12.88,-22.08 -29.12,-22.1 -44.94,-7.43 11.93,20.01 29.12,20.67 44.94,7.43z"/>
    <path class="fil1" d="M709.04 359.13c-17.86,-4.85 -29.05,4.9 -29.77,20.51 16.32,4.27 28.32,-5.63 29.77,-20.51z"/>
    <path class="fil1" d="M1284.64 253.32c-15.41,30.11 -15.18,60.13 -2.82,84.28 14.41,28.15 45.29,48.37 87.1,51.58 31.45,-65.21 2.58,-122.68 -84.28,-135.87z"/>
    <path class="fil1" d="M774.13 501.61c2.84,33.85 18.25,60.38 40.46,76.1 25.88,18.32 61.01,21.99 96.33,5.5 -7.72,-72.41 -60.11,-110.06 -136.78,-81.6z"/>
    <path class="fil1" d="M1068.35 425.24c37.27,-70.01 -2.04,-138.1 -81.48,-143.88 -34.12,66.93 -2.01,123.05 81.48,143.88z"/>
    <path class="fil1" d="M1182.76 224.14c-12.2,23.84 -12.02,47.6 -2.23,66.73 11.4,22.29 35.85,38.29 68.95,40.83 24.9,-51.62 2.04,-97.12 -66.72,-107.56z"/>
    <path class="fil1" d="M776.74 944.42c3.23,-30.67 -5.83,-57.91 -22.74,-77.24 -19.7,-22.52 -50.05,-34.31 -83.97,-28.3 -5.49,66.01 34.31,112.1 106.71,105.54z"/>
    <path class="fil1" d="M629.64 1094.34c25.17,-17.85 38.71,-41.66 40.58,-65.53 2.18,-27.81 -11.48,-55.72 -41.02,-74.4 -48.31,33.14 -57.93,95.97 0.44,139.93z"/>
    <path class="fil1" d="M1055.94 1465.94c32.11,-83.49 -37.04,-165.39 -125.72,-152.59 -14.33,81.62 30.64,152.17 125.72,152.59z"/>
    <path class="fil1" d="M1414.64 967.86c29.41,15.42 59.8,17.47 85.12,8.73 29.5,-10.19 52.12,-35.03 58.27,-70.49 -63.82,-31.74 -124,-11.41 -143.39,61.75z"/>
    <path class="fil1" d="M1621.13 1286.44c24.07,-12.14 38.85,-31.43 43.55,-52.57 5.49,-24.63 -2.7,-51.78 -25.8,-73.09 -50.97,27.19 -62.49,77.22 -17.75,125.66z"/>
    <path class="fil1" d="M1395.45 1426.74c21.38,17.49 45.88,23.66 68.1,19.82 25.89,-4.47 48.69,-22.52 59.86,-52.07 -46.7,-36.49 -99.44,-27.75 -127.96,32.24z"/>
    <path class="fil1" d="M1374.13 546.15c-11.13,26.09 -10.64,51.63 -1.19,71.82 11.01,23.52 34.18,39.79 65.29,41.26 22.66,-56.46 0.59,-104.49 -64.11,-113.07z"/>
    <path class="fil1" d="M1540.24 1205.36c30.41,-1.95 53.94,-15.81 67.58,-36.27 15.9,-23.85 18.39,-56.66 2.74,-90.08 -65.01,5.7 -97.71,53.97 -70.32,126.35z"/>
    <path class="fil1" d="M1090.91 290.31c42.44,3.9 70.66,-30.36 59.91,-71.61 -40.31,-2.98 -63.62,25.12 -59.91,71.61z"/>
    <path class="fil1" d="M911.68 1277.8c33.93,4.39 63,-5.07 82.68,-23.48 22.93,-21.46 33.14,-55.07 23.5,-93.13 -72.9,-7.78 -119.88,35.54 -106.18,116.62z"/>
    <path class="fil1" d="M1488.52 1340.97c11.87,-28.06 10.01,-55.31 -2.18,-76.67 -14.2,-24.9 -42.43,-41.82 -79.32,-42.78 -24.01,60.69 4.51,111.53 81.49,119.46z"/>
    <path class="fil1" d="M1324.83 527.9c27.63,14.49 56.18,16.42 79.97,8.21 27.72,-9.57 48.96,-32.92 54.75,-66.23 -59.96,-29.82 -116.5,-10.72 -134.72,58.02z"/>
    <path class="fil1" d="M996.52 275.25c45.65,12.98 82.04,-13.87 77.08,-55.9 -43.48,-11.62 -73.51,10.36 -77.08,55.9z"/>
    <path class="fil1" d="M1084.64 327.59c30.09,49.09 85.85,52.69 117.27,8.53 -29.29,-46.05 -75.15,-49.18 -117.27,-8.53z"/>
    <path class="fil1" d="M1459.2 801.84c0.28,27.79 11.39,50.23 28.8,64.2 20.28,16.28 49.12,21.06 79.34,9.4 -1.95,-59.52 -42.98,-92.93 -108.14,-73.61z"/>
    <path class="fil1" d="M751.36 1267.83c30.46,-0.68 54.72,-13.17 69.49,-32.43 17.2,-22.44 21.54,-54.1 7.79,-87.06 -65.21,2.94 -100.54,48.36 -77.27,119.49z"/>
    <path class="fil1" d="M859.91 480.99c42.12,-2.57 63.98,-38 46.58,-74.19 -39.88,3.11 -57.97,32.19 -46.58,74.19z"/>
    <path class="fil1" d="M701.21 1365.14c66.89,19.72 116.42,-22.25 110.24,-73.76 -48.93,-15.59 -108.68,8.12 -110.24,73.76z"/>
    <path class="fil1" d="M888.93 1151.62c2.59,-24.59 -4.66,-46.03 -18.16,-60.9 -15.73,-17.33 -39.95,-25.73 -67.03,-19.81 -4.38,52.88 27.39,88.35 85.19,80.72z"/>
    <path class="fil1" d="M831.93 920.55c9.45,-20.54 9.82,-41.05 3.05,-57.57 -7.9,-19.26 -25.49,-33.12 -49.72,-35.38 -19.35,44.5 -3.54,83.8 46.67,92.95z"/>
    <path class="fil1" d="M835.98 694.39c36.24,-37.98 26.8,-89.3 -19.02,-108.16 -33.76,36.59 -26.14,78.84 19.02,108.16z"/>
    <path class="fil1" d="M955.83 452.99c34.94,-34.8 27.98,-82.37 -13.86,-100.24 -32.59,33.54 -27,72.7 13.86,100.24z"/>
    <path class="fil1" d="M811.4 486.05c3.54,-33.77 -14.26,-46.42 -43.4,-42.92 -2.94,30.81 15.4,44.88 43.4,42.92z"/>
    <path class="fil1" d="M848.53 469.89c5.19,-21.42 -4.63,-44.33 -29.27,-44.77 -7.01,22.67 5.37,43.72 29.27,44.77z"/>
    <path class="fil1" d="M1088.44 503.87c-2.14,-55.79 -48.24,-88.64 -96.51,-69.84 2.91,52.91 40.75,80.06 96.51,69.84z"/>
    <path class="fil1" d="M931.2 551.32c27.41,-22.3 23.57,-44.7 -0.48,-63.52 -24.79,20.56 -21.6,44.41 0.48,63.52z"/>
    <path class="fil1" d="M1001.47 522.34c3.97,-41.21 -17.88,-56.44 -53.36,-51.87 -3.26,37.59 19.25,54.55 53.36,51.87z"/>
    <path class="fil1" d="M1485.44 535.42c-18.48,14.44 -28.97,34.36 -31.22,54.7 -2.62,23.7 5.94,47.99 26.08,64.9 39.05,-31.97 44.67,-80.17 5.14,-119.61z"/>
    <path class="fil1" d="M1325.7 598.38c-7.84,17.48 -8.38,34.45 -3.15,47.74 6.1,15.49 20.05,26 39.47,26.57 16.08,-37.81 3.87,-69.44 -36.32,-74.31z"/>
    <path class="fil1" d="M1081.2 1440.64c18.27,18.48 40.46,26.64 61.43,25.2 24.44,-1.68 47.24,-16.4 60.28,-43.01 -40.05,-38.75 -89.8,-35.68 -121.71,17.81z"/>
    <path class="fil1" d="M715.19 820.26c1.42,-57.19 -50.05,-86.47 -107.66,-62.44 -0.31,54.14 41.91,78.38 107.66,62.44z"/>
    <path class="fil1" d="M696.16 674.26c-50.81,-10.58 -97.42,21.2 -98.53,66.25 48.52,9.28 86.94,-16.75 98.53,-66.25z"/>
    <path class="fil1" d="M1503.4 353.39c-17.23,4.79 -29.43,15.57 -35.36,28.92 -6.91,15.56 -5.31,34.62 6.73,51.84 36.71,-11.13 50.99,-42.68 28.63,-80.76z"/>
    <path class="fil1" d="M1396.56 316.8c-1.27,16.41 4.48,30.58 14.58,40.28 11.77,11.31 29.45,16.57 48.85,12.25 1.87,-35.25 -21.91,-58.42 -63.43,-52.53z"/>
    <path class="fil1" d="M1352.13 945.17c23.5,3.72 44.33,-1.87 59.06,-13.65 17.17,-13.72 26.09,-35.83 21.37,-61.37 -50.57,-6.91 -85.72,20.77 -80.43,75.02z"/>
    <path class="fil1" d="M1399.54 793.08c-6.95,14.82 -6.95,29.19 -1.55,40.46 6.3,13.12 19.94,22.04 38.49,22.51 14.19,-32.04 1.58,-58.84 -36.94,-62.97z"/>
    <path class="fil1" d="M1567.14 837.95c23.81,3.28 47.7,-12.9 45.67,-44.55 -25.36,-5.43 -46.97,13.75 -45.67,44.55z"/>
    <path class="fil1" d="M516.96 1150.87c59.86,-11.04 84.36,-71.1 52.48,-125.88 -56.55,11.53 -76.87,60.85 -52.48,125.88z"/>
    <path class="fil1" d="M786 595.13c-58.17,-4.25 -95.06,47.48 -78.36,108.15 55.22,2.95 85.69,-39.48 78.36,-108.15z"/>
    <path class="fil1" d="M537.91 668.73c-40.8,-10.58 -52.28,-50.34 -29,-82.6 35.47,10.42 47.4,46.29 29,82.6z"/>
    <path class="fil1" d="M1280 576.04c30.34,6.65 44.23,-7.96 44.88,-34.34 -27.72,-5.8 -42.97,9.13 -44.88,34.34z"/>
    <path class="fil1" d="M1514.34 565.98c3.22,17.26 12.99,29.58 25.96,35.66 15.12,7.09 34.61,5.73 53.21,-6.08 -7.79,-36.78 -38.43,-51.42 -79.17,-29.58z"/>
    <path class="fil1" d="M1540.5 398.45c-13.3,31.49 1.25,48.76 31.97,53.72 11.83,-28.81 -2.85,-47.6 -31.97,-53.72z"/>
    <path class="fil1" d="M1471.55 1001.34c-50.91,-22.18 -99.83,3.16 -102.1,60.17 48.84,19.95 92.01,-0.89 102.1,-60.17z"/>
    <path class="fil1" d="M1376.85 992.31c-38.02,-25.69 -84.27,-15.8 -98.05,26.04 36.74,23.67 77.25,16.06 98.05,-26.04z"/>
    <path class="fil1" d="M1374.21 952.2c-9.07,23.74 3.81,43.6 29.5,43.55 7.04,-25.24 -3.44,-44.07 -29.5,-43.55z"/>
    <path class="fil1" d="M732.86 783.77c41.98,-9.89 55.96,-59.02 34.48,-90.13 -39.28,4.85 -58.17,49.54 -34.48,90.13z"/>
    <path class="fil1" d="M645.85 829.4c-60.35,2.35 -91.01,61.99 -65.39,124.83 57.13,-3.38 82.51,-52.33 65.39,-124.83z"/>
    <path class="fil1" d="M1181.72 809.54c-27.4,-16.91 -57.9,-9.38 -64.32,19.43 26.4,15.55 53.18,9.68 64.32,-19.43z"/>
    <path class="fil1" d="M849.5 963.67c-1.15,-28.52 -20.72,-37.68 -42.09,-31.73 -0.77,22.57 18.05,35.41 42.09,31.73z"/>
    <path class="fil1" d="M885.71 1075.85c-1.4,-34.64 -25.17,-45.76 -51.12,-38.55 -0.94,27.42 21.93,43.01 51.12,38.55z"/>
    <path class="fil1" d="M947.38 1169.94c10.06,-32.98 -6.23,-54.57 -34.61,-55.77 -9.71,20.34 -6.26,49.71 34.61,55.77z"/>
    <path class="fil1" d="M716.89 951.56c-34.38,-15.17 -53.92,1.8 -56.31,29.53 26.47,13.93 50.05,-0.06 56.31,-29.53z"/>
    <path class="fil1" d="M1531.99 442.13c-27.39,-16.91 -57.9,-9.38 -64.32,19.43 26.4,15.55 53.18,9.68 64.32,-19.43z"/>
    <path class="fil1" d="M1341.89 398.02c-0.45,15.26 5.45,27.67 15.14,35.48 11.3,9.1 27.77,11.95 45.39,5.78 0.18,-32.7 -22.67,-51.37 -60.54,-41.27z"/>
    <path class="fil1" d="M1439.5 379.57c-14.25,8 -22.32,19.72 -24.03,32.11 -1.99,14.43 4.65,29.75 20.21,41.09 30.1,-17.78 34.38,-47.1 3.82,-73.19z"/>
    <path class="fil1" d="M1234.46 335.82c-7.04,17.68 -6.2,34.41 0.61,47.19 7.94,14.88 23.98,24.39 45.12,23.79 14.26,-38.19 -1.66,-68.59 -45.74,-70.97z"/>
    <path class="fil1" d="M1326.94 389.36c-24.91,-5.1 -43.38,14.57 -37.27,43.92 26.24,-1.09 42.8,-17.78 37.27,-43.92z"/>
    <path class="fil1" d="M1440.24 542.71c23.58,4.03 33.75,-7.71 33.32,-28.03 -21.54,-3.47 -32.75,8.56 -33.32,28.03z"/>
    <path class="fil1" d="M1593.58 547.51c27.09,12.46 41.84,2.09 45.97,-21.8 -24.79,-11.14 -40.85,-0.76 -45.97,21.8z"/>
    <path class="fil1" d="M1660.83 579.78c-25.61,24.31 -47.72,18.44 -63.88,-6.6 23.56,-21.95 47.2,-16.57 63.88,6.6z"/>
    <path class="fil1" d="M841.11 711.89c-30.02,-6.41 -59.63,7.7 -56.26,41.35 32.02,8.86 58.68,-8.68 56.26,-41.35z"/>
    <path class="fil1" d="M830.69 809.45c-30.57,19.28 -69.03,15.71 -78.96,-22.85 31.78,-22.8 68.38,-14.23 78.96,22.85z"/>
    <path class="fil1" d="M455.75 973.42c44.44,-0.13 71.71,-45.74 58.81,-81.63 -40.38,-4.25 -71.31,35.81 -58.81,81.63z"/>
    <path class="fil1" d="M460.53 844.98c-18.09,19.51 -12,37.63 5.16,46.91 15.37,-14.39 12.16,-34.48 -5.16,-46.91z"/>
    <path class="fil1" d="M472.41 1034.44c27.76,6.84 52.71,2.21 70.69,-10.46 20.95,-14.77 32.45,-40.47 27.87,-71.67 -52.47,-13.79 -102.63,16.35 -98.57,82.13z"/>
    <path class="fil1" d="M633.34 1133.82c5.58,-29.44 -22.13,-42.6 -44.01,-35.82 0.85,21.51 12.35,36.72 44.01,35.82z"/>
    <path class="fil1" d="M714.48 1068.76c-41.25,-9.62 -68.4,10.73 -70.96,46.33 41.04,5.57 69.92,-14.48 70.96,-46.33z"/>
    <path class="fil1" d="M608.03 1145.17c-22.55,-18.62 -45.59,-14.37 -58.11,6.85 23.67,16.05 47.68,12.52 58.11,-6.85z"/>
    <path class="fil1" d="M579.96 1214.58c0.75,-28.93 -10.19,-45.38 -44.76,-44.95 -0.3,24.94 6.76,44.85 44.76,44.95z"/>
    <path class="fil1" d="M770.93 1151.86c33.29,-34.31 21.17,-65.32 -11.44,-80.67 -28.35,25.4 -21.59,59.91 11.44,80.67z"/>
    <path class="fil1" d="M884.68 1250.77c22.79,-37.29 5.28,-71.44 -31.63,-77.9 -19.35,36.81 -4.99,74.52 31.63,77.9z"/>
    <path class="fil1" d="M921.57 1175.5c-15.43,-22.24 -32.85,-15.77 -45.21,-3.18 9.77,19.27 34.14,20.53 45.21,3.18z"/>
    <path class="fil1" d="M892.05 1294.26c-12.86,-44.28 -57.96,-40.05 -81.17,-27.57 4.95,37.05 48.17,47.66 81.17,27.57z"/>
    <path class="fil1" d="M642.72 1318.82c48.73,10.82 86.06,-5.9 90.36,-51.45 -45.59,-20.55 -88.56,1.49 -90.36,51.45z"/>
    <path class="fil1" d="M807.12 1429.98c63.58,-17.62 72.42,-65.31 46.12,-108.92 -51.34,10.26 -68.92,58.26 -46.12,108.92z"/>
    <path class="fil1" d="M907.05 1367.27c19.93,-33.67 0.94,-52.68 -23.06,-61.34 -19.44,24.45 -6.42,57.25 23.06,61.34z"/>
    <path class="fil1" d="M792.26 1366.05c-22.03,-1.38 -26.39,12.92 -24.28,27.08 17.32,3.48 30.12,-11.34 24.28,-27.08z"/>
    <path class="fil1" d="M1052.09 1176.58c-20.49,7.01 -18.14,29.45 -8.74,39.14 18.15,-6 22.73,-27.93 8.74,-39.14z"/>
    <path class="fil1" d="M1010.86 1271.05c-23.2,-11.09 -43.25,2.16 -45.07,24.09 20.91,6.82 40.16,-0.75 45.07,-24.09z"/>
    <path class="fil1" d="M919.2 1456.59c23.64,-38.68 5.48,-74.11 -32.82,-80.82 -20.07,38.19 -5.17,77.31 32.82,80.82z"/>
    <path class="fil1" d="M959.03 1484c16.04,-26.24 3.72,-50.28 -22.27,-54.84 -13.62,25.91 -3.5,52.46 22.27,54.84z"/>
    <path class="fil1" d="M1065.91 1362.24c-8.29,27.41 14.47,43.08 29.82,40.27 9.17,-22.06 -7.79,-44.31 -29.82,-40.27z"/>
    <path class="fil1" d="M1236.18 1391.25c-36.17,8.45 -34.97,47.23 -20.02,65.4 32.02,-7.14 42.69,-43.82 20.02,-65.4z"/>
    <path class="fil1" d="M1280.35 1439.22c34.82,-24.25 35.48,-57.54 8.94,-80.28 -24.86,12.29 -43.86,43.33 -8.94,80.28z"/>
    <path class="fil1" d="M1142.28 846.36c-17.32,13.5 -22.46,37.55 -1.27,53.33 19.66,-13.33 21.46,-37.54 1.27,-53.33z"/>
    <path class="fil1" d="M1144.48 966.74c-20.18,15.1 -26.17,42.02 -1.47,59.68 22.9,-14.92 25,-42 1.47,-59.68z"/>
    <path class="fil1" d="M1167.56 1010.05c12.73,18.08 29.59,27.71 46.43,28.92 19.61,1.4 39.2,-8.63 52.2,-30.08 -28.08,-38.11 -67.98,-41.27 -98.62,1.16z"/>
    <path class="fil1" d="M1280.66 982.08c14.44,3.58 32.4,-0.34 34.86,-18.25 -15.57,-6.32 -33.08,0.77 -34.86,18.25z"/>
    <path class="fil1" d="M1619.54 807.57c17.35,22.5 34.04,18.97 47.54,-1.33 -15.99,-20.34 -33.76,-17.34 -47.54,1.33z"/>
    <path class="fil1" d="M1630.23 959.27c16,7.58 33.63,2.02 34.81,-19.83 -16.88,-9.37 -33.2,-1.28 -34.81,19.83z"/>
    <path class="fil1" d="M1529.45 972.56c11.05,14.45 14.24,30.33 10.7,44.26 -4.13,16.23 -17.4,29.83 -38.04,35.47 -22.96,-31.48 -14.8,-64.56 27.35,-79.73z"/>
    <path class="fil1" d="M1663.1 1090.35c6.23,-10 3.76,-23.93 -10.82,-29.34 -7.5,10.27 -3.23,23.77 10.82,29.34z"/>
    <path class="fil1" d="M1649.96 1143.75c18.93,-14.56 23.65,-40.1 -0.94,-56.45 -21.57,14.42 -22.52,40.06 0.94,56.45z"/>
    <path class="fil1" d="M1332.11 1115.77c31.02,7.61 55.97,-8.21 55.12,-36.47 -29.46,-6.34 -53.83,7.17 -55.12,36.47z"/>
    <path class="fil1" d="M1307.67 1132.81c-10.15,15.84 -12.32,32.22 -7.86,45.86 5.2,15.91 19.4,28.11 40.46,31.46 21,-34.36 10.67,-66.82 -32.6,-77.32z"/>
    <path class="fil1" d="M1393.76 1300.05c-32.68,-49.59 -72.63,-56.91 -118.85,-27.93 26.29,53.31 65.47,64.02 118.85,27.93z"/>
    <path class="fil1" d="M1374.78 1380.02c-10.58,-37.42 -39.2,-47.95 -66.85,-31.78 3.2,25.21 24.4,50.96 66.85,31.78z"/>
    <path class="fil1" d="M1423.42 1378.76c16.06,-33.26 2.34,-58.79 -27.5,-64.71 -13.61,19.94 -15.27,60.75 27.5,64.71z"/>
    <path class="fil1" d="M1332.31 1239.35c-1.52,-25.25 -26.47,-39.87 -53.4,-32.66 5.55,16.06 16.78,45.65 53.4,32.66z"/>
    <path class="fil1" d="M1384.02 1240.39c-6.51,-23.93 -24.47,-31.55 -41.88,-22.3 1.93,15.99 15.16,32.93 41.88,22.3z"/>
    <path class="fil1" d="M1271.7 1260.18c6.26,-24.63 -6.4,-38.24 -26.02,-36.22 -4.22,15.54 0.81,32.7 26.02,36.22z"/>
    <path class="fil1" d="M1263.76 1205.5c-13.6,-24.79 -48.78,-21.32 -60.95,-1.42 9.7,18.01 42.67,23.98 60.95,1.42z"/>
    <path class="fil1" d="M1596.3 1297.07c-12.69,-58.63 -33.65,-78.45 -100.89,-73.66 5.39,59.45 38.12,85.12 100.89,73.66z"/>
    <path class="fil1" d="M1513.84 1301.67c-11.18,17.44 -13.57,35.49 -8.66,50.52 5.72,17.52 21.37,30.97 44.58,34.66 23.14,-37.86 11.75,-73.61 -35.92,-85.18z"/>
    <path class="fil1" d="M1531.87 1403.65c-5.69,8.88 -6.91,18.06 -4.41,25.71 2.91,8.91 10.88,15.76 22.68,17.63 11.77,-19.27 5.98,-37.46 -18.27,-43.35z"/>
    <path class="fil1" d="M1631.84 1450.21c18.78,4.45 36.31,-5.48 32.62,-29.03 -20.12,-6.16 -35.68,6.16 -32.62,29.03z"/>
    <path class="fil1" d="M1566.78 1052.66c4.95,-12.14 -0.03,-25.73 -16.49,-26.96 -6.25,12.8 0.57,25.41 16.49,26.96z"/>
    <path class="fil1" d="M1443.11 1197.49c18.46,-4.58 41.4,0.43 44.54,23.32 -19.89,8.08 -42.26,-0.98 -44.54,-23.32z"/>
    <path class="fil1" d="M1486.33 1181.04c18.63,-8.82 41.95,1.46 43.32,26.9 -22.68,8.82 -44.05,-4.13 -43.32,-26.9z"/>
   </g>
  </g>
 </g>
</svg>
