<?xml version="1.0" encoding="UTF-8"?>
<!DOCTYPE svg PUBLIC "-//W3C//DTD SVG 1.1//EN" "http://www.w3.org/Graphics/SVG/1.1/DTD/svg11.dtd">
<!-- Creator: CorelDRAW 2017 -->
<svg xmlns="http://www.w3.org/2000/svg" xml:space="preserve" width="84.8667mm" height="34.0667mm" version="1.1" style="shape-rendering:geometricPrecision; text-rendering:geometricPrecision; image-rendering:optimizeQuality; fill-rule:evenodd; clip-rule:evenodd"
viewBox="0 0 8486.66 3406.67"
 xmlns:xlink="http://www.w3.org/1999/xlink">
 <defs>
  <style type="text/css">
   <![CDATA[
    .str0 {stroke:black;stroke-width:20;stroke-miterlimit:22.9256}
    .fil0 {fill:black}
    .fil1 {fill:white}
    .fil2 {fill:white;fill-rule:nonzero}
   ]]>
  </style>
 </defs>
 <g id="Слой_x0020_1">
  <metadata id="CorelCorpID_0Corel-Layer"/>
  <g id="_2534512794256">
   <rect class="fil0 str0" x="10" y="9.99" width="8466.66" height="3386.66"/>
   <g>
    <path class="fil1" d="M7476.04 709.54c20.5,0.38 72.09,-1.25 90.16,0 277.3,19.24 430.83,197.92 432.59,385.75 2.53,269.37 -160.72,446.92 -522.54,452.18 -1.44,-128.1 -0.58,-672.94 -0.21,-837.93zm-2540.56 354.33l100.09 0.7c124.46,0.89 204.46,-53.83 204.95,-188.49 0.36,-102.17 -75.38,-176.71 -216.07,-178.91 -13.45,-0.21 -73.34,-0.02 -88.86,-0.09 0.25,120.87 -0.2,243.65 -0.11,366.79zm49.81 52.02l-49.77 -0.21c0.07,131.38 0.1,263.18 0.1,393.97 0,26.27 13.43,76.17 63.46,76.21 0,0 0.02,25.41 0.02,25.41l-215.81 0c0,-8.45 -0.02,-25.39 -0.02,-25.39 55.39,-8.35 50.73,-56.12 50.77,-113.35 0.17,-166.08 -0.25,-567.9 -0.25,-666.53 0,-0.85 0,-82.82 0,-83.59 0,-35.94 -12.92,-52.82 -50.6,-50.71 0,0 0.08,-22.95 -0.06,-25.45 65.62,0 177.48,0.13 254.07,0.01 172.19,-0.27 304.48,43.63 304.48,241.71 0,152.43 -153.02,201.89 -216.23,227.1 17.71,42.39 96.24,160.99 161.08,261.47 70.48,109.23 141,210.04 195,209.27 0,0 -0.11,25.33 -0.11,25.33 -93.47,0 -142.79,-25.36 -192.12,-70.18 -42.98,-39.04 -221.1,-301.15 -265.85,-397.56 -10.11,-21.79 -19.77,-28.1 -38.16,-27.51zm2389.44 -368.21l0.02 774.48c0,47.51 -25.76,62.88 -50.82,63.51 0,0 0.06,15.32 0,25.39 123.27,0 293.1,8.21 408.8,-17.56 263.08,-58.56 392.24,-249.69 379.69,-509.53 -15.93,-330.68 -285.39,-440.52 -588.63,-438.1 -35.28,0.29 -165.92,0.23 -199.93,0.23 -0.02,2.93 0.06,25.45 0.06,25.45 39.46,2.38 50.81,31.44 50.81,76.13zm-965.01 863.33l177.82 0.08c0.05,-6.18 0.03,-25.42 0.03,-25.42 -0.23,-0.02 -6.31,-0.04 -12.75,-0.03 -32.3,0 -49.18,-35.58 -50.57,-64 -0.49,-10 0.27,-28.83 0.01,-43.9 2.67,-217.91 0.52,-526.49 -0.75,-705.51 37.99,50.08 521.02,838.82 521.02,838.82 11.97,0.01 81.84,-0.03 101.58,0.06 0,-291.97 -5.9,-586.51 -2.85,-878.27 -1.66,-31.17 16.75,-57.01 53.4,-61.21 0,0 0.17,-21.35 0.08,-25.57l-177.54 0.08c0,0 -0.2,25.39 0.03,25.4 47.09,3 60.94,25.56 61.24,63.68l0.01 720.25c-56.24,-81.78 -518.39,-809.39 -518.39,-809.39 -19.96,0 -152.33,0.01 -152.33,0.01 -0.04,1.86 0.03,25.4 0.03,25.4 0,0 27.43,1.68 46.69,16.14 17.99,13.52 16.52,46.13 16.49,70.84 -0.29,157.29 -2.05,648.25 -0.62,756.52 0.31,23.29 -2.84,41.49 -22.71,58.14 -9.16,7.69 -21.81,12.75 -40.04,12.49 0,0 0.16,24.51 0.12,25.39zm-2482.12 -186.16c85.13,115.81 224.01,177.96 409.53,197.73 85.91,9.16 200.8,-8.38 280.67,-50.63 0,-44.63 0.46,-273.33 0.36,-363.78 -0.06,-49.48 -2.2,-80.74 50.75,-92.09 0,0 0.12,-19.56 -0.07,-26.11l-216.03 0.34c0.03,2.22 0.29,25.7 0.29,25.7 45.2,6.68 66.91,9.33 63.3,92.24 -0.67,73.42 -1.04,239.58 -1.04,313.02 -32.11,20.91 -73.74,34.06 -147.38,37.3 -238.25,10.47 -437.79,-200.43 -437.79,-432.67 8.62,-206.57 101.78,-442.42 396.87,-442.67 180.25,-0.16 233.17,84.13 238.41,115.63 0.26,1.57 1.9,23.46 1.95,25.21 0,0 25.4,0.03 25.4,0.03 -0.25,-50.79 0,-101.6 0,-152.39 -47.6,0 -88.55,-15.42 -135.69,-24.29 -46.2,-8.69 -60.54,-12.71 -118.14,-13.79 -438.15,-8.1 -650.68,465.76 -411.39,791.22zm1858.51 -296.07c33.63,-96.39 74.86,-200.69 101.79,-291.98 0,0 3.03,-9.37 3.03,-9.37 0,0 18.92,-0.08 18.92,-0.08 0,0 3.07,9.46 3.07,9.46 3.1,13.97 88.41,259.35 100.92,291.62l-227.73 0.35zm-266.46 482.48l165.06 0.02c-0.02,-3.18 -0.02,-25.41 -0.02,-25.41 -40.7,0.28 -45.82,-41.68 -34.91,-72.47l123.78 -333.83c19.31,1.03 -25.21,-0.12 253.74,-0.12 0,0 114.64,288.3 129.96,344.53 15.69,64.95 -40.93,61.91 -40.93,61.91 0,3.71 0.19,19.93 -0.02,25.42l215.8 0c0.02,-10.67 0.12,-25.44 0.12,-25.44 -32.38,-1.49 -44.9,-3.44 -64.7,-40.97 -16.2,-30.69 -36.61,-82.57 -66.17,-165.5 -88.33,-241.53 -185.84,-493.64 -265.58,-745.77l-18.48 0.06c-12,36.18 -51.07,139.96 -92.39,253.98 -74.29,204.95 -168.88,464.93 -203.68,558.5 -5.84,15.7 -31.59,79.78 -39.39,97.07 -15.56,38.28 -32.02,42.06 -62.21,42.66 0,0 0.02,25.36 0.02,25.36z"/>
    <path class="fil2" d="M3073.64 677.94c0,-18.23 9.66,-44.64 38.21,-44.64 28.06,0 38.22,27.27 38.22,45.5l0 2039.85c0,18.23 -1.44,58.77 -37.22,58.77 -39.74,0 -38.55,-36.42 -39.21,-60.25l0 -2039.23z"/>
    <g>
     <path class="fil2" d="M7043.69 1922.09c18.53,0 33.35,-0.11 44.47,-0.29 11.11,-0.18 19.73,-0.46 25.85,-0.83 6.11,-0.36 10.46,-0.74 13.07,-1.11 2.58,-0.37 4.63,-0.74 6.11,-1.11 2.96,-0.75 5.46,-0.92 7.5,-0.56 2.04,0.37 3.05,2.78 3.05,7.23 0,8.52 0.38,16.03 1.12,22.51 0.74,6.48 1.1,12.32 1.1,17.51 0,3.34 -1.2,5.1 -3.6,5.28 -2.41,0.18 -4.54,-0.65 -6.39,-2.5 -3.34,-4.08 -7.52,-7.51 -12.51,-10.28 -5,-2.78 -10.28,-5.1 -15.85,-6.95 -5.56,-1.85 -11.11,-3.33 -16.67,-4.45 -5.55,-1.12 -10.75,-2.04 -15.56,-2.79 -2.97,-0.73 -6.86,-1.28 -11.67,-1.66 -4.83,-0.37 -9.73,-0.64 -14.73,-0.83 -5.01,-0.18 -9.54,-0.18 -13.63,0 -4.08,0.19 -6.66,0.27 -7.77,0.27 -6.31,0.75 -9.55,3.43 -9.74,8.06 -0.18,4.64 -0.45,9.74 -0.82,15.29l0 273.49c0,17.03 0.37,31.21 1.11,42.51 0.73,11.31 1.84,20.48 3.33,27.52 1.48,7.05 3.25,12.42 5.27,16.13 2.05,3.7 4.36,6.48 6.96,8.34 4.07,2.58 5.55,4.99 4.45,7.22 -1.12,2.22 -4.26,3.15 -9.45,2.78 -4.09,-0.75 -9.37,-1.2 -15.76,-1.39 -6.39,-0.19 -12.23,-0.28 -17.31,-0.28 -5.1,0 -11.03,0.09 -17.61,0.28 -6.57,0.19 -11.96,0.64 -16.03,1.39 -4.82,0.37 -7.78,-0.56 -8.89,-2.78 -1.12,-2.23 0.19,-4.64 3.89,-7.22 2.96,-1.86 5.55,-4.55 7.77,-8.07 2.23,-3.52 3.99,-8.7 5.29,-15.56 1.3,-6.86 2.32,-15.75 3.06,-26.68 0.74,-10.93 1.12,-24.92 1.12,-41.97 0,-11.86 0,-26.59 0,-44.19 0,-17.6 0.07,-36.23 0.27,-55.86 0.18,-19.64 0.28,-39.37 0.28,-59.2 0,-19.83 0.08,-38 0.28,-54.48 0.18,-16.49 0.28,-30.29 0.28,-41.42 0,-11.11 0,-17.78 0,-20 -0.39,-5.93 -1.04,-11.4 -1.96,-16.39 -0.92,-5.01 -3.42,-7.52 -7.5,-7.52 -1.48,0 -4.45,0 -8.89,0 -4.45,0 -9.36,0 -14.73,0 -5.38,0 -10.66,0.19 -15.84,0.56 -5.19,0.38 -9.27,0.93 -12.24,1.66 -4.81,0.75 -10,1.59 -15.56,2.51 -5.56,0.93 -11.02,2.23 -16.39,3.89 -5.38,1.67 -10.57,3.98 -15.57,6.96 -4.99,2.95 -9.36,6.67 -13.07,11.11 -1.85,1.85 -3.98,2.68 -6.38,2.5 -2.4,-0.18 -3.61,-1.94 -3.61,-5.28 0,-5.19 0.36,-11.03 1.1,-17.51 0.74,-6.48 1.12,-13.99 1.12,-22.51 0,-4.45 1.01,-6.86 3.05,-7.23 2.05,-0.36 4.54,-0.19 7.51,0.56 1.47,0.37 3.52,0.74 6.11,1.11 2.6,0.37 6.95,0.75 13.07,1.11 6.11,0.37 14.73,0.65 25.84,0.83 11.12,0.18 25.94,0.29 44.47,0.29l97.83 0z"/>
     <path class="fil2" d="M6537.74 2343.42c-1.48,0 -3.71,-0.18 -6.66,-0.55 -2.97,-0.37 -6.13,-0.66 -9.46,-0.83 -3.34,-0.19 -6.58,-0.48 -9.72,-0.84 -3.16,-0.36 -5.84,-0.56 -8.06,-0.56 -1.48,0 -3.99,0.1 -7.52,0.27 -3.5,0.2 -7.22,0.38 -11.11,0.57 -3.89,0.19 -7.78,0.46 -11.67,0.83 -3.89,0.37 -7.32,0.75 -10.29,1.11 -5.18,0.75 -8.24,-0.09 -9.17,-2.51 -0.92,-2.4 0.47,-4.9 4.17,-7.49 2.97,-1.85 5.47,-4.45 7.51,-7.78 2.03,-3.34 3.8,-8.43 5.28,-15.29 1.49,-6.86 2.5,-15.75 3.06,-26.69 0.56,-10.92 0.83,-24.91 0.83,-41.96 0,-11.49 0,-26.03 0,-43.64 0,-17.59 0,-36.31 0,-56.14 0,-19.83 -0.1,-39.92 -0.27,-60.31 -0.2,-20.37 -0.29,-38.99 -0.29,-55.85 0,-16.87 0,-31.04 0,-42.54 0,-11.47 0,-18.34 0,-20.56 -0.74,-10.75 -2.59,-18.43 -5.55,-23.06 -2.97,-4.64 -5.57,-7.88 -7.79,-9.74 -2.58,-2.22 -3.52,-4.44 -2.78,-6.67 0.75,-2.22 2.6,-3.33 5.56,-3.33 5.19,0 12.13,0.37 20.84,1.11 8.72,0.74 18.26,0.92 28.63,0.56 3.34,0 9.92,-0.19 19.73,-0.56 9.83,-0.36 20.76,-0.56 32.8,-0.56 12.04,0 23.99,0.56 35.85,1.68 11.87,1.1 21.69,3.33 29.47,6.66 7.41,2.97 14.72,7.32 21.96,13.07 7.22,5.75 13.8,12.59 19.73,20.56 5.92,7.97 10.65,17.05 14.16,27.24 3.53,10.19 5.29,21.21 5.29,33.07 0.37,18.16 -2.03,33.72 -7.23,46.69 -5.19,12.98 -12.22,24.09 -21.13,33.36 -7.39,7.41 -15.83,13.7 -25.28,18.9 -9.45,5.19 -19.55,9.63 -30.3,13.34 0.75,0.36 4.82,6.29 12.23,17.78 7.41,11.5 16.86,25.75 28.35,42.81 11.5,17.04 24.09,35.48 37.8,55.3 13.72,19.82 27.06,38.45 40.03,55.87 4.44,6.29 9.72,11.3 15.84,15.01 6.12,3.7 12.32,5.92 18.61,6.67 4.08,0 6.3,1.94 6.68,5.83 0.37,3.89 -1.66,6.21 -6.13,6.95 -5.18,0.74 -10.82,1.4 -16.94,1.95 -6.12,0.55 -13.62,0.64 -22.51,0.27 -8.9,-0.36 -17.61,-2.51 -26.13,-6.39 -8.52,-3.89 -17.61,-13.25 -27.24,-28.07 -2.96,-5.18 -7.69,-12.97 -14.17,-23.34 -6.49,-10.38 -13.62,-21.78 -21.4,-34.19 -7.78,-12.41 -15.94,-25.28 -24.46,-38.64 -8.52,-13.33 -16.31,-25.46 -23.35,-36.4 -7.04,-10.94 -12.87,-20.01 -17.51,-27.24 -4.63,-7.23 -7.13,-11.21 -7.5,-11.95 -1.11,-1.86 -1.48,-3.61 -1.11,-5.28 0.36,-1.67 2.22,-2.87 5.55,-3.62 1.86,-0.37 3.44,-0.64 4.74,-0.82 1.3,-0.2 2.68,-0.29 4.15,-0.29 21.88,-4.45 38.55,-13.34 50.04,-26.67 8.15,-9.27 13.99,-20.2 17.51,-32.8 3.52,-12.61 5.09,-26.31 4.72,-41.13 -0.36,-16.68 -3.43,-30.67 -9.17,-41.97 -5.74,-11.3 -13.44,-20.66 -23.07,-28.07 -8.15,-6.3 -17.42,-10.94 -27.79,-13.9 -10.38,-2.96 -20.94,-4.45 -31.68,-4.45 -4.08,0 -8.24,0.1 -12.51,0.28 -4.26,0.18 -8.15,0.65 -11.67,1.39 -3.52,0.74 -6.58,1.85 -9.18,3.33 -2.58,1.49 -4.06,3.72 -4.44,6.68 0,52.62 0,97.45 0,134.51 0,37.06 0.09,67.82 0.28,92.27 0.18,24.46 0.27,43.65 0.27,57.54 0,13.88 0,24 0,30.29 0.38,11.12 1.49,20.66 3.33,28.62 1.86,7.97 4.09,14.73 6.67,20.29 2.6,5.57 5.29,9.93 8.06,13.07 2.78,3.15 5.29,5.46 7.52,6.95 3.7,2.59 5.09,5.09 4.16,7.49 -0.93,2.42 -3.99,3.26 -9.17,2.51z"/>
     <path class="fil2" d="M6037.06 1919.31c25.94,-3.72 52.9,-3.34 80.88,1.1 27.97,4.45 54.19,13.53 78.64,27.25 24.47,13.7 45.5,32.23 63.1,55.58 17.6,23.35 28.99,52.06 34.18,86.16 5.56,36.68 3.89,69.94 -5,99.77 -8.9,29.83 -22.23,55.68 -40.02,77.54 -17.78,21.87 -38.82,39.47 -63.09,52.81 -24.28,13.35 -49.02,21.68 -74.21,25.01 -15.93,2.23 -32.71,2.87 -50.3,1.95 -17.61,-0.93 -35.03,-3.8 -52.25,-8.62 -17.24,-4.81 -34.01,-11.85 -50.31,-21.13 -16.3,-9.25 -31.03,-21.01 -44.2,-35.29 -13.14,-14.26 -24.45,-31.21 -33.9,-50.85 -9.45,-19.64 -16.03,-42.43 -19.73,-68.38 -4.83,-32.61 -2.97,-62.99 5.56,-91.16 8.52,-28.16 21.3,-52.9 38.35,-74.2 17.04,-21.31 37.15,-38.73 60.32,-52.26 23.15,-13.52 47.15,-21.96 71.98,-25.28zm-125.63 237.35c3.7,27.41 11.86,52.15 24.46,74.2 12.6,22.05 27.98,40.39 46.13,55.03 18.16,14.63 38.35,25.21 60.6,31.69 22.22,6.47 44.65,8.06 67.25,4.72 19.27,-2.96 37.99,-10.64 56.14,-23.06 18.16,-12.41 33.64,-28.55 46.42,-48.37 12.79,-19.82 22.14,-42.62 28.07,-68.37 5.92,-25.75 6.3,-53.45 1.11,-83.1 -4.81,-27.41 -13.89,-51.61 -27.24,-72.54 -13.34,-20.94 -28.99,-38.08 -46.96,-51.41 -17.98,-13.35 -37.44,-22.89 -58.37,-28.64 -20.94,-5.73 -41.41,-7.12 -61.42,-4.16 -22.24,3.33 -42.53,10.84 -60.87,22.5 -18.34,11.69 -33.82,26.79 -46.41,45.32 -12.6,18.52 -21.59,40.12 -26.97,64.75 -5.36,24.65 -6.01,51.79 -1.94,81.44z"/>
     <path class="fil2" d="M5705.45 2129.41c0,4.83 -1.01,7.61 -3.05,8.35 -2.04,0.74 -4.53,-0.19 -7.51,-2.78 -4.07,-2.97 -10.38,-5.57 -18.89,-7.79 -8.53,-2.22 -16.49,-3.14 -23.91,-2.78 -5.19,0 -11.4,0.09 -18.62,0.29 -7.22,0.17 -14.54,0.27 -21.96,0.27 -7.41,0 -14.35,0 -20.84,0 -6.48,0 -11.4,0 -14.73,0 -2.96,0.38 -5.1,1.21 -6.39,2.51 -1.3,1.29 -2.13,2.68 -2.5,4.15 0,0.38 0,4.09 0,11.13 0,7.04 0,16.02 0,26.96 0,10.92 0.09,22.98 0.28,36.13 0.17,13.15 0.36,26.03 0.55,38.63 0.18,12.61 0.37,24.09 0.56,34.47 0.18,10.37 0.46,18.15 0.83,23.34 1.11,9.64 2.97,16.68 5.55,21.13 2.61,4.44 5.56,7.77 8.91,10 3.69,2.59 5,5 3.89,7.22 -1.12,2.23 -4.08,3.15 -8.91,2.78 -4.06,-0.74 -9.44,-1.21 -16.12,-1.38 -6.66,-0.19 -12.6,-0.28 -17.78,-0.28 -0.74,0 -2.59,0.09 -5.55,0.28 -2.97,0.17 -6.3,0.27 -10.01,0.27 -3.71,0 -7.14,0.1 -10.28,0.29 -3.16,0.17 -5.28,0.27 -6.4,0.27 -5.19,0.37 -8.24,-0.56 -9.18,-2.78 -0.92,-2.23 0.47,-4.64 4.18,-7.22 2.96,-1.86 5.47,-4.55 7.51,-8.07 2.03,-3.52 3.7,-8.7 5,-15.56 1.29,-6.86 2.32,-15.75 3.05,-26.68 0.75,-10.93 1.11,-24.92 1.11,-41.97l0 -278.49c-0.73,-10.74 -2.68,-18.35 -5.83,-22.79 -3.15,-4.45 -6.02,-7.59 -8.62,-9.45 -2.59,-2.22 -3.42,-4.54 -2.5,-6.95 0.93,-2.4 2.87,-3.6 5.84,-3.6 5.19,0 12.04,0.27 20.56,0.82 8.53,0.56 18.16,1.03 28.9,1.4 7.05,0 14.93,0 23.63,0 8.72,0 17.42,0.09 26.14,0.27 8.69,0.18 16.86,0.29 24.45,0.29 7.59,0 13.8,0 18.61,0 32.62,0 53,-0.93 61.15,-2.78 2.96,-0.75 5.47,-0.93 7.5,-0.56 2.04,0.37 3.07,2.78 3.07,7.22 0,8.53 -0.47,16.04 -1.39,22.52 -0.93,6.48 -1.39,12.32 -1.39,17.51 0,3.33 -1.3,5.19 -3.9,5.55 -2.59,0.37 -4.63,-0.74 -6.11,-3.33 -4.07,-6.67 -10.66,-12.05 -19.74,-16.12 -9.07,-4.08 -18.9,-7.14 -29.45,-9.17 -10.57,-2.04 -21.31,-3.33 -32.24,-3.89 -10.93,-0.56 -20.29,-0.84 -28.08,-0.84 -9.63,0 -18.25,0.65 -25.84,1.95 -7.61,1.3 -11.58,4.72 -11.95,10.29l0 141.19c0,2.58 1.01,4.81 3.06,6.66 2.03,1.85 5.46,2.78 10.27,2.78 2.97,0 9.37,0 19.18,0 9.83,0 20.29,-0.1 31.41,-0.28 11.12,-0.18 21.59,-0.27 31.41,-0.27 9.81,0 16.21,0 19.17,0 2.96,-0.38 5.38,-0.56 7.23,-0.56 1.86,0 4.08,-0.19 6.67,-0.56 6.67,-1.85 10,-0.18 10,5l0 25.01z"/>
     <path class="fil2" d="M5257.81 1925.89c0,0 72.22,-0.09 73.52,-0.02 0,0 0.03,12.26 0.03,12.26 -6.18,0.82 -24.91,10.22 -24.86,30.77 0.14,58.05 0.27,172.45 0.34,182.74 0.26,38.35 -0.42,113.69 -0.08,140.64 0.27,21.73 2.63,44.37 24.48,50.07 0,0 0.13,12.39 0.13,12.39 -30.1,0.08 -49.79,-0.25 -85.81,0 0,0 0.01,-12.33 0.01,-12.33 20.63,-5.25 24.56,-28.83 24.24,-49.86 -1.65,-103.46 1.2,-207.17 -0.77,-304.11 -44.51,108.37 -106.45,241.74 -158.15,354.01 0,0 -12.35,0 -12.35,0 -52.58,-121.87 -104.42,-244 -146.8,-336.62 -0.76,8.04 -0.44,270.77 -0.12,312.04 0.12,15.84 9.92,20.85 24.41,24.59 0,0 -0.05,12.29 -0.05,12.29 -2.96,-0.15 -19.59,-0.15 -37.66,-0.07 -16.16,0.08 -31.89,-0.01 -35.82,0.02 0,0 0.01,-12.27 0.01,-12.27 13.38,0.22 23.59,-13.12 24.36,-24.59 0.43,-6.29 -0.41,-321.07 0.05,-355.26 0.11,-10.83 -2.9,-22.37 -24.41,-24.46 0,0 -0.01,-12.23 -0.01,-12.23 1.26,0.01 18.84,-0.04 35.09,-0.01 13.66,0.02 26.18,-0.01 26.18,-0.01 18.86,47.7 38.2,91.35 59.83,137.73 10.19,21.87 20.28,43.74 30.29,65.59 10,21.87 19.46,42.53 28.35,61.98 8.89,19.45 16.33,35.68 22.24,48.65 3.72,8.13 6.49,14.26 8.34,18.34 1.84,4.06 2.96,6.47 3.33,7.22 38.8,-83.52 125.38,-285.85 141.66,-339.49z"/>
     <path class="fil2" d="M4477.29 1926.32c25.94,-3.58 52.91,-3.34 80.88,1.11 27.97,4.44 54.2,13.54 78.66,27.24 24.45,13.7 45.49,32.25 63.08,55.59 17.6,23.32 29.02,52.07 34.19,86.16 5.55,36.66 3.89,69.96 -5,99.77 -8.89,29.8 -22.25,55.67 -40.03,77.54 -17.78,21.86 -38.82,39.47 -63.09,52.81 -24.26,13.33 -49.03,21.62 -74.21,25.01 -15.92,2.14 -32.71,2.86 -50.3,1.95 -17.59,-0.92 -35.03,-3.81 -52.25,-8.62 -17.22,-4.81 -34.01,-11.87 -50.31,-21.13 -16.29,-9.25 -31.05,-21.03 -44.19,-35.29 -13.14,-14.25 -24.46,-31.21 -33.9,-50.85 -9.45,-19.65 -15.97,-42.46 -19.74,-68.38 -4.73,-32.61 -2.96,-63 5.56,-91.17 8.53,-28.16 21.32,-52.9 38.36,-74.2 17.02,-21.3 37.16,-38.73 60.31,-52.25 23.14,-13.52 47.19,-21.88 71.98,-25.29zm-125.62 237.35c3.72,27.39 11.87,52.16 24.45,74.21 12.59,22.04 28,40.39 46.14,55.02 18.15,14.63 38.37,25.22 60.59,31.69 22.22,6.47 44.66,8.12 67.26,4.73 19.26,-2.89 37.99,-10.67 56.14,-23.07 18.14,-12.4 33.64,-28.55 46.41,-48.35 12.77,-19.82 22.15,-42.63 28.08,-68.38 5.92,-25.75 6.29,-53.47 1.11,-83.1 -4.8,-27.41 -13.91,-51.61 -27.24,-72.54 -13.34,-20.93 -29,-38.08 -46.97,-51.42 -17.97,-13.34 -37.44,-22.89 -58.36,-28.62 -20.93,-5.74 -41.43,-7.14 -61.42,-4.18 -22.23,3.31 -42.55,10.85 -60.88,22.52 -18.32,11.66 -33.82,26.79 -46.41,45.3 -12.59,18.52 -21.6,40.13 -26.96,64.76 -5.36,24.63 -5.96,51.79 -1.94,81.43z"/>
     <path class="fil2" d="M4175.14 2330.24c-2.83,-0.25 -59.02,19.67 -97.37,22.65 -11.84,0.93 -23.55,1.38 -35.02,1.38 -32.62,0 -62.37,-5.37 -89.23,-16.11 -26.85,-10.73 -49.94,-25.85 -69.2,-45.31 -19.25,-19.44 -34.29,-42.53 -45.03,-69.21 -10.72,-26.66 -16.12,-55.77 -16.12,-87.26 0,-30.01 5.57,-58.01 16.68,-83.93 11.11,-25.93 26.88,-48.46 47.25,-67.54 20.37,-19.07 45.13,-34.1 74.21,-45.03 29.09,-10.92 61.41,-16.39 96.99,-16.39 7.78,0 17.99,0.46 30.58,1.38 12.59,0.93 24.93,2.42 36.96,4.45 12.03,2.03 22.16,4.75 30.3,8.06 8.13,3.32 6.33,6.26 6.53,11.15 0.63,16.52 0.01,47.92 0.24,63.05 0,0 -8.92,0.04 -12.25,0.04 -0.03,-18.31 -1.97,-30.54 -16.48,-43.39 -6.47,-5.74 -14,-10.29 -22.51,-13.62 -8.52,-3.33 -17.99,-5.65 -28.35,-6.94 -10.37,-1.3 -20.94,-1.95 -31.68,-1.95 -21.87,0 -43.28,3.53 -64.21,10.57 -20.93,7.02 -39.66,18.07 -56.14,33.07 -16.48,14.99 -29.75,34.1 -39.74,57.25 -10,23.15 -15.02,50.86 -15.02,83.1 0,26.32 2.7,49.48 8.07,69.48 5.36,20 12.5,37.43 21.4,52.25 8.89,14.83 19.18,27.33 30.85,37.52 11.67,10.2 23.72,18.35 36.13,24.46 12.42,6.12 24.84,10.48 37.25,13.07 12.4,2.57 23.8,3.89 34.18,3.89 23.34,0 45.58,-2.61 66.7,-7.79 39.54,-9.69 50.27,-16.53 51.82,-53.66 0,0 12.22,0.02 12.22,0.02 -0.3,6.35 0.91,61.37 -0.01,61.29z"/>
    </g>
    <g>
     <path class="fil1" d="M579.68 1423.15c124.5,-13.48 219.49,-73.11 273.23,-157.18 62.59,-97.97 69.23,-229.15 1.36,-359.3 -266.03,34.93 -394.84,233.31 -274.59,516.48z"/>
     <path class="fil1" d="M1100.98 891.67c123.53,-15.91 182.18,-131.63 125.22,-242.42 -116.86,17.21 -165.43,112.21 -125.22,242.42z"/>
     <path class="fil1" d="M992.32 971.4c87.64,-71.78 75.91,-189.68 -22.76,-248.13 -81.86,69.58 -72.54,166.57 22.76,248.13z"/>
     <path class="fil1" d="M1020.89 739.83c48.28,4.66 66.35,-20.32 61.31,-60.96 -44.05,-3.84 -64.15,21.89 -61.31,60.96z"/>
     <path class="fil1" d="M1446.76 953.45c20.47,88.55 71.4,152.91 136.23,186.06 75.54,38.61 169.98,34.88 257.2,-22.29 -48.13,-188.81 -201.28,-268.47 -393.43,-163.77z"/>
     <path class="fil1" d="M544.42 1785.78c58.09,-64.83 81.31,-140.34 72.92,-209.64 -9.79,-80.74 -62.48,-153.07 -152.94,-190.33 -121.51,141.75 -102.74,306.2 80.02,399.97z"/>
     <path class="fil1" d="M1956.92 1635.68c-203.94,-86.17 -400.99,18.06 -411.44,246.69 195.66,77.36 369.53,-8.54 411.44,-246.69z"/>
     <path class="fil1" d="M1796.02 2545.05c-29.67,-176.14 -237.76,-300.2 -453.58,-170.71 12.96,180.35 222.3,316.89 453.58,170.71z"/>
     <path class="fil1" d="M1042.88 1932.98c-117.87,-75.5 -247.84,-34.87 -273.86,102.46 113.53,69.21 227.69,37.04 273.86,-102.46z"/>
     <path class="fil1" d="M611.66 2408.48c74.88,14.77 140.97,-2.67 187.5,-41.82 54.21,-45.63 81.9,-120.74 66.05,-208.78 -161.11,-27.99 -272.07,64.02 -253.55,250.6z"/>
     <path class="fil1" d="M2236.26 1866.09c-9.59,53.84 3.71,101.06 32.26,134.02 33.28,38.4 87.27,57.5 149.95,45.24 8.64,-51.91 -3.08,-97.37 -32.93,-129.55 -31.02,-33.45 -81.62,-52.57 -149.28,-49.71z"/>
     <path class="fil1" d="M2278.39 1864.32c53.48,5.71 98.79,-10.65 129.02,-41.02 35.21,-35.4 49.97,-89.85 33.37,-150.67 -114.84,-9.63 -187.01,61.87 -162.39,191.69z"/>
     <path class="fil1" d="M1915.74 2251.39c63.87,32.88 128.91,35.67 182.34,14.49 62.25,-24.69 108.78,-81.92 119.41,-162 -138.5,-67.51 -265.54,-18.16 -301.75,147.51z"/>
     <path class="fil1" d="M2421.85 2470.05c-132.33,11.38 -207.69,121.85 -149.22,246.07 125.46,-13.74 193.66,-107.99 149.22,-246.07z"/>
     <path class="fil1" d="M2153.68 1123.45c31.18,32.13 69.04,46.29 104.82,43.76 41.68,-2.95 80.55,-28.57 102.77,-74.89 -68.37,-67.35 -153.23,-61.94 -207.59,31.13z"/>
     <path class="fil1" d="M899.27 860.63c-21.84,-37.42 -49.36,-37.46 -76.18,-12.59 20.23,33.92 49.36,35.04 76.18,12.59z"/>
     <path class="fil1" d="M813.23 871.11c-30.27,-8.22 -49.25,8.31 -50.46,34.76 27.66,7.24 48.01,-9.55 50.46,-34.76z"/>
     <path class="fil1" d="M1788.82 691.77c-26.12,51.04 -25.73,101.91 -4.78,142.86 24.42,47.71 76.76,81.99 147.64,87.42 53.3,-110.53 4.37,-207.93 -142.86,-230.28z"/>
     <path class="fil1" d="M923.55 1112.61c4.82,57.37 30.92,102.33 68.57,128.98 43.86,31.05 103.41,37.27 163.27,9.32 -13.08,-122.73 -101.89,-186.55 -231.84,-138.3z"/>
     <path class="fil1" d="M1422.22 983.16c63.17,-118.67 -3.45,-234.08 -138.1,-243.86 -57.85,113.44 -3.4,208.56 138.1,243.86z"/>
     <path class="fil1" d="M1616.14 642.32c-20.68,40.4 -20.37,80.67 -3.78,113.09 19.33,37.77 60.77,64.9 116.87,69.21 42.2,-87.5 3.46,-164.61 -113.09,-182.3z"/>
     <path class="fil1" d="M927.96 1863.13c5.49,-51.98 -9.89,-98.15 -38.54,-130.91 -33.4,-38.17 -84.83,-58.16 -142.33,-47.97 -9.29,111.88 58.15,190 180.87,178.88z"/>
     <path class="fil1" d="M678.64 2117.23c42.67,-30.26 65.6,-70.6 68.77,-111.06 3.69,-47.14 -19.46,-94.45 -69.52,-126.11 -81.88,56.17 -98.18,162.66 0.75,237.17z"/>
     <path class="fil1" d="M1401.2 2747.08c54.42,-141.51 -62.78,-280.32 -213.09,-258.63 -24.29,138.35 51.92,257.91 213.09,258.63z"/>
     <path class="fil1" d="M2009.16 1902.87c49.85,26.13 101.36,29.61 144.28,14.8 49.99,-17.27 88.33,-59.38 98.76,-119.48 -108.17,-53.8 -210.17,-19.33 -243.04,104.68z"/>
     <path class="fil1" d="M2359.15 2442.84c40.79,-20.58 65.84,-53.28 73.82,-89.11 9.29,-41.74 -4.58,-87.76 -43.73,-123.88 -86.4,46.09 -105.92,130.89 -30.09,212.99z"/>
     <path class="fil1" d="M1976.64 2680.63c36.23,29.65 77.77,40.1 115.42,33.6 43.88,-7.58 82.53,-38.18 101.47,-88.25 -79.15,-61.84 -168.54,-47.04 -216.89,54.65z"/>
     <path class="fil1" d="M1940.51 1188.1c-18.86,44.22 -18.02,87.51 -2.01,121.72 18.66,39.87 57.93,67.45 110.66,69.92 38.42,-95.68 1.01,-177.1 -108.65,-191.64z"/>
     <path class="fil1" d="M2222.04 2305.41c51.54,-3.31 91.42,-26.8 114.55,-61.49 26.95,-40.41 31.18,-96.04 4.65,-152.67 -110.2,9.66 -165.61,91.47 -119.2,214.16z"/>
     <path class="fil1" d="M1460.46 754.47c71.93,6.62 119.76,-51.46 101.54,-121.37 -68.32,-5.04 -107.83,42.58 -101.54,121.37z"/>
     <path class="fil1" d="M1156.68 2428.2c57.51,7.43 106.78,-8.6 140.14,-39.8 38.87,-36.37 56.17,-93.34 39.83,-157.86 -123.56,-13.18 -203.19,60.24 -179.97,197.66z"/>
     <path class="fil1" d="M2134.39 2535.27c20.12,-47.57 16.96,-93.75 -3.69,-129.96 -24.08,-42.19 -71.92,-70.87 -134.44,-72.51 -40.7,102.86 7.64,189.04 138.13,202.47z"/>
     <path class="fil1" d="M1856.94 1157.16c46.83,24.55 95.23,27.83 135.55,13.91 46.97,-16.23 82.99,-55.79 92.79,-112.25 -101.63,-50.55 -197.46,-18.17 -228.34,98.34z"/>
     <path class="fil1" d="M1300.48 728.94c77.37,21.99 139.06,-23.51 130.64,-94.76 -73.69,-19.7 -124.58,17.56 -130.64,94.76z"/>
     <path class="fil1" d="M1449.84 817.65c50.99,83.2 145.5,89.31 198.76,14.46 -49.64,-78.05 -127.36,-83.35 -198.76,-14.46z"/>
     <path class="fil1" d="M2084.69 1621.48c0.48,47.09 19.32,85.13 48.82,108.82 34.38,27.59 83.25,35.7 134.47,15.93 -3.31,-100.87 -72.85,-157.51 -183.29,-124.75z"/>
     <path class="fil1" d="M884.95 2411.3c51.62,-1.17 92.74,-22.32 117.78,-54.97 29.16,-38.05 36.5,-91.71 13.19,-147.56 -110.52,4.99 -170.41,81.96 -130.97,202.53z"/>
     <path class="fil1" d="M1068.94 1077.65c71.39,-4.35 108.43,-64.41 78.95,-125.74 -67.6,5.27 -98.25,54.56 -78.95,125.74z"/>
     <path class="fil1" d="M799.96 2576.22c113.37,33.44 197.32,-37.7 186.84,-125.02 -82.94,-26.43 -184.2,13.75 -186.84,125.02z"/>
     <path class="fil1" d="M1118.12 2214.34c4.38,-41.68 -7.89,-78.03 -30.77,-103.23 -26.66,-29.37 -67.71,-43.62 -113.61,-33.58 -7.42,89.62 46.42,149.75 144.38,136.81z"/>
     <path class="fil1" d="M1021.51 1822.68c16.02,-34.83 16.64,-69.58 5.16,-97.59 -13.38,-32.63 -43.2,-56.13 -84.26,-59.95 -32.8,75.42 -6.01,142.04 79.1,157.54z"/>
     <path class="fil1" d="M1028.37 1439.36c61.43,-64.38 45.43,-151.37 -32.23,-183.31 -57.22,62.02 -44.31,133.63 32.23,183.31z"/>
     <path class="fil1" d="M1231.5 1030.19c59.23,-58.99 47.43,-139.62 -23.48,-169.9 -55.24,56.85 -45.77,123.22 23.48,169.9z"/>
     <path class="fil1" d="M986.71 1086.22c6.01,-57.23 -24.18,-78.67 -73.55,-72.75 -4.98,52.22 26.11,76.07 73.55,72.75z"/>
     <path class="fil1" d="M1049.65 1058.84c8.79,-36.31 -7.85,-75.13 -49.62,-75.88 -11.88,38.42 9.1,74.1 49.62,75.88z"/>
     <path class="fil1" d="M1456.28 1116.43c-3.63,-94.57 -81.77,-150.23 -163.58,-118.39 4.94,89.68 69.08,135.69 163.58,118.39z"/>
     <path class="fil1" d="M1189.77 1196.85c46.45,-37.79 39.94,-75.77 -0.82,-107.65 -42.02,34.85 -36.61,75.26 0.82,107.65z"/>
     <path class="fil1" d="M1308.87 1147.75c6.72,-69.84 -30.31,-95.67 -90.44,-87.92 -5.52,63.72 32.63,92.47 90.44,87.92z"/>
     <path class="fil1" d="M2129.17 1169.9c-31.33,24.49 -49.11,58.25 -52.92,92.72 -4.44,40.18 10.07,81.35 44.21,110.01 66.18,-54.18 75.71,-135.87 8.71,-202.73z"/>
     <path class="fil1" d="M1858.41 1276.63c-13.28,29.63 -14.21,58.38 -5.33,80.92 10.34,26.25 33.98,44.07 66.9,45.03 27.24,-64.08 6.56,-117.7 -61.57,-125.95z"/>
     <path class="fil1" d="M1444 2704.2c30.96,31.32 68.57,45.15 104.12,42.71 41.42,-2.85 80.06,-27.79 102.17,-72.9 -67.89,-65.67 -152.21,-60.46 -206.29,30.19z"/>
     <path class="fil1" d="M823.65 1652.69c2.41,-96.92 -84.83,-146.56 -182.48,-105.83 -0.53,91.77 71.04,132.85 182.48,105.83z"/>
     <path class="fil1" d="M791.39 1405.23c-86.13,-17.92 -165.12,35.93 -167.01,112.3 82.24,15.72 147.36,-28.4 167.01,-112.3z"/>
     <path class="fil1" d="M2159.61 861.37c-29.22,8.13 -49.89,26.39 -59.94,49.02 -11.71,26.37 -9,58.69 11.41,87.86 62.23,-18.86 86.42,-72.34 48.53,-136.88z"/>
     <path class="fil1" d="M1978.52 799.36c-2.15,27.8 7.59,51.82 24.71,68.27 19.95,19.17 49.92,28.09 82.79,20.77 3.18,-59.75 -37.13,-99.02 -107.5,-89.04z"/>
     <path class="fil1" d="M1903.22 1864.41c39.83,6.32 75.13,-3.17 100.11,-23.12 29.11,-23.25 44.23,-60.73 36.21,-104.02 -85.7,-11.72 -145.28,35.2 -136.32,127.14z"/>
     <path class="fil1" d="M1983.57 1606.62c-11.78,25.11 -11.79,49.48 -2.63,68.57 10.68,22.25 33.79,37.35 65.24,38.17 24.06,-54.31 2.67,-99.75 -62.61,-106.74z"/>
     <path class="fil1" d="M2267.64 1682.68c40.36,5.56 80.85,-21.86 77.4,-75.51 -42.98,-9.19 -79.6,23.3 -77.4,75.51z"/>
     <path class="fil1" d="M487.67 2213.05c101.46,-18.71 142.98,-120.51 88.94,-213.36 -95.86,19.54 -130.3,103.13 -88.94,213.36z"/>
     <path class="fil1" d="M943.67 1271.11c-98.59,-7.2 -161.12,80.48 -132.82,183.3 93.58,5 145.24,-66.92 132.82,-183.3z"/>
     <path class="fil1" d="M523.16 1395.86c-69.15,-17.92 -88.61,-85.33 -49.15,-140 60.12,17.66 80.35,78.45 49.15,140z"/>
     <path class="fil1" d="M1780.96 1238.75c51.42,11.27 74.97,-13.49 76.08,-58.2 -46.97,-9.84 -72.84,15.47 -76.08,58.2z"/>
     <path class="fil1" d="M2178.16 1221.71c5.46,29.27 22.01,50.13 44,60.45 25.63,12.01 58.66,9.71 90.19,-10.31 -13.21,-62.35 -65.14,-87.17 -134.19,-50.14z"/>
     <path class="fil1" d="M2222.49 937.75c-22.53,53.36 2.12,82.64 54.19,91.06 20.05,-48.84 -4.83,-80.69 -54.19,-91.06z"/>
     <path class="fil1" d="M2105.62 1959.62c-86.29,-37.59 -169.21,5.36 -173.04,101.98 82.77,33.81 155.95,-1.52 173.04,-101.98z"/>
     <path class="fil1" d="M1945.11 1944.32c-64.43,-43.55 -142.83,-26.79 -166.19,44.13 62.27,40.12 130.93,27.23 166.19,-44.13z"/>
     <path class="fil1" d="M1940.64 1876.32c-15.37,40.23 6.46,73.9 50,73.81 11.94,-42.78 -5.82,-74.7 -50,-73.81z"/>
     <path class="fil1" d="M853.6 1590.85c71.16,-16.76 94.84,-100.04 58.43,-152.77 -66.58,8.22 -98.58,83.96 -58.43,152.77z"/>
     <path class="fil1" d="M706.11 1668.18c-102.28,3.98 -154.26,105.07 -110.83,211.57 96.83,-5.73 139.85,-88.69 110.83,-211.57z"/>
     <path class="fil1" d="M1614.38 1634.52c-46.43,-28.66 -98.14,-15.9 -109.02,32.93 44.75,26.35 90.15,16.4 109.02,-32.93z"/>
     <path class="fil1" d="M1051.29 1895.76c-1.95,-48.33 -35.12,-63.86 -71.34,-53.78 -1.31,38.26 30.6,60.02 71.34,53.78z"/>
     <path class="fil1" d="M1112.67 2085.9c-2.37,-58.71 -42.66,-77.56 -86.65,-65.33 -1.6,46.47 37.16,72.9 86.65,65.33z"/>
     <path class="fil1" d="M1217.18 2245.38c17.06,-55.89 -10.55,-92.5 -58.65,-94.53 -16.45,34.47 -10.61,84.25 58.65,94.53z"/>
     <path class="fil1" d="M826.53 1875.25c-58.27,-25.72 -91.39,3.04 -95.46,50.05 44.87,23.61 84.83,-0.11 95.46,-50.05z"/>
     <path class="fil1" d="M2208.06 1011.8c-46.43,-28.67 -98.13,-15.9 -109.01,32.92 44.74,26.36 90.14,16.4 109.01,-32.92z"/>
     <path class="fil1" d="M1885.86 937.02c-0.76,25.86 9.24,46.9 25.67,60.14 19.16,15.42 47.07,20.25 76.94,9.8 0.31,-55.42 -38.42,-87.06 -102.61,-69.94z"/>
     <path class="fil1" d="M2051.31 905.76c-24.15,13.55 -37.83,33.43 -40.73,54.42 -3.38,24.46 7.87,50.42 34.25,69.64 51.01,-30.13 58.27,-79.83 6.48,-124.06z"/>
     <path class="fil1" d="M1703.77 831.61c-11.93,29.97 -10.51,58.32 1.03,79.97 13.46,25.22 40.65,41.34 76.48,40.31 24.19,-64.71 -2.81,-116.25 -77.51,-120.28z"/>
     <path class="fil1" d="M1860.53 922.35c-42.22,-8.64 -73.53,24.7 -63.18,74.45 44.48,-1.85 72.54,-30.15 63.18,-74.45z"/>
     <path class="fil1" d="M2052.56 1182.27c39.97,6.83 57.21,-13.06 56.47,-47.52 -36.51,-5.89 -55.5,14.52 -56.47,47.52z"/>
     <path class="fil1" d="M2312.45 1190.4c45.91,21.12 70.92,3.54 77.91,-36.96 -42.01,-18.87 -69.23,-1.28 -77.91,36.96z"/>
     <path class="fil1" d="M2426.44 1245.09c-43.4,41.21 -80.88,31.25 -108.27,-11.18 39.93,-37.2 79.99,-28.08 108.27,11.18z"/>
     <path class="fil1" d="M1037.07 1469.02c-50.88,-10.87 -101.07,13.05 -95.36,70.08 54.26,15.03 99.47,-14.71 95.36,-70.08z"/>
     <path class="fil1" d="M1019.42 1634.38c-51.81,32.67 -116.99,26.62 -133.84,-38.73 53.86,-38.64 115.9,-24.13 133.84,38.73z"/>
     <path class="fil1" d="M383.92 1912.3c75.32,-0.23 121.54,-77.54 99.68,-138.36 -68.45,-7.21 -120.88,60.69 -99.68,138.36z"/>
     <path class="fil1" d="M392.01 1694.6c-30.66,33.06 -20.34,63.78 8.75,79.5 26.05,-24.4 20.62,-58.45 -8.75,-79.5z"/>
     <path class="fil1" d="M412.15 2015.72c47.05,11.6 89.34,3.75 119.82,-17.73 35.52,-25.03 55.01,-68.59 47.25,-121.47 -88.93,-23.37 -173.95,27.71 -167.07,139.2z"/>
     <path class="fil1" d="M684.91 2184.15c9.46,-49.89 -37.5,-72.2 -74.58,-60.71 1.43,36.45 20.92,62.25 74.58,60.71z"/>
     <path class="fil1" d="M822.44 2073.89c-69.92,-16.3 -115.94,18.19 -120.27,78.52 69.56,9.45 118.51,-24.54 120.27,-78.52z"/>
     <path class="fil1" d="M642.01 2203.39c-38.22,-31.56 -77.28,-24.36 -98.49,11.61 40.11,27.21 80.83,21.23 98.49,-11.61z"/>
     <path class="fil1" d="M594.44 2321.04c1.27,-49.03 -17.27,-76.92 -75.87,-76.19 -0.52,42.27 11.45,76.01 75.87,76.19z"/>
     <path class="fil1" d="M918.12 2214.73c56.42,-58.15 35.87,-110.72 -19.4,-136.73 -48.06,43.06 -36.59,101.55 19.4,136.73z"/>
     <path class="fil1" d="M1110.92 2382.38c38.63,-63.2 8.95,-121.08 -53.62,-132.04 -32.78,62.4 -8.44,126.3 53.62,132.04z"/>
     <path class="fil1" d="M1173.44 2254.8c-26.14,-37.68 -55.67,-26.73 -76.63,-5.38 16.56,32.65 57.86,34.8 76.63,5.38z"/>
     <path class="fil1" d="M1123.41 2456.09c-21.79,-75.05 -98.24,-67.88 -137.58,-46.72 8.4,62.79 81.65,80.78 137.58,46.72z"/>
     <path class="fil1" d="M700.81 2497.72c82.6,18.35 145.88,-9.99 153.16,-87.19 -77.26,-34.83 -150.1,2.52 -153.16,87.19z"/>
     <path class="fil1" d="M979.46 2686.13c107.76,-29.87 122.73,-110.69 78.17,-184.62 -87.02,17.39 -116.81,98.75 -78.17,184.62z"/>
     <path class="fil1" d="M1148.84 2579.85c33.79,-57.08 1.59,-89.3 -39.09,-103.98 -32.95,41.44 -10.88,97.03 39.09,103.98z"/>
     <path class="fil1" d="M954.27 2577.77c-37.34,-2.34 -44.72,21.9 -41.14,45.9 29.35,5.9 51.04,-19.22 41.14,-45.9z"/>
     <path class="fil1" d="M1394.66 2256.64c-34.72,11.88 -30.74,49.92 -14.82,66.34 30.77,-10.17 38.53,-47.33 14.82,-66.34z"/>
     <path class="fil1" d="M1324.79 2416.75c-39.33,-18.79 -73.31,3.67 -76.39,40.82 35.44,11.56 68.06,-1.26 76.39,-40.82z"/>
     <path class="fil1" d="M1169.42 2731.23c40.07,-65.56 9.29,-125.61 -55.62,-136.98 -34.01,64.73 -8.76,131.02 55.62,136.98z"/>
     <path class="fil1" d="M1236.95 2777.69c27.19,-44.49 6.3,-85.24 -37.75,-92.95 -23.08,43.93 -5.94,88.91 37.75,92.95z"/>
     <path class="fil1" d="M1418.1 2571.31c-14.05,46.45 24.53,73.02 50.54,68.25 15.55,-37.39 -13.2,-75.1 -50.54,-68.25z"/>
     <path class="fil1" d="M1706.69 2620.49c-61.3,14.33 -59.26,80.04 -33.94,110.86 54.27,-12.11 72.36,-74.28 33.94,-110.86z"/>
     <path class="fil1" d="M1781.55 2701.79c59.02,-41.1 60.14,-97.52 15.15,-136.07 -42.14,20.84 -74.34,73.45 -15.15,136.07z"/>
     <path class="fil1" d="M1547.52 1696.93c-29.36,22.88 -38.07,63.65 -2.14,90.4 33.32,-22.59 36.37,-63.62 2.14,-90.4z"/>
     <path class="fil1" d="M1551.27 1900.96c-34.21,25.6 -44.36,71.22 -2.5,101.16 38.82,-25.29 42.38,-71.2 2.5,-101.16z"/>
     <path class="fil1" d="M1590.38 1974.38c21.57,30.64 50.15,46.97 78.69,49.01 33.25,2.38 66.45,-14.62 88.47,-50.97 -47.59,-64.6 -115.22,-69.95 -167.16,1.96z"/>
     <path class="fil1" d="M1782.07 1926.97c24.48,6.08 54.92,-0.57 59.09,-30.93 -26.39,-10.71 -56.07,1.3 -59.09,30.93z"/>
     <path class="fil1" d="M2356.46 1631.18c29.42,38.14 57.69,32.16 80.59,-2.25 -27.1,-34.48 -57.23,-29.39 -80.59,2.25z"/>
     <path class="fil1" d="M2374.57 1888.32c27.12,12.84 57.01,3.42 59.01,-33.62 -28.61,-15.88 -56.27,-2.16 -59.01,33.62z"/>
     <path class="fil1" d="M2203.76 1910.83c18.73,24.49 24.14,51.4 18.13,75.01 -7,27.51 -29.5,50.56 -64.47,60.12 -38.93,-53.36 -25.09,-109.43 46.34,-135.13z"/>
     <path class="fil1" d="M2430.29 2110.48c10.55,-16.95 6.37,-40.55 -18.33,-49.73 -12.7,17.41 -5.48,40.29 18.33,49.73z"/>
     <path class="fil1" d="M2408.01 2200.99c32.08,-24.68 40.09,-67.96 -1.59,-95.68 -36.56,24.45 -38.18,67.91 1.59,95.68z"/>
     <path class="fil1" d="M1869.28 2153.56c52.58,12.89 94.87,-13.91 93.43,-61.82 -49.94,-10.75 -91.24,12.14 -93.43,61.82z"/>
     <path class="fil1" d="M1827.86 2182.45c-17.2,26.83 -20.88,54.59 -13.32,77.73 8.81,26.96 32.87,47.65 68.58,53.32 35.59,-58.25 18.08,-113.25 -55.26,-131.05z"/>
     <path class="fil1" d="M1973.78 2465.9c-55.39,-84.04 -123.11,-96.46 -201.44,-47.34 44.56,90.35 110.97,108.51 201.44,47.34z"/>
     <path class="fil1" d="M1941.62 2601.45c-17.93,-63.42 -66.46,-81.28 -113.31,-53.86 5.44,42.73 41.35,86.37 113.31,53.86z"/>
     <path class="fil1" d="M2024.04 2599.31c27.21,-56.38 3.97,-99.65 -46.61,-109.68 -23.07,33.79 -25.89,102.95 46.61,109.68z"/>
     <path class="fil1" d="M1869.62 2363.02c-2.58,-42.81 -44.86,-67.59 -90.51,-55.35 9.39,27.21 28.43,77.38 90.51,55.35z"/>
     <path class="fil1" d="M1957.27 2364.79c-11.04,-40.56 -41.46,-53.48 -70.99,-37.81 3.27,27.1 25.69,55.82 70.99,37.81z"/>
     <path class="fil1" d="M1766.9 2398.33c10.61,-41.73 -10.85,-64.8 -44.1,-61.38 -7.16,26.34 1.38,55.42 44.1,61.38z"/>
     <path class="fil1" d="M1753.44 2305.66c-23.06,-42.02 -82.69,-36.13 -103.3,-2.41 16.44,30.53 72.32,40.64 103.3,2.41z"/>
     <path class="fil1" d="M2317.06 2460.85c-21.51,-99.37 -57.03,-132.97 -171,-124.85 9.13,100.77 64.6,144.26 171,124.85z"/>
     <path class="fil1" d="M2177.3 2468.66c-18.95,29.57 -23,60.15 -14.68,85.64 9.71,29.69 36.22,52.49 75.56,58.73 39.21,-64.17 19.91,-124.75 -60.88,-144.37z"/>
     <path class="fil1" d="M2207.85 2641.5c-9.64,15.04 -11.7,30.61 -7.47,43.58 4.94,15.11 18.43,26.71 38.45,29.89 19.95,-32.66 10.14,-63.49 -30.98,-73.47z"/>
     <path class="fil1" d="M2377.3 2720.42c31.82,7.54 61.55,-9.28 55.28,-49.21 -34.1,-10.45 -60.48,10.44 -55.28,49.21z"/>
     <path class="fil1" d="M2267.04 2046.59c8.39,-20.58 -0.05,-43.62 -27.94,-45.7 -10.6,21.69 0.96,43.08 27.94,45.7z"/>
     <path class="fil1" d="M2057.42 2292.07c31.28,-7.77 70.18,0.73 75.5,39.52 -33.73,13.69 -71.64,-1.66 -75.5,-39.52z"/>
     <path class="fil1" d="M2130.68 2264.19c31.57,-14.96 71.11,2.47 73.42,45.58 -38.44,14.96 -74.66,-7 -73.42,-45.58z"/>
    </g>
    <path class="fil2" d="M3995.99 2768.46l-0.99 1.1c-6.39,-0.44 -16.34,-0.66 -29.84,-0.66 -13.82,0 -23.78,0.22 -29.83,0.66l-0.99 -0.99 0 -7.3 1.06 -1.06c6.62,-0.44 10.38,-0.81 11.34,-1.1 1.88,-0.55 2.98,-1.88 3.31,-3.97 0.83,-5.17 1.25,-16.25 1.25,-33.3l0 -25.9c-3.3,-0.37 -13.76,-0.55 -31.39,-0.55 -16.27,0 -27.02,0.18 -32.18,0.55l0 25.9c0,17.05 0.44,28.13 1.26,33.3 0.33,2.09 1.42,3.42 3.31,3.97 0.96,0.29 4.73,0.66 11.34,1.1l0.96 1.06 0 7.19 -0.86 1.1c-6.48,-0.44 -16.44,-0.66 -29.87,-0.66 -13.89,0 -23.85,0.22 -29.83,0.66l-0.96 -0.99 0 -7.3 0.96 -1.06c6.58,-0.44 10.35,-0.81 11.34,-1.1 1.86,-0.55 2.95,-1.88 3.27,-3.97 0.87,-5.17 1.27,-16.25 1.27,-33.3l0 -56.86c0,-17.06 -0.4,-28.18 -1.27,-33.31 -0.32,-2.09 -1.41,-3.41 -3.27,-4 -0.99,-0.26 -4.76,-0.62 -11.34,-1.06l-0.96 -1.07 0 -7.3 0.96 -0.99c6.18,0.44 16.14,0.66 29.83,0.66 14.03,0 23.98,-0.22 29.87,-0.66l0.86 0.99 0 7.41 -0.96 0.96c-6.61,0.44 -10.38,0.8 -11.34,1.06 -1.89,0.59 -2.98,1.91 -3.31,4 -0.82,5.13 -1.26,16.25 -1.26,33.31l0 17.71c6.85,0.37 16.28,0.55 28.32,0.55 18.85,0 30.59,-0.18 35.25,-0.55l0 -17.71c0,-17.06 -0.42,-28.18 -1.25,-33.31 -0.33,-2.09 -1.43,-3.41 -3.31,-4 -0.96,-0.26 -4.72,-0.62 -11.34,-1.06l-1.06 -1.07 0 -7.3 0.99 -0.99c6.25,0.44 16.21,0.66 29.83,0.66 14.1,0 24.05,-0.22 29.84,-0.66l0.99 0.99 0 7.41 -0.89 0.96c-6.71,0.44 -10.52,0.8 -11.41,1.06 -1.88,0.59 -2.97,1.91 -3.31,4 -0.85,5.13 -1.25,16.25 -1.25,33.31l0 56.86c0,17.05 0.4,28.13 1.25,33.3 0.34,2.09 1.43,3.42 3.31,3.97 0.96,0.29 4.73,0.66 11.31,1.1l0.99 1.06 0 7.19zm280.83 0l-0.86 1.1c-14.36,-0.44 -22.99,-0.66 -25.96,-0.66 -11.88,0 -22.92,0.22 -33.15,0.66l-0.85 -1.1 0 -6.75 0.95 -1.21 8.44 -0.51c3.54,-0.22 5.32,-1.62 5.32,-4.19 0,-1.5 -0.89,-4.87 -2.71,-10.12l-7.84 -22.67c-8.93,-0.15 -18.02,-0.22 -27.36,-0.22 -5.02,0 -12.49,0.07 -22.45,0.22l-4.27 13.1c-3.24,9.97 -4.86,16.21 -4.86,18.7 0,2.72 1.52,4.33 4.56,4.85 1.69,0.29 4.97,0.58 9.89,0.84l0.96 1.1 0 6.86 -0.96 1.1c-11.94,-0.44 -19.65,-0.66 -23.05,-0.66 -2.65,0 -9.23,0.22 -19.68,0.66l-0.96 -0.99 0 -6.97 1.06 -1.1c6.64,-0.4 10.75,-1.87 12.24,-4.4 1.52,-2.5 7.24,-17.43 17.13,-44.79l25.27 -70.18c1.89,-5.46 4.73,-13.64 8.53,-24.61l13.76 0 51.37 134c1.99,5.1 3.81,7.96 5.43,8.59 2.11,0.88 5.19,1.32 9.19,1.32l0.86 1.17 0 6.86zm-61.42 -57.81l-20.74 -56.31 -19.85 56.31c5.3,0.22 12.18,0.33 20.64,0.33 8.21,0 14.86,-0.11 19.95,-0.33zm319.62 -92.74c-0.79,5.28 -1.19,10.79 -1.25,16.44l-0.2 17.93 -0.95 1.1 -6.13 0 -1.05 -0.99c-0.33,-9.17 -0.7,-14.52 -1.07,-16.1 -0.79,-2.86 -2.84,-4.55 -6.21,-5.06 -1.29,-0.22 -7.37,-0.33 -18.23,-0.33l-12.97 0c-0.12,2.53 -0.19,12.47 -0.19,29.89l0 61.05c0,17.05 0.43,28.13 1.26,33.3 0.32,2.09 1.42,3.42 3.31,3.97 0.95,0.29 4.72,0.66 11.3,1.1l1 1.06 0 7.19 -1 1.1c-6.38,-0.44 -16.33,-0.66 -29.83,-0.66 -13.83,0 -23.78,0.22 -29.84,0.66l-0.89 -0.99 0 -7.3 1 -1.06c6.58,-0.44 10.35,-0.81 11.31,-1.1 1.88,-0.55 2.97,-1.88 3.3,-3.97 0.83,-5.17 1.26,-16.25 1.26,-33.3l0 -61.05c0,-17.71 -0.1,-27.66 -0.3,-29.89l-13.86 0c-11.54,0 -18.29,0.4 -20.24,1.21 -1.02,0.4 -1.75,0.95 -2.12,1.58 -0.6,1.17 -1.09,3.44 -1.45,6.89 -0.46,3.78 -0.76,7.71 -0.9,11.7l-0.95 1.1 -6.12 0 -1.06 -1.1 -0.2 -18.37c-0.07,-5.14 -0.43,-10.5 -1.16,-16l0.89 -1.1c3.81,0.73 17.7,1.1 41.65,1.1l39.26 0c22.09,0 35.99,-0.37 41.68,-1.1l0.95 1.1zm268.08 150.88l-0.97 0.77c-9.82,-0.44 -19.65,-0.66 -29.46,-0.66 -10.03,0 -20.09,0.22 -30.24,0.66l-0.85 -0.77 -0.1 -7.52 0.95 -1.06c6.58,-0.44 10.39,-0.81 11.34,-1.1 1.89,-0.55 2.98,-1.88 3.31,-3.97 0.83,-5.17 1.26,-16.25 1.26,-33.3l0 -57.93c0,-21.09 -0.3,-32.46 -0.9,-34.19 -6.38,-0.66 -11.2,-0.95 -14.41,-0.95 -21.34,0 -31.99,9.21 -31.99,27.62 0,10.46 4.13,18.78 12.4,25.02 3.68,2.71 7.51,4.59 11.55,5.61 3.28,0.77 9.03,1.4 17.23,1.8l0.1 3.01c-6.08,9.46 -14.52,23.7 -25.3,42.66 -10.19,18.09 -16.57,29.75 -19.09,35.07 -6.25,-0.44 -12.21,-0.66 -17.82,-0.66 -4.34,0 -11.75,0.22 -22.3,0.66l-0.96 -0.77 0 -7.52 0.76 -1.06c7.77,-0.88 15.05,-5.98 21.83,-15.37 5.03,-8.4 10.09,-16.81 15.22,-25.28 6.45,-10.38 11.78,-19.07 15.98,-26.12l-0.71 -1.17c-10.45,-1.43 -19.11,-5.25 -25.96,-11.48 -7.74,-7.12 -11.61,-16.18 -11.61,-27.22 0,-13.17 4.97,-22.89 14.92,-29.13 7.88,-4.84 18.29,-7.3 31.19,-7.3 3.31,0 7.34,0.11 12.14,0.33 6.38,0.29 14.26,0.44 23.62,0.44 16.05,0 28.68,-0.22 37.9,-0.66l0.97 0.99 0 7.3 -1.07 1.07c-6.58,0.44 -10.38,0.8 -11.34,1.06 -1.85,0.59 -2.98,1.91 -3.31,4 -0.82,5.13 -1.25,16.25 -1.25,33.31l0 56.86c0,17.05 0.43,28.13 1.25,33.3 0.33,2.09 1.46,3.42 3.31,3.97 0.89,0.29 4.73,0.66 11.44,1.1l0.97 1.06 0 7.52zm348.7 0l-0.96 0.77c-12.14,-0.44 -18.26,-0.66 -18.33,-0.66l-15.41 0.33c-2.71,0.07 -4.67,-0.59 -5.88,-1.94 -3.98,-4.37 -8.84,-10.97 -14.66,-19.78l-29.18 -44.16c-2.71,-4.07 -4.76,-6.13 -6.18,-6.13 -0.46,0 -0.99,0.11 -1.65,0.33l0 24.29c0,17.05 0.42,28.13 1.25,33.3 0.34,2.09 1.43,3.42 3.31,3.97 1.03,0.29 4.63,0.66 10.85,1.1l0.95 1.06 0 7.52 -0.85 0.77c-17.96,-0.44 -27.68,-0.66 -29.17,-0.66 -2.02,0 -6.19,0.11 -12.51,0.33 -6.91,0.15 -12.31,0.26 -16.17,0.33l-0.9 -0.77 0 -7.52 0.99 -1.06c6.19,-0.44 9.83,-0.81 10.85,-1.1 1.89,-0.55 2.99,-1.88 3.31,-3.97 0.83,-5.17 1.26,-16.25 1.26,-33.3l0 -24.29c-0.66,-0.22 -1.22,-0.33 -1.66,-0.33 -1.42,0 -3.5,2.06 -6.21,6.13l-29.18 44.16c-5.79,8.81 -10.68,15.41 -14.61,19.78 -1.23,1.35 -3.21,2.01 -5.93,1.94l-15.38 -0.33c-1.35,0.07 -7.48,0.29 -18.32,0.66l-0.96 -0.77 0 -7.52 1.06 -1.17c4.06,-0.74 7.07,-1.54 8.99,-2.5 2.29,-0.99 7.58,-6.67 15.91,-17.06 9.04,-11.18 14.75,-18.48 17.13,-21.93l18.83 -26.67c4.76,-6.79 7.84,-11.26 9.2,-13.43 -3.61,-4.36 -10.46,-11.88 -20.54,-22.56l-5.53 -5.79c-3.05,-3.16 -7.71,-7.82 -13.96,-13.98 -6.84,-6.16 -14.82,-9.54 -23.95,-10.12l-0.66 -1.07 0 -6.75 0.96 -1.1c4.93,0.51 10.75,0.77 17.53,0.77 7.51,0 14.82,-0.22 21.9,-0.66l1.19 1.1 0 6.09 -1.09 0.99c-0.57,0.37 -0.87,0.96 -0.87,1.84 0,1.57 1.93,5.09 5.73,10.63 4.27,6.17 10.81,15.23 19.68,27.19 10.32,13.17 17.24,21.13 20.74,23.84l0 -23.95c0,-17.06 -0.43,-28.18 -1.26,-33.31 -0.32,-2.09 -1.42,-3.41 -3.31,-4 -1.02,-0.26 -4.66,-0.62 -10.85,-1.06l-0.99 -1.07 0 -7.3 1.09 -0.99c8.47,0.44 17.97,0.66 28.49,0.66 9.95,0 19.67,-0.22 29.17,-0.66l0.85 0.99 0 7.3 -0.95 1.07c-6.22,0.44 -9.82,0.8 -10.85,1.06 -1.88,0.59 -2.97,1.91 -3.31,4 -0.83,5.13 -1.25,16.25 -1.25,33.31l0 23.95c3.5,-2.71 10.41,-10.67 20.74,-23.84 4.6,-5.8 11.14,-14.86 19.67,-27.19 3.81,-5.54 5.73,-9.06 5.73,-10.63 0,-0.88 -0.3,-1.47 -0.89,-1.84l-1.06 -0.99 0 -6.09 1.15 -1.1c7.12,0.44 14.42,0.66 21.9,0.66 6.78,0 12.64,-0.26 17.56,-0.77l0.97 1.1 0 6.75 -0.7 1.07c-9.17,0.58 -17.36,4.18 -24.61,10.74 -3.54,3.3 -9.82,9.69 -18.79,19.15 -10.09,10.68 -16.93,18.2 -20.54,22.56 1.36,2.17 4.43,6.64 9.2,13.43l18.78 26.67c2.42,3.45 8.15,10.75 17.17,21.93 8.33,10.39 13.63,16.07 15.88,17.06 1.95,0.96 4.96,1.76 9.03,2.5l1.06 1.17 0 7.52zm290.38 -0.33l-0.99 1.1c-6.38,-0.44 -16.34,-0.66 -29.84,-0.66 -13.82,0 -23.77,0.22 -29.82,0.66l-1 -0.99 0 -7.3 1.06 -1.06c6.62,-0.44 10.39,-0.81 11.34,-1.1 1.89,-0.55 2.98,-1.88 3.31,-3.97 0.83,-5.17 1.25,-16.25 1.25,-33.3l0 -25.9c-3.3,-0.37 -13.76,-0.55 -31.38,-0.55 -16.28,0 -27.03,0.18 -32.18,0.55l0 25.9c0,17.05 0.43,28.13 1.25,33.3 0.33,2.09 1.42,3.42 3.31,3.97 0.96,0.29 4.73,0.66 11.34,1.1l0.97 1.06 0 7.19 -0.87 1.1c-6.48,-0.44 -16.44,-0.66 -29.86,-0.66 -13.9,0 -23.85,0.22 -29.84,0.66l-0.96 -0.99 0 -7.3 0.96 -1.06c6.58,-0.44 10.35,-0.81 11.34,-1.1 1.86,-0.55 2.95,-1.88 3.28,-3.97 0.86,-5.17 1.26,-16.25 1.26,-33.3l0 -56.86c0,-17.06 -0.4,-28.18 -1.26,-33.31 -0.33,-2.09 -1.42,-3.41 -3.28,-4 -0.99,-0.26 -4.76,-0.62 -11.34,-1.06l-0.96 -1.07 0 -7.3 0.96 -0.99c6.18,0.44 16.14,0.66 29.84,0.66 14.02,0 23.97,-0.22 29.86,-0.66l0.87 0.99 0 7.41 -0.97 0.96c-6.61,0.44 -10.38,0.8 -11.34,1.06 -1.89,0.59 -2.98,1.91 -3.31,4 -0.82,5.13 -1.25,16.25 -1.25,33.31l0 17.71c6.84,0.37 16.27,0.55 28.31,0.55 18.85,0 30.59,-0.18 35.25,-0.55l0 -17.71c0,-17.06 -0.42,-28.18 -1.25,-33.31 -0.33,-2.09 -1.42,-3.41 -3.31,-4 -0.95,-0.26 -4.72,-0.62 -11.34,-1.06l-1.06 -1.07 0 -7.3 1 -0.99c6.24,0.44 16.2,0.66 29.82,0.66 14.1,0 24.05,-0.22 29.84,-0.66l0.99 0.99 0 7.41 -0.89 0.96c-6.71,0.44 -10.51,0.8 -11.41,1.06 -1.88,0.59 -2.97,1.91 -3.31,4 -0.85,5.13 -1.25,16.25 -1.25,33.31l0 56.86c0,17.05 0.4,28.13 1.25,33.3 0.34,2.09 1.43,3.42 3.31,3.97 0.96,0.29 4.73,0.66 11.31,1.1l0.99 1.06 0 7.19zm311.17 0l-0.87 1.1c-6.44,-0.44 -16.43,-0.66 -29.92,-0.66 -13.44,0 -23.39,0.22 -29.88,0.66l-0.85 -1.1 0 -7.19 0.95 -1.06c6.62,-0.44 10.39,-0.81 11.35,-1.1 1.88,-0.55 2.97,-1.88 3.3,-3.97 0.83,-5.17 1.26,-16.25 1.26,-33.3l0 -56.86c0,-17.06 -0.43,-28.18 -1.26,-33.31 -0.33,-2.09 -1.42,-3.41 -3.3,-4 -0.96,-0.26 -4.73,-0.62 -11.35,-1.06l-0.95 -1.07 0 -7.3 0.95 -0.99c6.22,0.44 16.18,0.66 29.87,0.66 13.63,0 23.55,-0.22 29.73,-0.66l0.97 0.99 0 7.3 -0.97 1.07c-6.58,0.44 -10.35,0.8 -11.34,1.06 -1.85,0.59 -2.94,1.91 -3.27,4 -0.86,5.13 -1.26,16.25 -1.26,33.31l0 56.86c0,17.05 0.4,28.13 1.26,33.3 0.33,2.09 1.42,3.42 3.27,3.97 0.99,0.29 4.76,0.66 11.34,1.1l0.97 1.06 0 7.19zm-58.12 -45.78c0,15.77 -5.72,27.84 -17.16,36.24 -9.77,7.23 -22.17,10.82 -37.22,10.82 -3.04,0 -8.93,-0.14 -17.72,-0.51 -5.3,-0.22 -9.77,-0.33 -13.38,-0.33 -2.54,0 -12.23,0.22 -29.17,0.66l-0.95 -0.77 0 -7.52 1.05 -1.06c5.76,-0.37 9.2,-0.74 10.35,-1.1 1.89,-0.55 2.98,-1.88 3.31,-3.97 0.83,-5.17 1.26,-16.25 1.26,-33.3l0 -56.86c0,-17.06 -0.43,-28.18 -1.26,-33.31 -0.33,-2.09 -1.42,-3.41 -3.31,-4 -1.09,-0.33 -4.56,-0.7 -10.45,-1.06l-0.95 -1.07 0 -7.3 0.95 -0.99c5.56,0.44 15.12,0.66 28.68,0.66 7.05,0 17.07,-0.22 30.03,-0.66l1 0.99 0 7.3 -1 1.07c-6.58,0.44 -10.35,0.8 -11.34,1.06 -1.85,0.59 -2.94,1.91 -3.27,4 -0.86,5.13 -1.26,16.25 -1.26,33.31l0 17.31c17.63,0 30.3,0.73 37.97,2.24 22.56,4.44 33.84,17.17 33.84,38.15zm-29.27 2.05c0,-10.23 -2.72,-18.12 -8.14,-23.66 -4.87,-4.84 -11.18,-7.48 -18.99,-7.85 -3.24,-0.11 -8.36,-0.18 -15.41,-0.18l0 64.34c3.04,0.52 6.71,0.77 11.05,0.77 7.34,0 12.69,-0.66 16.08,-1.94 4.86,-1.91 8.72,-5.8 11.64,-11.59 2.51,-5.1 3.77,-11.71 3.77,-19.89zm331.53 8.26c-1.42,10.49 -2.12,22.3 -2.12,35.47l-0.99 1.1 -70.42 -0.66c-11.78,0 -20.07,0.22 -24.91,0.66l-0.99 -1.1 0 -3.01 0.5 -1.28c4.76,-3.38 7.37,-5.47 7.73,-6.35 0.6,-1.36 0.97,-6.12 1.1,-14.27l0.27 -24.1 0 -54.47c0,-17.06 -0.4,-28.18 -1.27,-33.31 -0.32,-2.09 -1.41,-3.41 -3.27,-4 -0.99,-0.26 -4.76,-0.62 -11.34,-1.06l-0.96 -1.07 0 -7.3 0.96 -0.99c6.52,0.44 16.61,0.66 30.23,0.66 12.14,0 35.23,-0.22 69.3,-0.66l1.05 0.88 -1.25 11.92c-0.4,3.78 -0.7,7.01 -0.9,9.65l-0.65 10.02 -0.97 1.17 -5.62 0 -0.99 -1.06c-0.07,-9.76 -0.57,-15.3 -1.56,-16.66 -0.69,-1.03 -4.16,-1.8 -10.39,-2.38 -6.24,-0.55 -11.7,-0.85 -16.43,-0.85 -5.62,0 -11.31,0.26 -17.07,0.74 -0.7,7.52 -1.06,17.97 -1.06,31.29l0 22.23c5.1,0.37 9.23,0.55 12.41,0.55l12.7 -0.11c5.95,-0.07 9.29,-0.59 10.09,-1.62 1.02,-1.28 1.68,-6.12 2.02,-14.49l0.95 -1.1 6.02 0 0.96 1.1c-0.23,8 -0.36,15.37 -0.36,22.01 0,7.27 0.13,15.15 0.36,23.78l-0.96 0.95 -6.48 0 -0.99 -1.06c0,-8.26 -0.5,-13.14 -1.52,-14.68 -1.06,-1.54 -4.17,-2.57 -9.43,-3.08 -3.94,-0.33 -8.14,-0.51 -12.57,-0.51 -4.73,0 -9.13,0.18 -13.2,0.51l0 32.8c0,9.39 0.17,18.48 0.5,27.29l13.16 0c18.89,0 30.44,-0.81 34.7,-2.46 0.73,-0.29 1.23,-0.7 1.55,-1.21 0.63,-0.99 1.26,-3.12 1.86,-6.42l2.32 -13.35 0.95 -1.18 5.93 0 1.05 1.07zm437.48 35.8l-1 0.77c-13.37,-0.44 -23.32,-0.66 -29.83,-0.66 -13.96,0 -23.92,0.22 -29.84,0.66l-0.89 -0.99 -0.1 -7.3 0.99 -1.06c6.58,-0.44 10.35,-0.81 11.31,-1.1 1.88,-0.55 2.98,-1.88 3.31,-3.97 0.83,-5.17 1.26,-16.25 1.26,-33.3l0 -57.82c0,-14.49 -0.3,-26.19 -0.87,-35.14l-58.8 0c-0.6,8.95 -0.9,20.65 -0.9,35.14l0 57.82c0,17.05 0.44,28.13 1.26,33.3 0.33,2.09 1.42,3.42 3.31,3.97 0.96,0.29 4.69,0.66 11.24,1.1l1.06 1.06 0 7.3 -0.86 0.99c-13.66,-0.44 -23.58,-0.66 -29.87,-0.66 -10.32,0 -20.3,0.22 -29.93,0.66l-0.86 -0.99 0 -7.3 0.96 -1.06c6.58,-0.44 10.35,-0.81 11.34,-1.1 1.86,-0.55 2.95,-1.88 3.27,-3.97 0.87,-5.17 1.27,-16.25 1.27,-33.3l0 -56.86c0,-17.06 -0.4,-28.18 -1.27,-33.31 -0.32,-2.09 -1.41,-3.41 -3.27,-4 -0.99,-0.26 -4.76,-0.62 -11.34,-1.06l-0.96 -1.07 0 -7.3 0.96 -0.99 52.72 0.66 54.44 0c7.68,0 21.35,-0.22 40.89,-0.66l1 0.99 0 7.3 -1.1 1.07c-6.59,0.44 -10.35,0.8 -11.31,1.06 -1.89,0.59 -2.98,1.91 -3.31,4 -0.83,5.13 -1.25,16.25 -1.25,33.31l0 56.86c0,17.05 0.42,28.13 1.25,33.3 0.33,2.09 1.42,3.42 3.31,3.97 0.89,0.29 4.7,0.66 11.41,1.1l1 1.06 0 7.52zm287.45 -79.31c0,26.45 -6.95,47.18 -20.85,62.22 -13.49,14.63 -31.95,21.93 -55.34,21.93 -22.09,0 -39.42,-6.89 -52.02,-20.69 -12.61,-13.79 -18.92,-32.98 -18.92,-57.55 0,-34.45 11.87,-58.33 35.59,-71.57 10.78,-6.02 24.05,-9.03 39.83,-9.03 22.52,0 40.09,6.53 52.62,19.67 12.7,13.31 19.09,31.65 19.09,55.02zm-29.88 5.58c0,-20.77 -3.73,-37.27 -11.28,-49.49 -7.53,-12.21 -18.55,-18.3 -33.07,-18.3 -19.22,0 -31.92,9.53 -38.2,28.68 -3.21,9.8 -4.84,20.8 -4.84,32.98 0,22.16 3.67,39.62 11.06,52.46 7.6,13.24 19.01,19.88 34.2,19.88 18.42,0 30.79,-10.05 37.1,-30.19 3.38,-10.68 5.03,-22.67 5.03,-36.02zm292.41 -77.15c-0.8,5.28 -1.19,10.79 -1.26,16.44l-0.2 17.93 -0.95 1.1 -6.12 0 -1.06 -0.99c-0.33,-9.17 -0.69,-14.52 -1.06,-16.1 -0.8,-2.86 -2.84,-4.55 -6.22,-5.06 -1.28,-0.22 -7.37,-0.33 -18.23,-0.33l-12.96 0c-0.13,2.53 -0.2,12.47 -0.2,29.89l0 61.05c0,17.05 0.43,28.13 1.26,33.3 0.32,2.09 1.42,3.42 3.31,3.97 0.95,0.29 4.72,0.66 11.31,1.1l0.99 1.06 0 7.19 -0.99 1.1c-6.39,-0.44 -16.34,-0.66 -29.84,-0.66 -13.82,0 -23.78,0.22 -29.84,0.66l-0.89 -0.99 0 -7.3 1 -1.06c6.58,-0.44 10.35,-0.81 11.31,-1.1 1.88,-0.55 2.97,-1.88 3.31,-3.97 0.83,-5.17 1.25,-16.25 1.25,-33.3l0 -61.05c0,-17.71 -0.1,-27.66 -0.3,-29.89l-13.86 0c-11.54,0 -18.28,0.4 -20.24,1.21 -1.02,0.4 -1.75,0.95 -2.12,1.58 -0.59,1.17 -1.09,3.44 -1.45,6.89 -0.46,3.78 -0.76,7.71 -0.89,11.7l-0.96 1.1 -6.12 0 -1.06 -1.1 -0.19 -18.37c-0.08,-5.14 -0.44,-10.5 -1.17,-16l0.9 -1.1c3.8,0.73 17.7,1.1 41.64,1.1l39.26 0c22.1,0 35.99,-0.37 41.68,-1.1l0.96 1.1zm285.24 71.57c0,26.45 -6.95,47.18 -20.85,62.22 -13.49,14.63 -31.95,21.93 -55.34,21.93 -22.09,0 -39.42,-6.89 -52.02,-20.69 -12.61,-13.79 -18.92,-32.98 -18.92,-57.55 0,-34.45 11.87,-58.33 35.59,-71.57 10.78,-6.02 24.05,-9.03 39.83,-9.03 22.52,0 40.09,6.53 52.62,19.67 12.7,13.31 19.09,31.65 19.09,55.02zm-29.87 5.58c0,-20.77 -3.74,-37.27 -11.29,-49.49 -7.53,-12.21 -18.55,-18.3 -33.07,-18.3 -19.22,0 -31.92,9.53 -38.2,28.68 -3.21,9.8 -4.84,20.8 -4.84,32.98 0,22.16 3.67,39.62 11.06,52.46 7.6,13.24 19.01,19.88 34.2,19.88 18.42,0 30.79,-10.05 37.1,-30.19 3.39,-10.68 5.04,-22.67 5.04,-36.02zm308.77 73.73l-0.86 0.77c-11.11,-0.44 -21.39,-0.66 -30.82,-0.66 -13.57,0 -23.26,0.22 -29.07,0.66l-0.87 -0.77 0 -7.52 0.96 -1.06c6.59,-0.44 10.36,-0.81 11.35,-1.1 1.85,-0.55 2.97,-1.88 3.27,-3.97 0.86,-5.17 1.25,-16.25 1.25,-33.3l0 -36.32 -0.36 -52.68 -2.34 -0.11c-3.41,6.16 -8.38,15.3 -14.92,27.4l-17.24 31.92c-13.95,25.86 -22.82,43.65 -26.56,53.3 -1.61,4.25 -2.42,7.04 -2.42,8.4 0,2.42 1.92,4.11 5.83,5.06 2.78,0.63 5.43,1.1 7.94,1.4l0.96 1.06 0 7.52 -0.96 0.77c-9.43,-0.44 -18.23,-0.66 -26.36,-0.66 -4.34,0 -11.48,0.22 -21.41,0.66l-0.99 -0.77 0 -7.52 0.99 -1.06 6.19 -1.29c1.89,-0.44 3.41,-0.99 4.57,-1.61 1.98,-1.18 4.99,-4.92 8.99,-11.3 8.01,-12.84 14.56,-23.62 19.58,-32.36l45.15 -79.08c0.53,-0.96 0.83,-1.62 0.89,-2.06 0,-1.72 -8.63,-3.7 -25.89,-6.01l-0.96 -0.96 0 -7.63 0.96 -0.66c3.11,0.22 14.39,0.44 33.84,0.66 15.54,0.15 26.23,-0.07 31.98,-0.66l1.25 0.88c-0.06,2.28 -0.19,9.54 -0.39,21.79 -0.33,17.94 -0.5,33.13 -0.5,45.6l0.1 36.32c0,17.05 0.43,28.13 1.26,33.3 0.34,2.09 1.43,3.42 3.31,3.97 0.96,0.29 4.73,0.66 11.35,1.1l0.95 1.06 0 7.52zm278.96 -0.44l-1.07 1.32c-9.62,-0.51 -15.24,-0.77 -16.87,-0.77 -3.17,0 -6.05,0.07 -8.63,0.22 -3.8,0.22 -6.22,0.33 -7.27,0.33 -2.12,0 -3.94,-0.66 -5.43,-1.94 -3.61,-3.09 -8.23,-8.15 -13.86,-15.15l-45.15 -56.02 0 25.5c0,17.05 0.44,28.13 1.26,33.3 0.33,2.09 1.42,3.42 3.31,3.97 0.96,0.29 4.73,0.66 11.34,1.1l0.96 1.06 0 7.19 -0.86 1.1c-6.49,-0.44 -16.44,-0.66 -29.87,-0.66 -13.89,0 -23.85,0.22 -29.83,0.66l-0.96 -0.99 0 -7.3 0.96 -1.06c6.58,-0.44 10.35,-0.81 11.34,-1.1 1.86,-0.55 2.95,-1.88 3.27,-3.97 0.87,-5.17 1.27,-16.25 1.27,-33.3l0 -56.86c0,-17.06 -0.4,-28.18 -1.27,-33.31 -0.32,-2.09 -1.41,-3.41 -3.27,-4 -0.99,-0.26 -4.76,-0.62 -11.34,-1.06l-0.96 -1.07 0 -7.3 0.96 -0.99c6.18,0.44 16.14,0.66 29.83,0.66 14.03,0 23.98,-0.22 29.87,-0.66l0.86 0.99 0 7.3 -0.96 1.07c-6.61,0.44 -10.38,0.8 -11.34,1.06 -1.89,0.59 -2.98,1.91 -3.31,4 -0.82,5.13 -1.26,16.25 -1.26,33.31l0 26.66c3.18,-3.66 10.09,-11.51 20.74,-23.55 5.63,-6.38 9.6,-11 11.91,-13.86 6.35,-7.82 10.58,-13.24 12.7,-16.33 3.51,-5.02 5.23,-8.58 5.23,-10.63 0,-0.88 -0.27,-1.47 -0.87,-1.84l-1.05 -0.99 0 -6.09 1.15 -1.1c7.12,0.44 13.76,0.66 19.95,0.66 4.27,0 10.62,-0.22 19.02,-0.66l1.06 1.1 0 7.19 -0.96 0.96c-6.98,0.29 -12.14,1.24 -15.42,2.89 -2.71,1.36 -6.97,4.81 -12.79,10.31 -6.46,6.13 -14.79,14.6 -25.01,25.5 -3.8,4.14 -8.89,9.61 -15.31,16.32l55.43 63.83c7.64,8.84 14.82,13.9 21.6,15.26l0.9 1.1 0 6.64zm283.97 0.44l-1 0.77c-13.36,-0.44 -23.45,-0.66 -30.23,-0.66 -13.83,0 -23.68,0.22 -29.63,0.66l-0.9 -0.99 0 -7.3 0.99 -1.06c6.71,-0.44 10.52,-0.81 11.41,-1.1 1.89,-0.55 2.99,-1.88 3.31,-3.97 0.83,-5.17 1.26,-16.25 1.26,-33.3l0 -79.31 -60.56 127.03c-6.65,-0.29 -12.87,-0.44 -18.6,-0.44 -3.63,0 -12,0.15 -25.1,0.44l-0.96 -0.99 0 -7.3 0.96 -1.06c6.58,-0.44 10.35,-0.81 11.34,-1.1 1.86,-0.55 2.95,-1.88 3.28,-3.97 0.86,-5.17 1.26,-16.25 1.26,-33.3l0 -56.86c0,-17.06 -0.4,-28.18 -1.26,-33.31 -0.33,-2.09 -1.42,-3.41 -3.28,-4 -0.99,-0.26 -4.76,-0.62 -11.34,-1.06l-0.96 -1.07 0 -7.3 0.86 -0.99c10.03,0.44 19.98,0.66 29.94,0.66 6.58,0 16.53,-0.22 29.86,-0.66l0.87 0.99 0 7.3 -0.97 1.07c-6.61,0.44 -10.38,0.8 -11.34,1.06 -1.89,0.59 -2.98,1.91 -3.31,4 -0.82,5.13 -1.25,16.25 -1.25,33.31l0 80.92 60.56 -128.65c8.47,0.44 14.22,0.66 17.26,0.66 2.19,0 11.06,-0.22 26.53,-0.66l1 0.99 0 7.3 -1.1 1.07c-6.58,0.44 -10.35,0.8 -11.31,1.06 -1.88,0.59 -2.97,1.91 -3.31,4 -0.83,5.13 -1.25,16.25 -1.25,33.31l0 56.86c0,17.05 0.42,28.13 1.25,33.3 0.34,2.09 1.43,3.42 3.31,3.97 0.89,0.29 4.7,0.66 11.41,1.1l1 1.06 0 7.52z"/>
   </g>
  </g>
 </g>
</svg>
