<svg viewBox="0 0 7879 1948" width="162" height="40" fill="none" xmlns="http://www.w3.org/2000/svg">
<path d="M6693.52 1431.85C6714.05 1431.85 6730.47 1431.73 6742.77 1431.53C6755.08 1431.33 6764.63 1431.02 6771.4 1430.61C6778.17 1430.21 6782.99 1429.79 6785.87 1429.38C6788.74 1428.97 6791 1428.56 6792.64 1428.15C6795.92 1427.33 6798.69 1427.13 6800.95 1427.53C6803.21 1427.94 6804.33 1430.61 6804.33 1435.53C6804.33 1444.98 6804.75 1453.29 6805.56 1460.47C6806.39 1467.65 6806.79 1474.11 6806.79 1479.86C6806.79 1483.56 6805.46 1485.5 6802.8 1485.71C6800.13 1485.91 6797.77 1484.99 6795.72 1482.94C6792.02 1478.42 6787.4 1474.62 6781.87 1471.55C6776.33 1468.47 6770.49 1465.9 6764.32 1463.85C6758.16 1461.81 6752.01 1460.17 6745.85 1458.92C6739.7 1457.69 6733.95 1456.67 6728.62 1455.84C6725.34 1455.03 6721.02 1454.42 6715.7 1454C6710.35 1453.59 6704.92 1453.29 6699.38 1453.08C6693.84 1452.88 6688.82 1452.88 6684.3 1453.08C6679.77 1453.29 6676.91 1453.38 6675.68 1453.38C6668.7 1454.21 6665.11 1457.18 6664.9 1462.31C6664.7 1467.45 6664.4 1473.09 6663.99 1479.24V1782.11C6663.99 1800.98 6664.4 1816.68 6665.22 1829.2C6666.03 1841.72 6667.26 1851.87 6668.91 1859.67C6670.55 1867.48 6672.5 1873.42 6674.75 1877.53C6677.01 1881.63 6679.57 1884.71 6682.45 1886.77C6686.96 1889.63 6688.6 1892.3 6687.37 1894.76C6686.14 1897.22 6682.66 1898.25 6676.91 1897.84C6672.39 1897.01 6666.54 1896.51 6659.47 1896.3C6652.39 1896.1 6645.92 1895.99 6640.29 1895.99C6634.64 1895.99 6628.07 1896.1 6620.79 1896.3C6613.51 1896.51 6607.55 1897.01 6603.04 1897.84C6597.7 1898.25 6594.42 1897.22 6593.19 1894.76C6591.96 1892.3 6593.4 1889.63 6597.5 1886.77C6600.78 1884.71 6603.65 1881.73 6606.11 1877.83C6608.57 1873.93 6610.53 1868.2 6611.97 1860.6C6613.41 1853.01 6614.53 1843.16 6615.35 1831.05C6616.17 1818.95 6616.59 1803.46 6616.59 1784.57C6616.59 1771.44 6616.59 1755.13 6616.59 1735.63C6616.59 1716.15 6616.67 1695.52 6616.89 1673.78C6617.1 1652.02 6617.2 1630.17 6617.2 1608.21C6617.2 1586.25 6617.29 1566.13 6617.51 1547.88C6617.71 1529.61 6617.82 1514.34 6617.82 1502.01C6617.82 1489.71 6617.82 1482.32 6617.82 1479.86C6617.39 1473.29 6616.67 1467.23 6615.65 1461.7C6614.63 1456.16 6611.86 1453.38 6607.34 1453.38C6605.71 1453.38 6602.42 1453.38 6597.5 1453.38C6592.57 1453.38 6587.14 1453.38 6581.18 1453.38C6575.23 1453.38 6569.38 1453.59 6563.64 1454C6557.9 1454.42 6553.38 1455.03 6550.09 1455.84C6544.77 1456.67 6539.02 1457.6 6532.86 1458.62C6526.7 1459.64 6520.66 1461.08 6514.7 1462.93C6508.75 1464.77 6503 1467.34 6497.46 1470.63C6491.93 1473.9 6487.09 1478.02 6482.99 1482.94C6480.94 1484.99 6478.59 1485.91 6475.92 1485.71C6473.26 1485.5 6471.92 1483.56 6471.92 1479.86C6471.92 1474.11 6472.33 1467.65 6473.15 1460.47C6473.96 1453.29 6474.38 1444.98 6474.38 1435.53C6474.38 1430.61 6475.51 1427.94 6477.76 1427.53C6480.03 1427.13 6482.79 1427.33 6486.07 1428.15C6487.71 1428.56 6489.98 1428.97 6492.85 1429.38C6495.72 1429.79 6500.54 1430.21 6507.32 1430.61C6514.09 1431.02 6523.63 1431.33 6535.94 1431.53C6548.25 1431.73 6564.66 1431.85 6585.19 1431.85H6693.52V1431.85Z" fill="#FF5200"/>
<path d="M6133.22 1898.46C6131.57 1898.46 6129.11 1898.25 6125.83 1897.84C6122.55 1897.44 6119.05 1897.12 6115.36 1896.92C6111.66 1896.72 6108.08 1896.4 6104.6 1895.99C6101.1 1895.59 6098.13 1895.38 6095.67 1895.38C6094.03 1895.38 6091.25 1895.48 6087.35 1895.68C6083.46 1895.89 6079.35 1896.1 6075.04 1896.3C6070.73 1896.51 6066.42 1896.82 6062.11 1897.22C6057.81 1897.63 6054.01 1898.05 6050.72 1898.46C6044.98 1899.28 6041.6 1898.35 6040.56 1895.68C6039.54 1893.02 6041.08 1890.25 6045.18 1887.37C6048.47 1885.32 6051.24 1882.45 6053.5 1878.76C6055.75 1875.07 6057.71 1869.42 6059.34 1861.83C6060.99 1854.23 6062.11 1844.39 6062.73 1832.28C6063.35 1820.17 6063.65 1804.68 6063.65 1785.81C6063.65 1773.08 6063.65 1756.97 6063.65 1737.48C6063.65 1717.99 6063.65 1697.26 6063.65 1675.3C6063.65 1653.34 6063.55 1631.09 6063.35 1608.51C6063.13 1585.95 6063.03 1565.33 6063.03 1546.66C6063.03 1527.98 6063.03 1512.28 6063.03 1499.55C6063.03 1486.84 6063.03 1479.24 6063.03 1476.78C6062.22 1464.88 6060.17 1456.37 6056.88 1451.24C6053.6 1446.1 6050.72 1442.52 6048.26 1440.46C6045.4 1438 6044.36 1435.53 6045.18 1433.07C6046.01 1430.61 6048.06 1429.38 6051.34 1429.38C6057.09 1429.38 6064.77 1429.79 6074.42 1430.61C6084.07 1431.43 6094.64 1431.63 6106.12 1431.23C6109.82 1431.23 6117.11 1431.02 6127.98 1430.61C6138.86 1430.21 6150.96 1429.99 6164.3 1429.99C6177.64 1429.99 6190.87 1430.61 6204 1431.85C6217.14 1433.07 6228.02 1435.53 6236.64 1439.23C6244.85 1442.52 6252.94 1447.34 6260.95 1453.7C6268.96 1460.06 6276.24 1467.65 6282.81 1476.47C6289.37 1485.3 6294.6 1495.35 6298.49 1506.64C6302.4 1517.92 6304.34 1530.13 6304.34 1543.26C6304.76 1563.37 6302.1 1580.6 6296.34 1594.97C6290.59 1609.34 6282.81 1621.64 6272.94 1631.91C6264.75 1640.12 6255.41 1647.08 6244.94 1652.84C6234.48 1658.59 6223.29 1663.51 6211.39 1667.62C6212.22 1668.02 6216.73 1674.58 6224.93 1687.31C6233.14 1700.04 6243.6 1715.83 6256.33 1734.71C6269.06 1753.59 6283 1774 6298.19 1795.96C6313.38 1817.91 6328.15 1838.54 6342.52 1857.83C6347.44 1864.8 6353.28 1870.34 6360.06 1874.45C6366.84 1878.55 6373.71 1881.01 6380.67 1881.84C6385.19 1881.84 6387.65 1883.99 6388.07 1888.29C6388.47 1892.61 6386.23 1895.17 6381.29 1895.99C6375.55 1896.82 6369.3 1897.54 6362.52 1898.16C6355.75 1898.76 6347.44 1898.86 6337.59 1898.46C6327.73 1898.05 6318.09 1895.68 6308.66 1891.37C6299.21 1887.07 6289.15 1876.7 6278.48 1860.29C6275.21 1854.55 6269.98 1845.92 6262.8 1834.44C6255.61 1822.94 6247.71 1810.32 6239.1 1796.58C6230.48 1782.83 6221.45 1768.58 6212 1753.79C6202.57 1739.02 6193.95 1725.59 6186.15 1713.48C6178.36 1701.36 6171.9 1691.32 6166.76 1683.3C6161.63 1675.3 6158.86 1670.89 6158.45 1670.08C6157.22 1668.02 6156.81 1666.07 6157.22 1664.23C6157.63 1662.38 6159.69 1661.05 6163.37 1660.22C6165.43 1659.81 6167.17 1659.51 6168.61 1659.31C6170.06 1659.09 6171.58 1658.99 6173.22 1658.99C6197.44 1654.06 6215.91 1644.22 6228.64 1629.45C6237.66 1619.18 6244.13 1607.08 6248.02 1593.13C6251.92 1579.16 6253.66 1563.99 6253.25 1547.57C6252.85 1529.11 6249.45 1513.62 6243.1 1501.1C6236.74 1488.58 6228.21 1478.22 6217.55 1470.01C6208.52 1463.03 6198.26 1457.9 6186.77 1454.62C6175.28 1451.34 6163.58 1449.69 6151.68 1449.69C6147.16 1449.69 6142.56 1449.8 6137.83 1450C6133.11 1450.2 6128.81 1450.72 6124.91 1451.54C6121 1452.36 6117.62 1453.59 6114.74 1455.23C6111.88 1456.88 6110.24 1459.34 6109.82 1462.63C6109.82 1520.9 6109.82 1570.55 6109.82 1611.59C6109.82 1652.63 6109.92 1686.69 6110.14 1713.78C6110.33 1740.86 6110.44 1762.11 6110.44 1777.5C6110.44 1792.87 6110.44 1804.08 6110.44 1811.04C6110.85 1823.36 6112.08 1833.92 6114.12 1842.74C6116.18 1851.57 6118.64 1859.05 6121.51 1865.21C6124.39 1871.38 6127.37 1876.2 6130.44 1879.68C6133.52 1883.17 6136.3 1885.73 6138.76 1887.37C6142.86 1890.25 6144.4 1893.02 6143.36 1895.68C6142.34 1898.35 6138.95 1899.28 6133.22 1898.46V1898.46Z" fill="#FF5200"/>
<path d="M5578.73 1428.77C5607.47 1424.66 5637.32 1425.07 5668.3 1429.99C5699.28 1434.92 5728.32 1444.98 5755.4 1460.17C5782.49 1475.34 5805.78 1495.86 5825.28 1521.72C5844.77 1547.57 5857.38 1579.38 5863.13 1617.14C5869.28 1657.76 5867.44 1694.59 5857.59 1727.63C5847.74 1760.67 5832.97 1789.29 5813.27 1813.5C5793.58 1837.72 5770.28 1857.21 5743.4 1871.99C5716.51 1886.77 5689.12 1895.99 5661.22 1899.68C5643.57 1902.15 5625 1902.86 5605.51 1901.84C5586.01 1900.81 5566.72 1897.63 5547.65 1892.3C5528.56 1886.96 5509.99 1879.17 5491.93 1868.9C5473.88 1858.65 5457.57 1845.62 5442.98 1829.81C5428.43 1814.03 5415.91 1795.25 5405.44 1773.5C5394.98 1751.75 5387.69 1726.51 5383.59 1697.77C5378.25 1661.66 5380.31 1628.01 5389.75 1596.81C5399.18 1565.63 5413.34 1538.23 5432.22 1514.64C5451.09 1491.04 5473.37 1471.75 5499.02 1456.77C5524.65 1441.8 5551.23 1432.45 5578.73 1428.77V1428.77ZM5439.61 1691.62C5443.71 1721.99 5452.75 1749.38 5466.69 1773.8C5480.65 1798.22 5497.68 1818.53 5517.78 1834.74C5537.9 1850.95 5560.26 1862.66 5584.89 1869.84C5609.51 1877 5634.34 1878.76 5659.37 1875.07C5680.71 1871.78 5701.44 1863.27 5721.54 1849.53C5741.65 1835.78 5758.8 1817.91 5772.95 1795.96C5787.11 1774 5797.47 1748.76 5804.03 1720.24C5810.59 1691.73 5811.01 1661.05 5805.27 1628.21C5799.94 1597.85 5789.88 1571.06 5775.1 1547.88C5760.32 1524.69 5742.99 1505.71 5723.09 1490.94C5703.18 1476.16 5681.63 1465.6 5658.46 1459.23C5635.26 1452.88 5612.59 1451.34 5590.43 1454.62C5565.8 1458.3 5543.33 1466.63 5523.02 1479.54C5502.71 1492.49 5485.57 1509.2 5471.62 1529.73C5457.67 1550.24 5447.71 1574.15 5441.76 1601.44C5435.82 1628.73 5435.09 1658.79 5439.61 1691.62V1691.62Z" fill="#FF5200"/>
<path d="M5211.5 1661.45C5211.5 1666.79 5210.38 1669.87 5208.12 1670.7C5205.86 1671.51 5203.1 1670.48 5199.8 1667.62C5195.29 1664.33 5188.31 1661.45 5178.88 1658.99C5169.44 1656.53 5160.61 1655.51 5152.41 1655.91C5146.66 1655.91 5139.78 1656.01 5131.78 1656.23C5123.78 1656.42 5115.68 1656.53 5107.46 1656.53C5099.25 1656.53 5091.57 1656.53 5084.38 1656.53C5077.2 1656.53 5071.76 1656.53 5068.07 1656.53C5064.79 1656.95 5062.42 1657.86 5060.99 1659.31C5059.55 1660.74 5058.63 1662.27 5058.22 1663.91C5058.22 1664.33 5058.22 1668.43 5058.22 1676.24C5058.22 1684.02 5058.22 1693.97 5058.22 1706.08C5058.22 1718.19 5058.33 1731.53 5058.53 1746.1C5058.73 1760.67 5058.93 1774.92 5059.15 1788.89C5059.35 1802.84 5059.55 1815.56 5059.77 1827.05C5059.96 1838.54 5060.27 1847.16 5060.68 1852.9C5061.91 1863.57 5063.97 1871.38 5066.83 1876.3C5069.72 1881.23 5072.99 1884.91 5076.7 1887.37C5080.79 1890.25 5082.23 1892.92 5081 1895.38C5079.77 1897.84 5076.48 1898.86 5071.14 1898.46C5066.64 1897.63 5060.68 1897.12 5053.29 1896.92C5045.91 1896.72 5039.33 1896.61 5033.6 1896.61C5032.77 1896.61 5030.72 1896.72 5027.45 1896.92C5024.16 1897.12 5020.47 1897.22 5016.36 1897.22C5012.26 1897.22 5008.46 1897.33 5004.98 1897.54C5001.48 1897.74 4999.13 1897.84 4997.89 1897.84C4992.15 1898.25 4988.77 1897.22 4987.73 1894.76C4986.71 1892.3 4988.24 1889.63 4992.35 1886.77C4995.64 1884.71 4998.41 1881.73 5000.67 1877.83C5002.92 1873.93 5004.77 1868.2 5006.2 1860.6C5007.63 1853.01 5008.78 1843.16 5009.58 1831.05C5010.41 1818.95 5010.82 1803.46 5010.82 1784.57V1476.16C5010 1464.27 5007.84 1455.84 5004.36 1450.92C5000.87 1446 4997.69 1442.52 4994.81 1440.46C4991.95 1438 4991.02 1435.43 4992.04 1432.76C4993.07 1430.11 4995.22 1428.77 4998.51 1428.77C5004.26 1428.77 5011.85 1429.07 5021.28 1429.68C5030.72 1430.3 5041.39 1430.82 5053.29 1431.23C5061.1 1431.23 5069.82 1431.23 5079.46 1431.23C5089.11 1431.23 5098.75 1431.33 5108.4 1431.53C5118.03 1431.73 5127.07 1431.85 5135.47 1431.85C5143.89 1431.85 5150.77 1431.85 5156.09 1431.85C5192.21 1431.85 5214.79 1430.82 5223.81 1428.77C5227.09 1427.94 5229.87 1427.75 5232.12 1428.15C5234.37 1428.56 5235.52 1431.23 5235.52 1436.15C5235.52 1445.59 5234.99 1453.91 5233.97 1461.08C5232.94 1468.26 5232.44 1474.73 5232.44 1480.48C5232.44 1484.16 5231 1486.22 5228.11 1486.63C5225.25 1487.04 5222.99 1485.8 5221.35 1482.94C5216.84 1475.55 5209.54 1469.59 5199.49 1465.09C5189.45 1460.57 5178.56 1457.18 5166.87 1454.93C5155.18 1452.67 5143.28 1451.24 5131.17 1450.62C5119.07 1450 5108.7 1449.69 5100.08 1449.69C5089.41 1449.69 5079.86 1450.41 5071.46 1451.85C5063.03 1453.29 5058.63 1457.08 5058.22 1463.25V1619.6C5058.22 1622.47 5059.35 1624.93 5061.61 1626.99C5063.87 1629.03 5067.66 1630.07 5072.99 1630.07C5076.28 1630.07 5083.36 1630.07 5094.23 1630.07C5105.11 1630.07 5116.7 1629.96 5129.02 1629.75C5141.32 1629.55 5152.92 1629.45 5163.8 1629.45C5174.66 1629.45 5181.75 1629.45 5185.03 1629.45C5188.31 1629.03 5190.98 1628.83 5193.03 1628.83C5195.09 1628.83 5197.55 1628.63 5200.42 1628.21C5207.8 1626.16 5211.5 1628.01 5211.5 1633.76V1661.45V1661.45Z" fill="#FF5200"/>
<path d="M4715.75 1436.06C4715.75 1436.06 4795.74 1435.96 4797.17 1436.04L4797.21 1449.61C4790.37 1450.52 4769.62 1460.93 4769.67 1483.69C4769.83 1547.98 4769.98 1674.67 4770.06 1686.06C4770.34 1728.54 4769.59 1811.98 4769.96 1841.81C4770.26 1865.89 4772.87 1890.95 4797.08 1897.27L4797.22 1910.99C4763.89 1911.08 4742.08 1910.72 4702.19 1910.99L4702.2 1897.33C4725.05 1891.52 4729.4 1865.41 4729.04 1842.11C4727.22 1727.54 4730.37 1612.69 4728.19 1505.33C4678.9 1625.34 4610.3 1773.04 4553.05 1897.38H4539.38C4481.14 1762.42 4423.73 1627.16 4376.8 1524.59C4375.95 1533.49 4376.31 1824.45 4376.67 1870.15C4376.8 1887.7 4387.65 1893.25 4403.7 1897.39L4403.65 1911C4400.36 1910.84 4381.94 1910.84 4361.93 1910.92C4344.04 1911.01 4326.62 1910.91 4322.27 1910.94L4322.28 1897.36C4337.09 1897.6 4348.41 1882.83 4349.26 1870.13C4349.74 1863.16 4348.8 1514.55 4349.31 1476.69C4349.44 1464.7 4346.1 1451.92 4322.28 1449.6L4322.27 1436.06C4323.66 1436.07 4343.13 1436.02 4361.13 1436.05C4376.25 1436.07 4390.12 1436.04 4390.12 1436.04C4411 1488.86 4432.43 1537.2 4456.38 1588.57C4467.67 1612.78 4478.84 1637 4489.92 1661.21C4501 1685.42 4511.48 1708.3 4521.32 1729.85C4531.17 1751.38 4539.41 1769.35 4545.95 1783.72C4550.07 1792.72 4553.14 1799.51 4555.19 1804.03C4557.23 1808.53 4558.46 1811.2 4558.87 1812.02C4601.84 1719.53 4697.73 1495.46 4715.75 1436.06V1436.06Z" fill="#FF5200"/>
<path d="M3851.37 1436.54C3880.1 1432.57 3909.96 1432.84 3940.94 1437.76C3971.92 1442.68 4000.96 1452.75 4028.05 1467.94C4055.13 1483.11 4078.43 1503.64 4097.92 1529.49C4117.4 1555.32 4130.05 1587.15 4135.77 1624.91C4141.92 1665.51 4140.08 1702.39 4130.23 1735.4C4120.39 1768.41 4105.6 1797.06 4085.91 1821.27C4066.22 1845.48 4042.91 1864.99 4016.04 1879.76C3989.17 1894.52 3961.74 1903.7 3933.86 1907.46C3916.22 1909.83 3897.63 1910.62 3878.15 1909.61C3858.67 1908.59 3839.36 1905.39 3820.29 1900.07C3801.22 1894.74 3782.62 1886.93 3764.57 1876.67C3746.53 1866.43 3730.19 1853.38 3715.63 1837.58C3701.08 1821.8 3688.55 1803.02 3678.08 1781.27C3667.62 1759.52 3660.4 1734.25 3656.23 1705.54C3650.99 1669.43 3652.95 1635.78 3662.39 1604.58C3671.83 1573.4 3685.99 1545.99 3704.86 1522.41C3723.72 1498.82 3746.01 1479.51 3771.66 1464.54C3797.28 1449.57 3823.91 1440.32 3851.37 1436.54V1436.54ZM3712.26 1699.39C3716.37 1729.72 3725.4 1757.16 3739.33 1781.57C3753.28 1805.98 3770.34 1826.3 3790.42 1842.51C3810.53 1858.71 3832.92 1870.43 3857.53 1877.6C3882.14 1884.76 3906.99 1886.59 3932.01 1882.84C3953.34 1879.63 3974.09 1871.02 3994.19 1857.29C4014.28 1843.55 4031.45 1825.67 4045.59 1803.74C4059.73 1781.79 4070.12 1756.53 4076.68 1728.01C4083.24 1699.5 4083.64 1668.81 4077.91 1635.98C4072.59 1605.63 4062.51 1578.83 4047.74 1555.65C4032.97 1532.48 4015.63 1513.48 3995.73 1498.71C3975.82 1483.93 3954.26 1473.35 3931.1 1467.01C3907.91 1460.65 3885.22 1459.1 3863.07 1462.39C3838.46 1466.05 3815.96 1474.4 3795.66 1487.32C3775.37 1500.23 3758.2 1516.99 3744.26 1537.49C3730.32 1558 3720.34 1581.93 3714.4 1609.21C3708.46 1636.49 3707.8 1666.57 3712.26 1699.39V1699.39Z" fill="#FF5200"/>
<path d="M3516.75 1883.86C3513.61 1883.58 3451.38 1905.64 3408.91 1908.94C3395.8 1909.97 3382.83 1910.47 3370.12 1910.47C3334.01 1910.47 3301.06 1904.52 3271.31 1892.63C3241.57 1880.74 3216 1863.99 3194.67 1842.45C3173.35 1820.92 3156.7 1795.35 3144.81 1765.81C3132.93 1736.28 3126.96 1704.04 3126.96 1669.16C3126.96 1635.93 3133.13 1604.92 3145.43 1576.21C3157.73 1547.5 3175.2 1522.55 3197.75 1501.42C3220.31 1480.3 3247.73 1463.66 3279.94 1451.56C3312.15 1439.46 3347.95 1433.4 3387.36 1433.4C3395.97 1433.4 3407.27 1433.91 3421.22 1434.93C3435.16 1435.95 3448.83 1437.61 3462.15 1439.86C3475.47 1442.1 3486.69 1445.12 3495.7 1448.79C3504.7 1452.46 3502.72 1455.72 3502.93 1461.13C3503.64 1479.43 3502.94 1514.2 3503.2 1530.96C3503.2 1530.96 3493.32 1531 3489.63 1531C3489.6 1510.73 3487.45 1497.17 3471.38 1482.95C3464.21 1476.59 3455.87 1471.56 3446.45 1467.86C3437.02 1464.18 3426.53 1461.61 3415.06 1460.18C3403.57 1458.74 3391.87 1458.01 3379.97 1458.01C3355.76 1458.01 3332.04 1461.93 3308.87 1469.72C3285.68 1477.5 3264.94 1489.73 3246.69 1506.35C3228.44 1522.95 3213.75 1544.11 3202.69 1569.75C3191.6 1595.39 3186.05 1626.08 3186.05 1661.78C3186.05 1690.92 3189.04 1716.58 3194.98 1738.73C3200.92 1760.87 3208.83 1780.17 3218.69 1796.59C3228.54 1813.01 3239.93 1826.86 3252.85 1838.14C3265.78 1849.43 3279.11 1858.46 3292.86 1865.23C3306.61 1872.01 3320.37 1876.84 3334.11 1879.7C3347.85 1882.55 3360.47 1884.01 3371.97 1884.01C3397.82 1884.01 3422.44 1881.12 3445.83 1875.39C3489.62 1864.65 3501.5 1857.08 3503.22 1815.96L3516.76 1815.98C3516.42 1823.01 3517.77 1883.95 3516.75 1883.86V1883.86Z" fill="#FF5200"/>
<path d="M7172.33 89.0199C7195.04 89.4399 7252.17 87.6399 7272.18 89.0199C7579.27 110.32 7749.3 308.2 7751.25 516.21C7754.05 814.52 7573.26 1011.15 7172.56 1016.98C7170.97 875.12 7171.92 271.73 7172.33 89.0199ZM4358.8 481.41L4469.63 482.2C4607.47 483.18 4696.07 422.57 4696.61 273.45C4697.01 160.3 4613.13 77.7599 4457.32 75.3099C4442.43 75.0899 4376.1 75.2899 4358.92 75.2199C4359.2 209.07 4358.69 345.04 4358.8 481.41ZM4413.96 539.03L4358.83 538.8C4358.92 684.29 4358.94 830.25 4358.94 975.09C4358.94 1004.19 4373.82 1059.45 4429.23 1059.49L4429.25 1087.63H4190.25C4190.25 1078.27 4190.23 1059.51 4190.23 1059.51C4251.57 1050.27 4246.41 997.36 4246.46 933.99C4246.64 750.06 4246.18 305.07 4246.18 195.84C4246.18 194.9 4246.18 104.12 4246.18 103.27C4246.18 63.4599 4231.86 44.7699 4190.14 47.1099C4190.14 47.1099 4190.23 21.6899 4190.07 18.9299C4262.74 18.9299 4386.62 19.0699 4471.44 18.9399C4662.14 18.6399 4808.64 67.2499 4808.64 286.61C4808.64 455.42 4639.18 510.2 4569.17 538.11C4588.78 585.07 4675.76 716.41 4747.56 827.69C4825.62 948.65 4903.71 1060.29 4963.51 1059.44L4963.39 1087.49C4859.87 1087.49 4805.26 1059.4 4750.63 1009.77C4703.04 966.53 4505.77 676.26 4456.22 569.49C4445.01 545.36 4434.32 538.38 4413.96 539.03V539.03ZM7060.14 131.25L7060.16 988.95C7060.16 1041.56 7031.63 1058.59 7003.88 1059.28C7003.88 1059.28 7003.94 1076.25 7003.88 1087.41C7140.4 1087.41 7328.47 1096.49 7456.6 1067.96C7747.95 1003.1 7890.99 791.43 7877.09 503.67C7859.45 137.46 7561.03 15.8199 7225.22 18.5099C7186.14 18.8199 7041.46 18.7599 7003.8 18.7599C7003.77 22.0099 7003.87 46.9399 7003.87 46.9399C7047.56 49.5799 7060.14 81.7599 7060.14 131.25V131.25ZM5991.44 1087.35L6188.36 1087.43C6188.42 1080.59 6188.4 1059.28 6188.4 1059.28C6188.14 1059.26 6181.41 1059.24 6174.28 1059.25C6138.51 1059.25 6119.81 1019.85 6118.27 988.37C6117.73 977.3 6118.57 956.45 6118.28 939.76C6121.24 698.43 6118.86 356.69 6117.45 158.44C6159.53 213.9 6694.45 1087.39 6694.45 1087.39C6707.71 1087.41 6785.09 1087.36 6806.95 1087.45C6806.95 764.12 6800.42 437.93 6803.8 114.82C6801.96 80.2999 6822.34 51.6799 6862.93 47.0399C6862.93 47.0399 6863.12 23.3899 6863.02 18.7099L6666.41 18.8099C6666.41 18.8099 6666.19 46.9199 6666.44 46.9299C6718.59 50.2499 6733.92 75.2399 6734.26 117.45L6734.27 915.09C6671.99 824.52 6160.18 18.7299 6160.18 18.7299C6138.07 18.7299 5991.48 18.7499 5991.48 18.7499C5991.44 20.7999 5991.51 46.8799 5991.51 46.8799C5991.51 46.8799 6021.9 48.7299 6043.22 64.7499C6063.15 79.7199 6061.52 115.84 6061.49 143.2C6061.16 317.39 6059.21 861.1 6060.8 981.01C6061.14 1006.8 6057.65 1026.95 6035.65 1045.4C6025.51 1053.92 6011.49 1059.51 5991.31 1059.22C5991.31 1059.22 5991.48 1086.37 5991.44 1087.35V1087.35ZM3242.62 881.18C3336.9 1009.43 3490.69 1078.26 3696.16 1100.16C3791.29 1110.3 3918.52 1090.88 4006.98 1044.09C4006.98 994.67 4007.48 741.39 4007.38 641.22C4007.32 586.43 4004.95 551.81 4063.58 539.23C4063.58 539.23 4063.71 517.57 4063.5 510.32L3824.26 510.7C3824.29 513.16 3824.58 539.16 3824.58 539.16C3874.64 546.56 3898.68 549.5 3894.69 641.31C3893.94 722.61 3893.53 906.63 3893.53 987.96C3857.97 1011.12 3811.86 1025.69 3730.32 1029.27C3466.47 1040.86 3245.49 807.3 3245.49 550.11C3255.03 321.35 3358.2 60.1499 3685 59.8799C3884.62 59.6899 3943.23 153.05 3949.03 187.93C3949.32 189.67 3951.13 213.91 3951.18 215.85L3979.32 215.88C3979.04 159.64 3979.32 103.36 3979.32 47.1199C3926.6 47.1199 3881.25 30.0499 3829.05 20.2099C3777.88 10.5999 3762 6.14989 3698.21 4.93989C3212.98 -4.02011 2977.62 520.75 3242.62 881.18V881.18ZM5300.82 553.3C5338.06 446.55 5383.73 331.05 5413.55 229.95L5416.9 219.58L5437.85 219.48L5441.26 229.96C5444.69 245.44 5539.17 517.18 5553.02 552.91L5300.82 553.3ZM5005.73 1087.62L5188.53 1087.65C5188.51 1084.12 5188.51 1059.5 5188.51 1059.5C5143.43 1059.81 5137.76 1013.34 5149.84 979.25L5286.92 609.55C5308.31 610.68 5259.01 609.42 5567.93 609.42C5567.93 609.42 5694.89 928.69 5711.86 990.96C5729.23 1062.89 5666.53 1059.52 5666.53 1059.52C5666.53 1063.64 5666.73 1081.59 5666.5 1087.68H5905.49C5905.51 1075.87 5905.62 1059.5 5905.62 1059.5C5869.76 1057.85 5855.9 1055.7 5833.97 1014.14C5816.02 980.14 5793.43 922.69 5760.69 830.85C5662.87 563.37 5554.89 284.17 5466.58 4.93989L5446.11 5.01991C5432.82 45.0899 5389.55 160.01 5343.79 286.29C5261.52 513.25 5156.76 801.17 5118.22 904.79C5111.76 922.18 5083.24 993.15 5074.6 1012.3C5057.37 1054.69 5039.14 1058.88 5005.71 1059.54L5005.73 1087.62V1087.62Z" fill="#FF5200"/>
<path d="M2447.7 45.0801C2447.7 28.5601 2456.46 4.62012 2482.34 4.62012C2507.76 4.62012 2516.97 29.3401 2516.97 45.8601V1894.44C2516.97 1910.97 2515.66 1947.7 2483.24 1947.7C2447.23 1947.7 2448.3 1914.7 2447.7 1893.1V45.0801V45.0801Z" fill="#FF5200"/>
<path d="M187.59 720.42C300.42 708.2 386.5 654.16 435.19 577.97C491.92 489.19 497.94 370.31 436.43 252.36C195.35 284.02 78.61 463.8 187.59 720.42V720.42Z" fill="#FF5200"/>
<path d="M660.01 238.77C771.95 224.35 825.1 119.48 773.49 19.0801C667.58 34.6701 623.57 120.77 660.01 238.77Z" fill="#FF5200"/>
<path d="M561.54 311.03C640.96 245.97 630.33 139.13 540.91 86.1602C466.73 149.21 475.17 237.11 561.54 311.03Z" fill="#FF5200"/>
<path d="M587.43 101.17C631.18 105.39 647.55 82.7599 642.99 45.9199C603.07 42.4499 584.86 65.7599 587.43 101.17V101.17Z" fill="#FF5200"/>
<path d="M973.36 294.76C991.92 375 1038.07 433.33 1096.82 463.37C1165.28 498.36 1250.87 494.98 1329.91 443.17C1286.29 272.07 1147.5 199.87 973.36 294.76V294.76Z" fill="#FF5200"/>
<path d="M155.63 1049.04C208.27 990.29 229.31 921.86 221.71 859.06C212.84 785.89 165.09 720.34 83.11 686.57C-27 815.04 -9.99001 964.07 155.63 1049.04Z" fill="#FF5200"/>
<path d="M1435.69 913.02C1250.87 834.93 1072.3 929.39 1062.83 1136.58C1240.15 1206.68 1397.71 1128.84 1435.69 913.02Z" fill="#FF5200"/>
<path d="M1289.88 1737.12C1262.99 1577.5 1074.41 1465.07 878.83 1582.42C890.57 1745.86 1080.29 1869.59 1289.88 1737.12Z" fill="#FF5200"/>
<path d="M607.35 1182.44C500.54 1114.02 382.76 1150.85 359.17 1275.29C462.06 1338.02 565.51 1308.86 607.35 1182.44V1182.44Z" fill="#FF5200"/>
<path d="M216.57 1613.36C284.43 1626.74 344.32 1610.94 386.49 1575.46C435.62 1534.11 460.71 1466.04 446.35 1386.26C300.34 1360.89 199.78 1444.28 216.57 1613.36Z" fill="#FF5200"/>
<path d="M1688.84 1121.83C1680.15 1170.62 1692.2 1213.41 1718.08 1243.28C1748.23 1278.08 1797.16 1295.38 1853.96 1284.27C1861.8 1237.23 1851.17 1196.04 1824.13 1166.87C1796.01 1136.56 1750.15 1119.23 1688.84 1121.83V1121.83Z" fill="#FF5200"/>
<path d="M1727.02 1120.22C1775.48 1125.39 1816.55 1110.57 1843.94 1083.04C1875.85 1050.96 1889.23 1001.62 1874.18 946.5C1770.11 937.78 1704.71 1002.57 1727.02 1120.22V1120.22Z" fill="#FF5200"/>
<path d="M1398.37 1470.99C1456.25 1500.8 1515.19 1503.32 1563.61 1484.13C1620.03 1461.75 1662.19 1409.89 1671.83 1337.32C1546.32 1276.14 1431.19 1320.86 1398.37 1470.99Z" fill="#FF5200"/>
<path d="M1857.02 1669.15C1737.11 1679.47 1668.81 1779.58 1721.8 1892.15C1835.5 1879.7 1897.3 1794.29 1857.02 1669.15Z" fill="#FF5200"/>
<path d="M1614 448.82C1642.26 477.93 1676.57 490.77 1708.99 488.48C1746.77 485.8 1781.99 462.58 1802.13 420.61C1740.17 359.57 1663.27 364.47 1614 448.82V448.82Z" fill="#FF5200"/>
<path d="M477.21 210.64C457.42 176.73 432.48 176.69 408.18 199.23C426.5 229.97 452.9 230.99 477.21 210.64Z" fill="#FF5200"/>
<path d="M399.24 220.14C371.8 212.69 354.61 227.67 353.51 251.64C378.57 258.2 397.02 242.99 399.24 220.14Z" fill="#FF5200"/>
<path d="M1283.36 57.6201C1259.68 103.86 1260.03 149.97 1279.02 187.08C1301.15 230.32 1348.59 261.38 1412.81 266.3C1461.12 166.14 1416.78 77.8601 1283.36 57.6201V57.6201Z" fill="#FF5200"/>
<path d="M499.21 438.99C503.58 490.98 527.24 531.73 561.35 555.88C601.1 584.02 655.07 589.65 709.32 564.33C697.46 453.1 616.98 395.27 499.21 438.99V438.99Z" fill="#FF5200"/>
<path d="M951.13 321.68C1008.37 214.13 948 109.55 825.97 100.68C773.55 203.49 822.89 289.69 951.13 321.68Z" fill="#FF5200"/>
<path d="M1126.87 12.7998C1108.12 49.4098 1108.4 85.9098 1123.44 115.28C1140.96 149.52 1178.51 174.1 1229.35 178C1267.59 98.7098 1232.49 28.8298 1126.87 12.7998Z" fill="#FF5200"/>
<path d="M503.21 1119.14C508.18 1072.03 494.25 1030.19 468.28 1000.5C438.02 965.91 391.41 947.8 339.3 957.04C330.88 1058.43 392 1129.22 503.21 1119.14V1119.14Z" fill="#FF5200"/>
<path d="M277.27 1349.42C315.94 1322 336.71 1285.43 339.59 1248.77C342.93 1206.05 321.95 1163.17 276.59 1134.48C202.38 1185.39 187.62 1281.89 277.27 1349.42Z" fill="#FF5200"/>
<path d="M932.08 1920.21C981.4 1791.97 875.18 1666.17 738.97 1685.83C716.96 1811.2 786.02 1919.56 932.08 1920.21Z" fill="#FF5200"/>
<path d="M1483.04 1155.15C1528.2 1178.84 1574.89 1181.99 1613.78 1168.57C1659.09 1152.92 1693.83 1114.75 1703.29 1060.29C1605.26 1011.54 1512.82 1042.77 1483.04 1155.15Z" fill="#FF5200"/>
<path d="M1800.21 1644.5C1837.17 1625.84 1859.87 1596.21 1867.1 1563.75C1875.52 1525.91 1862.95 1484.21 1827.48 1451.47C1749.18 1493.24 1731.49 1570.09 1800.21 1644.5Z" fill="#FF5200"/>
<path d="M1453.56 1859.99C1486.4 1886.86 1524.04 1896.33 1558.16 1890.44C1597.93 1883.57 1632.95 1855.84 1650.11 1810.47C1578.39 1754.42 1497.38 1767.84 1453.56 1859.99Z" fill="#FF5200"/>
<path d="M1420.82 507.4C1403.73 547.48 1404.49 586.71 1419 617.71C1435.91 653.84 1471.5 678.84 1519.28 681.08C1554.1 594.36 1520.2 520.58 1420.82 507.4V507.4Z" fill="#FF5200"/>
<path d="M1675.96 1519.95C1722.66 1516.95 1758.8 1495.66 1779.77 1464.23C1804.19 1427.6 1808.02 1377.2 1783.97 1325.87C1684.11 1334.63 1633.89 1408.76 1675.96 1519.95V1519.95Z" fill="#FF5200"/>
<path d="M985.78 114.44C1050.97 120.43 1094.31 67.8002 1077.8 4.44021C1015.88 -0.129795 980.08 43.0302 985.78 114.44Z" fill="#FF5200"/>
<path d="M710.49 1631.23C762.61 1637.96 807.25 1623.44 837.49 1595.16C872.71 1562.2 888.39 1510.57 873.58 1452.1C761.61 1440.16 689.44 1506.69 710.49 1631.23V1631.23Z" fill="#FF5200"/>
<path d="M1596.52 1728.26C1614.75 1685.15 1611.89 1643.3 1593.18 1610.49C1571.36 1572.25 1528 1546.26 1471.34 1544.78C1434.46 1637.99 1478.27 1716.09 1596.52 1728.26V1728.26Z" fill="#FF5200"/>
<path d="M1345.09 479.37C1387.52 501.62 1431.39 504.58 1467.92 491.97C1510.49 477.27 1543.13 441.41 1552.02 390.24C1459.92 344.44 1373.07 373.78 1345.09 479.37V479.37Z" fill="#FF5200"/>
<path d="M840.8 91.29C910.92 111.23 966.82 69.99 959.19 5.43004C892.41 -12.43 846.29 21.33 840.8 91.29Z" fill="#FF5200"/>
<path d="M976.16 171.69C1022.37 247.09 1108.01 252.62 1156.28 184.8C1111.3 114.07 1040.86 109.26 976.16 171.69V171.69Z" fill="#FF5200"/>
<path d="M1551.48 900.15C1551.92 942.82 1568.99 977.3 1595.72 998.76C1626.88 1023.77 1671.17 1031.12 1717.59 1013.21C1714.59 921.79 1651.57 870.46 1551.48 900.15Z" fill="#FF5200"/>
<path d="M464.23 1615.91C511.02 1614.86 548.28 1595.68 570.97 1566.1C597.39 1531.62 604.04 1482.99 582.92 1432.37C482.77 1436.9 428.49 1506.65 464.23 1615.91Z" fill="#FF5200"/>
<path d="M630.97 407.31C695.67 403.37 729.24 348.94 702.52 293.36C641.26 298.13 613.48 342.81 630.97 407.31Z" fill="#FF5200"/>
<path d="M387.21 1765.37C489.95 1795.67 566.03 1731.21 556.53 1652.07C481.37 1628.12 389.6 1664.54 387.21 1765.37Z" fill="#FF5200"/>
<path d="M675.54 1437.42C679.51 1399.65 668.39 1366.71 647.66 1343.87C623.5 1317.26 586.29 1304.34 544.69 1313.44C537.97 1394.66 586.76 1449.15 675.54 1437.42V1437.42Z" fill="#FF5200"/>
<path d="M587.99 1082.48C602.51 1050.92 603.07 1019.43 592.67 994.05C580.54 964.47 553.51 943.18 516.3 939.72C486.58 1008.07 510.85 1068.44 587.99 1082.48Z" fill="#FF5200"/>
<path d="M594.21 735.11C649.87 676.77 635.37 597.93 565 568.98C513.14 625.19 524.84 690.09 594.21 735.11V735.11Z" fill="#FF5200"/>
<path d="M778.29 364.3C831.96 310.85 821.27 237.78 757.01 210.33C706.95 261.85 715.54 322 778.29 364.3Z" fill="#FF5200"/>
<path d="M556.45 415.08C561.9 363.21 534.54 343.78 489.8 349.15C485.28 396.48 513.46 418.09 556.45 415.08Z" fill="#FF5200"/>
<path d="M613.49 390.26C621.45 357.36 606.37 322.18 568.52 321.5C557.76 356.32 576.77 388.65 613.49 390.26Z" fill="#FF5200"/>
<path d="M981.99 442.45C978.71 356.75 907.89 306.31 833.75 335.17C838.23 416.44 896.35 458.14 981.99 442.45Z" fill="#FF5200"/>
<path d="M740.47 515.33C782.57 481.09 776.67 446.67 739.73 417.78C701.65 449.36 706.56 485.98 740.47 515.33Z" fill="#FF5200"/>
<path d="M848.41 470.84C854.5 407.54 820.94 384.14 766.44 391.16C761.44 448.91 796.01 474.96 848.41 470.84Z" fill="#FF5200"/>
<path d="M1591.79 490.92C1563.4 513.1 1547.29 543.7 1543.83 574.94C1539.81 611.35 1552.96 648.66 1583.89 674.64C1643.87 625.53 1652.51 551.5 1591.79 490.92Z" fill="#FF5200"/>
<path d="M1346.42 587.63C1334.38 614.49 1333.54 640.54 1341.58 660.96C1350.96 684.75 1372.39 700.9 1402.21 701.78C1426.9 643.7 1408.16 595.11 1346.42 587.63V587.63Z" fill="#FF5200"/>
<path d="M970.87 1881.35C998.92 1909.73 1033 1922.27 1065.22 1920.06C1102.75 1917.47 1137.77 1894.87 1157.81 1853.99C1096.29 1794.48 1019.88 1799.2 970.87 1881.35V1881.35Z" fill="#FF5200"/>
<path d="M408.68 928.43C410.86 840.6 331.8 795.61 243.31 832.53C242.83 915.69 307.69 952.92 408.68 928.43Z" fill="#FF5200"/>
<path d="M379.44 704.18C301.39 687.94 229.81 736.74 228.09 805.95C302.62 820.19 361.64 780.21 379.44 704.18Z" fill="#FF5200"/>
<path d="M1619.37 211.31C1592.9 218.68 1574.16 235.22 1565.05 255.73C1554.44 279.63 1556.9 308.92 1575.4 335.35C1631.79 318.26 1653.72 269.8 1619.37 211.31Z" fill="#FF5200"/>
<path d="M1455.27 155.12C1453.32 180.31 1462.15 202.07 1477.66 216.99C1495.74 234.36 1522.9 242.44 1552.69 235.8C1555.57 181.66 1519.04 146.07 1455.27 155.12V155.12Z" fill="#FF5200"/>
<path d="M1387.03 1120.31C1423.12 1126.03 1455.11 1117.43 1477.75 1099.35C1504.13 1078.28 1517.83 1044.32 1510.57 1005.08C1432.9 994.46 1378.91 1036.98 1387.03 1120.31Z" fill="#FF5200"/>
<path d="M1459.84 886.68C1449.17 909.44 1449.16 931.52 1457.46 948.83C1467.14 968.98 1488.09 982.67 1516.58 983.41C1538.38 934.2 1519 893.02 1459.84 886.68V886.68Z" fill="#FF5200"/>
<path d="M1717.28 955.61C1753.85 960.65 1790.55 935.8 1787.42 887.18C1748.47 878.85 1715.28 908.3 1717.28 955.61Z" fill="#FF5200"/>
<path d="M104.2 1436.25C196.15 1419.29 233.78 1327.04 184.8 1242.89C97.9299 1260.6 66.73 1336.36 104.2 1436.25V1436.25Z" fill="#FF5200"/>
<path d="M517.45 582.63C428.1 576.11 371.44 655.57 397.08 748.74C481.89 753.27 528.71 688.1 517.45 582.63Z" fill="#FF5200"/>
<path d="M136.37 695.69C73.7 679.44 56.06 618.35 91.82 568.81C146.31 584.81 164.64 639.9 136.37 695.69Z" fill="#FF5200"/>
<path d="M1276.23 553.31C1322.83 563.52 1344.17 541.08 1345.18 500.56C1302.61 491.65 1279.17 514.59 1276.23 553.31Z" fill="#FF5200"/>
<path d="M1636.19 537.87C1641.13 564.39 1656.13 583.3 1676.06 592.64C1699.29 603.53 1729.22 601.45 1757.79 583.3C1745.83 526.8 1698.76 504.31 1636.19 537.87Z" fill="#FF5200"/>
<path d="M1676.36 280.52C1655.94 328.89 1678.28 355.42 1725.47 363.05C1743.64 318.79 1721.09 289.93 1676.36 280.52Z" fill="#FF5200"/>
<path d="M1570.45 1206.58C1492.25 1172.52 1417.11 1211.45 1413.63 1299C1488.65 1329.65 1554.96 1297.62 1570.45 1206.58Z" fill="#FF5200"/>
<path d="M1424.99 1192.72C1366.6 1153.25 1295.55 1168.44 1274.38 1232.72C1330.82 1269.07 1393.03 1257.39 1424.99 1192.72V1192.72Z" fill="#FF5200"/>
<path d="M1420.94 1131.09C1407.01 1167.55 1426.79 1198.06 1466.25 1197.98C1477.07 1159.21 1460.97 1130.29 1420.94 1131.09Z" fill="#FF5200"/>
<path d="M435.82 872.39C500.31 857.2 521.77 781.73 488.77 733.95C428.44 741.4 399.44 810.04 435.82 872.39Z" fill="#FF5200"/>
<path d="M302.16 942.47C209.47 946.08 162.37 1037.69 201.72 1134.21C289.47 1129.01 328.46 1053.83 302.16 942.47Z" fill="#FF5200"/>
<path d="M1125.27 911.97C1083.19 885.99 1036.34 897.56 1026.48 941.81C1067.02 965.69 1108.17 956.67 1125.27 911.97Z" fill="#FF5200"/>
<path d="M614.98 1148.72C613.21 1104.91 583.15 1090.84 550.33 1099.97C549.13 1134.65 578.05 1154.36 614.98 1148.72Z" fill="#FF5200"/>
<path d="M670.6 1321.03C668.45 1267.82 631.94 1250.73 592.07 1261.82C590.63 1303.94 625.75 1327.89 670.6 1321.03Z" fill="#FF5200"/>
<path d="M765.31 1465.55C780.77 1414.9 755.75 1381.72 712.16 1379.88C697.25 1411.12 702.55 1456.24 765.31 1465.55Z" fill="#FF5200"/>
<path d="M411.29 1130.12C358.48 1106.82 328.47 1132.88 324.78 1175.48C365.44 1196.88 401.66 1175.38 411.29 1130.12Z" fill="#FF5200"/>
<path d="M1663.29 347.63C1621.21 321.65 1574.35 333.22 1564.49 377.47C1605.04 401.35 1646.18 392.33 1663.29 347.63Z" fill="#FF5200"/>
<path d="M1371.3 279.87C1370.61 303.3 1379.66 322.37 1394.56 334.37C1411.92 348.34 1437.21 352.72 1464.28 343.25C1464.56 293.03 1429.46 264.35 1371.3 279.87Z" fill="#FF5200"/>
<path d="M1521.23 251.54C1499.34 263.82 1486.94 281.84 1484.32 300.86C1481.26 323.02 1491.45 346.55 1515.36 363.97C1561.59 336.66 1568.17 291.62 1521.23 251.54V251.54Z" fill="#FF5200"/>
<path d="M1206.27 184.34C1195.46 211.5 1196.75 237.2 1207.22 256.81C1219.41 279.67 1244.05 294.28 1276.52 293.35C1298.44 234.7 1273.97 187.99 1206.27 184.34Z" fill="#FF5200"/>
<path d="M1348.34 266.57C1310.08 258.75 1281.71 288.96 1291.09 334.04C1331.4 332.37 1356.83 306.72 1348.34 266.57V266.57Z" fill="#FF5200"/>
<path d="M1522.37 502.12C1558.59 508.31 1574.21 490.28 1573.54 459.06C1540.46 453.72 1523.24 472.22 1522.37 502.12Z" fill="#FF5200"/>
<path d="M1757.88 509.49C1799.49 528.63 1822.16 512.7 1828.49 476C1790.42 458.89 1765.75 474.84 1757.88 509.49Z" fill="#FF5200"/>
<path d="M1861.19 559.06C1821.85 596.4 1787.89 587.37 1763.07 548.92C1799.26 515.2 1835.56 523.47 1861.19 559.06Z" fill="#FF5200"/>
<path d="M602.09 761.99C555.98 752.13 510.49 773.81 515.67 825.5C564.85 839.12 605.81 812.16 602.09 761.99Z" fill="#FF5200"/>
<path d="M586.09 911.84C539.14 941.45 480.07 935.97 464.8 876.74C513.61 841.72 569.83 854.87 586.09 911.84Z" fill="#FF5200"/>
<path d="M10.18 1163.7C78.44 1163.5 120.32 1093.43 100.51 1038.31C38.49 1031.78 -9.02997 1093.31 10.18 1163.7Z" fill="#FF5200"/>
<path d="M17.52 966.41C-10.2701 996.37 -0.920036 1024.21 25.44 1038.46C49.05 1016.35 44.13 985.49 17.52 966.41Z" fill="#FF5200"/>
<path d="M35.77 1257.42C78.4 1267.94 116.72 1260.82 144.35 1241.36C176.54 1218.67 194.2 1179.2 187.17 1131.28C106.58 1110.1 29.53 1156.39 35.77 1257.42V1257.42Z" fill="#FF5200"/>
<path d="M282.95 1410.06C291.52 1364.85 248.96 1344.63 215.36 1355.05C216.66 1388.08 234.32 1411.46 282.95 1410.06Z" fill="#FF5200"/>
<path d="M407.59 1310.14C344.22 1295.36 302.51 1326.62 298.59 1381.3C361.63 1389.86 405.99 1359.06 407.59 1310.14Z" fill="#FF5200"/>
<path d="M244.07 1427.5C209.43 1398.9 174.04 1405.42 154.82 1438.02C191.17 1462.68 228.06 1457.26 244.07 1427.5Z" fill="#FF5200"/>
<path d="M200.96 1534.12C202.12 1489.68 185.31 1464.41 132.2 1465.07C131.73 1503.38 142.58 1533.96 200.96 1534.12Z" fill="#FF5200"/>
<path d="M494.29 1437.78C545.42 1385.08 526.8 1337.44 476.71 1313.86C433.16 1352.88 443.55 1405.89 494.29 1437.78Z" fill="#FF5200"/>
<path d="M669.02 1589.7C704.02 1532.44 677.13 1479.98 620.43 1470.05C590.72 1526.6 612.77 1584.51 669.02 1589.7Z" fill="#FF5200"/>
<path d="M725.67 1474.09C701.98 1439.94 675.22 1449.87 656.23 1469.21C671.23 1498.8 708.67 1500.75 725.67 1474.09Z" fill="#FF5200"/>
<path d="M680.34 1656.5C660.58 1588.49 591.31 1594.99 555.66 1614.17C563.26 1671.07 629.65 1687.37 680.34 1656.5V1656.5Z" fill="#FF5200"/>
<path d="M297.36 1694.23C372.22 1710.86 429.56 1685.18 436.16 1615.22C366.14 1583.65 300.13 1617.5 297.36 1694.23V1694.23Z" fill="#FF5200"/>
<path d="M549.88 1864.97C647.53 1837.9 661.1 1764.66 620.72 1697.67C541.86 1713.42 514.87 1787.15 549.88 1864.97Z" fill="#FF5200"/>
<path d="M703.38 1768.66C734 1716.93 704.82 1687.73 667.95 1674.43C638.09 1711.98 658.09 1762.36 703.38 1768.66Z" fill="#FF5200"/>
<path d="M527.05 1766.78C493.22 1764.66 486.53 1786.62 489.77 1808.38C516.37 1813.72 536.02 1790.95 527.05 1766.78Z" fill="#FF5200"/>
<path d="M926.15 1475.75C894.69 1486.52 898.3 1521 912.72 1535.88C940.6 1526.66 947.64 1492.98 926.15 1475.75Z" fill="#FF5200"/>
<path d="M862.83 1620.85C827.19 1603.82 796.4 1624.18 793.6 1657.85C825.72 1668.32 855.29 1656.71 862.83 1620.85Z" fill="#FF5200"/>
<path d="M722.03 1905.84C758.35 1846.43 730.45 1792.01 671.62 1781.71C640.8 1840.37 663.68 1900.45 722.03 1905.84Z" fill="#FF5200"/>
<path d="M783.22 1947.95C807.87 1907.63 788.94 1870.7 749.02 1863.71C728.11 1903.52 743.63 1944.29 783.22 1947.95Z" fill="#FF5200"/>
<path d="M947.39 1760.92C934.66 1803.02 969.62 1827.09 993.2 1822.77C1007.28 1788.89 981.24 1754.71 947.39 1760.92Z" fill="#FF5200"/>
<path d="M1208.92 1805.49C1153.37 1818.48 1155.22 1878.03 1178.17 1905.95C1227.35 1894.98 1243.74 1838.64 1208.92 1805.49Z" fill="#FF5200"/>
<path d="M1276.77 1879.17C1330.25 1841.92 1331.27 1790.79 1290.49 1755.86C1252.31 1774.74 1223.12 1822.42 1276.77 1879.17Z" fill="#FF5200"/>
<path d="M1064.68 968.53C1038.07 989.26 1030.18 1026.21 1062.74 1050.45C1092.93 1029.97 1095.7 992.79 1064.68 968.53Z" fill="#FF5200"/>
<path d="M1068.07 1153.43C1037.07 1176.63 1027.87 1217.97 1065.81 1245.1C1100.99 1222.18 1104.22 1180.58 1068.07 1153.43Z" fill="#FF5200"/>
<path d="M1103.52 1219.96C1123.07 1247.73 1148.97 1262.53 1174.83 1264.38C1204.96 1266.53 1235.05 1251.12 1255.01 1218.18C1211.88 1159.65 1150.59 1154.8 1103.52 1219.96Z" fill="#FF5200"/>
<path d="M1277.24 1177C1299.42 1182.5 1327.01 1176.48 1330.78 1148.96C1306.87 1139.26 1279.98 1150.14 1277.24 1177Z" fill="#FF5200"/>
<path d="M1797.77 908.94C1824.43 943.5 1850.05 938.08 1870.8 906.9C1846.24 875.65 1818.94 880.27 1797.77 908.94Z" fill="#FF5200"/>
<path d="M1814.19 1141.97C1838.76 1153.6 1865.85 1145.07 1867.66 1111.51C1841.73 1097.11 1816.66 1109.54 1814.19 1141.97Z" fill="#FF5200"/>
<path d="M1659.39 1162.37C1676.36 1184.56 1681.26 1208.95 1675.82 1230.35C1669.47 1255.28 1649.08 1276.16 1617.39 1284.83C1582.11 1236.47 1594.65 1185.66 1659.39 1162.37Z" fill="#FF5200"/>
<path d="M1864.68 1343.3C1874.24 1327.94 1870.45 1306.55 1848.06 1298.24C1836.55 1314.01 1843.1 1334.75 1864.68 1343.3Z" fill="#FF5200"/>
<path d="M1844.48 1425.33C1873.55 1402.96 1880.81 1363.74 1843.04 1338.62C1809.92 1360.78 1808.45 1400.16 1844.48 1425.33Z" fill="#FF5200"/>
<path d="M1356.27 1382.34C1403.92 1394.02 1442.25 1369.73 1440.94 1326.32C1395.68 1316.58 1358.25 1337.32 1356.27 1382.34Z" fill="#FF5200"/>
<path d="M1318.74 1408.52C1303.14 1432.84 1299.81 1458 1306.66 1478.96C1314.64 1503.39 1336.45 1522.14 1368.81 1527.28C1401.07 1474.49 1385.2 1424.66 1318.74 1408.52V1408.52Z" fill="#FF5200"/>
<path d="M1450.97 1665.4C1400.78 1589.23 1339.4 1577.98 1268.42 1622.49C1308.8 1704.38 1368.98 1720.83 1450.97 1665.4Z" fill="#FF5200"/>
<path d="M1421.82 1788.23C1405.58 1730.76 1361.6 1714.57 1319.14 1739.42C1324.07 1778.15 1356.62 1817.69 1421.82 1788.23Z" fill="#FF5200"/>
<path d="M1496.52 1786.29C1521.18 1735.2 1500.12 1695.99 1454.27 1686.9C1433.38 1717.53 1430.82 1780.2 1496.52 1786.29Z" fill="#FF5200"/>
<path d="M1356.58 1572.16C1354.24 1533.37 1315.92 1510.91 1274.55 1522C1283.07 1546.66 1300.32 1592.12 1356.58 1572.16Z" fill="#FF5200"/>
<path d="M1436.01 1573.76C1426 1537.01 1398.43 1525.3 1371.68 1539.5C1374.64 1564.06 1394.95 1590.08 1436.01 1573.76Z" fill="#FF5200"/>
<path d="M1263.49 1604.16C1273.1 1566.34 1253.65 1545.43 1223.52 1548.53C1217.03 1572.4 1224.77 1598.76 1263.49 1604.16Z" fill="#FF5200"/>
<path d="M1251.29 1520.18C1230.4 1482.1 1176.36 1487.43 1157.68 1517.99C1172.57 1545.66 1223.21 1554.83 1251.29 1520.18Z" fill="#FF5200"/>
<path d="M1762.07 1660.82C1742.57 1570.76 1710.38 1540.32 1607.1 1547.67C1615.37 1638.99 1665.64 1678.41 1762.07 1660.82Z" fill="#FF5200"/>
<path d="M1635.41 1667.9C1618.23 1694.69 1614.56 1722.4 1622.11 1745.5C1630.9 1772.41 1654.93 1793.07 1690.58 1798.73C1726.11 1740.58 1708.63 1685.67 1635.41 1667.9Z" fill="#FF5200"/>
<path d="M1663.1 1824.53C1654.36 1838.16 1652.49 1852.27 1656.33 1864.02C1660.8 1877.72 1673.03 1888.23 1691.17 1891.11C1709.25 1861.52 1700.35 1833.58 1663.1 1824.53Z" fill="#FF5200"/>
<path d="M1816.66 1896.05C1845.49 1902.88 1872.43 1887.64 1866.76 1851.45C1835.85 1841.99 1811.95 1860.92 1816.66 1896.05Z" fill="#FF5200"/>
<path d="M1716.74 1285.4C1724.34 1266.75 1716.69 1245.87 1691.41 1243.99C1681.8 1263.64 1692.29 1283.03 1716.74 1285.4Z" fill="#FF5200"/>
<path d="M1526.77 1507.86C1555.12 1500.82 1590.36 1508.52 1595.19 1543.68C1564.62 1556.08 1530.27 1542.17 1526.77 1507.86Z" fill="#FF5200"/>
<path d="M1593.16 1482.59C1621.77 1469.04 1657.6 1484.84 1659.7 1523.91C1624.86 1537.46 1592.04 1517.56 1593.16 1482.59Z" fill="#FF5200"/>
</svg>
